G04 #@! TF.GenerationSoftware,KiCad,Pcbnew,(5.0.1-3-g963ef8bb5)*
G04 #@! TF.CreationDate,2019-03-19T08:35:04+01:00*
G04 #@! TF.ProjectId,capacitive-touch-demo,636170616369746976652D746F756368,3.0.0*
G04 #@! TF.SameCoordinates,Original*
G04 #@! TF.FileFunction,Legend,Top*
G04 #@! TF.FilePolarity,Positive*
%FSLAX46Y46*%
G04 Gerber Fmt 4.6, Leading zero omitted, Abs format (unit mm)*
G04 Created by KiCad (PCBNEW (5.0.1-3-g963ef8bb5)) date 2019 March 19, Tuesday 08:35:04*
%MOMM*%
%LPD*%
G01*
G04 APERTURE LIST*
%ADD10C,0.150000*%
G04 APERTURE END LIST*
G04 #@! TO.C,C6*
D10*
X117333333Y-128732142D02*
X117285714Y-128779761D01*
X117142857Y-128827380D01*
X117047619Y-128827380D01*
X116904761Y-128779761D01*
X116809523Y-128684523D01*
X116761904Y-128589285D01*
X116714285Y-128398809D01*
X116714285Y-128255952D01*
X116761904Y-128065476D01*
X116809523Y-127970238D01*
X116904761Y-127875000D01*
X117047619Y-127827380D01*
X117142857Y-127827380D01*
X117285714Y-127875000D01*
X117333333Y-127922619D01*
X118190476Y-127827380D02*
X118000000Y-127827380D01*
X117904761Y-127875000D01*
X117857142Y-127922619D01*
X117761904Y-128065476D01*
X117714285Y-128255952D01*
X117714285Y-128636904D01*
X117761904Y-128732142D01*
X117809523Y-128779761D01*
X117904761Y-128827380D01*
X118095238Y-128827380D01*
X118190476Y-128779761D01*
X118238095Y-128732142D01*
X118285714Y-128636904D01*
X118285714Y-128398809D01*
X118238095Y-128303571D01*
X118190476Y-128255952D01*
X118095238Y-128208333D01*
X117904761Y-128208333D01*
X117809523Y-128255952D01*
X117761904Y-128303571D01*
X117714285Y-128398809D01*
G04 #@! TO.C,C8*
X117333333Y-63732142D02*
X117285714Y-63779761D01*
X117142857Y-63827380D01*
X117047619Y-63827380D01*
X116904761Y-63779761D01*
X116809523Y-63684523D01*
X116761904Y-63589285D01*
X116714285Y-63398809D01*
X116714285Y-63255952D01*
X116761904Y-63065476D01*
X116809523Y-62970238D01*
X116904761Y-62875000D01*
X117047619Y-62827380D01*
X117142857Y-62827380D01*
X117285714Y-62875000D01*
X117333333Y-62922619D01*
X117904761Y-63255952D02*
X117809523Y-63208333D01*
X117761904Y-63160714D01*
X117714285Y-63065476D01*
X117714285Y-63017857D01*
X117761904Y-62922619D01*
X117809523Y-62875000D01*
X117904761Y-62827380D01*
X118095238Y-62827380D01*
X118190476Y-62875000D01*
X118238095Y-62922619D01*
X118285714Y-63017857D01*
X118285714Y-63065476D01*
X118238095Y-63160714D01*
X118190476Y-63208333D01*
X118095238Y-63255952D01*
X117904761Y-63255952D01*
X117809523Y-63303571D01*
X117761904Y-63351190D01*
X117714285Y-63446428D01*
X117714285Y-63636904D01*
X117761904Y-63732142D01*
X117809523Y-63779761D01*
X117904761Y-63827380D01*
X118095238Y-63827380D01*
X118190476Y-63779761D01*
X118238095Y-63732142D01*
X118285714Y-63636904D01*
X118285714Y-63446428D01*
X118238095Y-63351190D01*
X118190476Y-63303571D01*
X118095238Y-63255952D01*
G04 #@! TO.C,C13*
X124357142Y-90357142D02*
X124309523Y-90404761D01*
X124166666Y-90452380D01*
X124071428Y-90452380D01*
X123928571Y-90404761D01*
X123833333Y-90309523D01*
X123785714Y-90214285D01*
X123738095Y-90023809D01*
X123738095Y-89880952D01*
X123785714Y-89690476D01*
X123833333Y-89595238D01*
X123928571Y-89500000D01*
X124071428Y-89452380D01*
X124166666Y-89452380D01*
X124309523Y-89500000D01*
X124357142Y-89547619D01*
X125309523Y-90452380D02*
X124738095Y-90452380D01*
X125023809Y-90452380D02*
X125023809Y-89452380D01*
X124928571Y-89595238D01*
X124833333Y-89690476D01*
X124738095Y-89738095D01*
X125642857Y-89452380D02*
X126261904Y-89452380D01*
X125928571Y-89833333D01*
X126071428Y-89833333D01*
X126166666Y-89880952D01*
X126214285Y-89928571D01*
X126261904Y-90023809D01*
X126261904Y-90261904D01*
X126214285Y-90357142D01*
X126166666Y-90404761D01*
X126071428Y-90452380D01*
X125785714Y-90452380D01*
X125690476Y-90404761D01*
X125642857Y-90357142D01*
G04 #@! TO.C,C4*
X84833333Y-96232142D02*
X84785714Y-96279761D01*
X84642857Y-96327380D01*
X84547619Y-96327380D01*
X84404761Y-96279761D01*
X84309523Y-96184523D01*
X84261904Y-96089285D01*
X84214285Y-95898809D01*
X84214285Y-95755952D01*
X84261904Y-95565476D01*
X84309523Y-95470238D01*
X84404761Y-95375000D01*
X84547619Y-95327380D01*
X84642857Y-95327380D01*
X84785714Y-95375000D01*
X84833333Y-95422619D01*
X85690476Y-95660714D02*
X85690476Y-96327380D01*
X85452380Y-95279761D02*
X85214285Y-95994047D01*
X85833333Y-95994047D01*
G04 #@! TO.C,C10*
X149357142Y-96232142D02*
X149309523Y-96279761D01*
X149166666Y-96327380D01*
X149071428Y-96327380D01*
X148928571Y-96279761D01*
X148833333Y-96184523D01*
X148785714Y-96089285D01*
X148738095Y-95898809D01*
X148738095Y-95755952D01*
X148785714Y-95565476D01*
X148833333Y-95470238D01*
X148928571Y-95375000D01*
X149071428Y-95327380D01*
X149166666Y-95327380D01*
X149309523Y-95375000D01*
X149357142Y-95422619D01*
X150309523Y-96327380D02*
X149738095Y-96327380D01*
X150023809Y-96327380D02*
X150023809Y-95327380D01*
X149928571Y-95470238D01*
X149833333Y-95565476D01*
X149738095Y-95613095D01*
X150928571Y-95327380D02*
X151023809Y-95327380D01*
X151119047Y-95375000D01*
X151166666Y-95422619D01*
X151214285Y-95517857D01*
X151261904Y-95708333D01*
X151261904Y-95946428D01*
X151214285Y-96136904D01*
X151166666Y-96232142D01*
X151119047Y-96279761D01*
X151023809Y-96327380D01*
X150928571Y-96327380D01*
X150833333Y-96279761D01*
X150785714Y-96232142D01*
X150738095Y-96136904D01*
X150690476Y-95946428D01*
X150690476Y-95708333D01*
X150738095Y-95517857D01*
X150785714Y-95422619D01*
X150833333Y-95375000D01*
X150928571Y-95327380D01*
G04 #@! TD*
M02*
