G04 #@! TF.GenerationSoftware,KiCad,Pcbnew,(5.0.1-3-g963ef8bb5)*
G04 #@! TF.CreationDate,2019-03-19T08:35:04+01:00*
G04 #@! TF.ProjectId,capacitive-touch-demo,636170616369746976652D746F756368,3.0.0*
G04 #@! TF.SameCoordinates,Original*
G04 #@! TF.FileFunction,Copper,L2,Bot,Signal*
G04 #@! TF.FilePolarity,Positive*
%FSLAX46Y46*%
G04 Gerber Fmt 4.6, Leading zero omitted, Abs format (unit mm)*
G04 Created by KiCad (PCBNEW (5.0.1-3-g963ef8bb5)) date 2019 March 19, Tuesday 08:35:04*
%MOMM*%
%LPD*%
G01*
G04 APERTURE LIST*
G04 #@! TA.AperFunction,SMDPad,CuDef*
%ADD10R,1.900000X0.800000*%
G04 #@! TD*
G04 #@! TA.AperFunction,Conductor*
%ADD11C,0.100000*%
G04 #@! TD*
G04 #@! TA.AperFunction,SMDPad,CuDef*
%ADD12C,1.425000*%
G04 #@! TD*
G04 #@! TA.AperFunction,SMDPad,CuDef*
%ADD13R,1.900000X1.000000*%
G04 #@! TD*
G04 #@! TA.AperFunction,SMDPad,CuDef*
%ADD14R,3.000000X1.000000*%
G04 #@! TD*
G04 #@! TA.AperFunction,SMDPad,CuDef*
%ADD15R,0.550000X1.600000*%
G04 #@! TD*
G04 #@! TA.AperFunction,SMDPad,CuDef*
%ADD16R,1.600000X0.550000*%
G04 #@! TD*
G04 #@! TA.AperFunction,SMDPad,CuDef*
%ADD17R,3.325000X2.400000*%
G04 #@! TD*
G04 #@! TA.AperFunction,ViaPad*
%ADD18C,1.000000*%
G04 #@! TD*
G04 #@! TA.AperFunction,ViaPad*
%ADD19C,7.000000*%
G04 #@! TD*
G04 #@! TA.AperFunction,Conductor*
%ADD20C,0.254000*%
G04 #@! TD*
G04 APERTURE END LIST*
D10*
G04 #@! TO.P,Q1,1*
G04 #@! TO.N,/RPin*
X95500000Y-67950000D03*
G04 #@! TO.P,Q1,2*
G04 #@! TO.N,Net-(J1-Pad2)*
X95500000Y-66050000D03*
G04 #@! TO.P,Q1,3*
G04 #@! TO.N,GND*
X98500000Y-67000000D03*
G04 #@! TD*
D11*
G04 #@! TO.N,Net-(C13-Pad1)*
G04 #@! TO.C,R6*
G36*
X141399504Y-60301204D02*
X141423773Y-60304804D01*
X141447571Y-60310765D01*
X141470671Y-60319030D01*
X141492849Y-60329520D01*
X141513893Y-60342133D01*
X141533598Y-60356747D01*
X141551777Y-60373223D01*
X141568253Y-60391402D01*
X141582867Y-60411107D01*
X141595480Y-60432151D01*
X141605970Y-60454329D01*
X141614235Y-60477429D01*
X141620196Y-60501227D01*
X141623796Y-60525496D01*
X141625000Y-60550000D01*
X141625000Y-61475000D01*
X141623796Y-61499504D01*
X141620196Y-61523773D01*
X141614235Y-61547571D01*
X141605970Y-61570671D01*
X141595480Y-61592849D01*
X141582867Y-61613893D01*
X141568253Y-61633598D01*
X141551777Y-61651777D01*
X141533598Y-61668253D01*
X141513893Y-61682867D01*
X141492849Y-61695480D01*
X141470671Y-61705970D01*
X141447571Y-61714235D01*
X141423773Y-61720196D01*
X141399504Y-61723796D01*
X141375000Y-61725000D01*
X140125000Y-61725000D01*
X140100496Y-61723796D01*
X140076227Y-61720196D01*
X140052429Y-61714235D01*
X140029329Y-61705970D01*
X140007151Y-61695480D01*
X139986107Y-61682867D01*
X139966402Y-61668253D01*
X139948223Y-61651777D01*
X139931747Y-61633598D01*
X139917133Y-61613893D01*
X139904520Y-61592849D01*
X139894030Y-61570671D01*
X139885765Y-61547571D01*
X139879804Y-61523773D01*
X139876204Y-61499504D01*
X139875000Y-61475000D01*
X139875000Y-60550000D01*
X139876204Y-60525496D01*
X139879804Y-60501227D01*
X139885765Y-60477429D01*
X139894030Y-60454329D01*
X139904520Y-60432151D01*
X139917133Y-60411107D01*
X139931747Y-60391402D01*
X139948223Y-60373223D01*
X139966402Y-60356747D01*
X139986107Y-60342133D01*
X140007151Y-60329520D01*
X140029329Y-60319030D01*
X140052429Y-60310765D01*
X140076227Y-60304804D01*
X140100496Y-60301204D01*
X140125000Y-60300000D01*
X141375000Y-60300000D01*
X141399504Y-60301204D01*
X141399504Y-60301204D01*
G37*
D12*
G04 #@! TD*
G04 #@! TO.P,R6,2*
G04 #@! TO.N,Net-(C13-Pad1)*
X140750000Y-61012500D03*
D11*
G04 #@! TO.N,Net-(R6-Pad1)*
G04 #@! TO.C,R6*
G36*
X141399504Y-63276204D02*
X141423773Y-63279804D01*
X141447571Y-63285765D01*
X141470671Y-63294030D01*
X141492849Y-63304520D01*
X141513893Y-63317133D01*
X141533598Y-63331747D01*
X141551777Y-63348223D01*
X141568253Y-63366402D01*
X141582867Y-63386107D01*
X141595480Y-63407151D01*
X141605970Y-63429329D01*
X141614235Y-63452429D01*
X141620196Y-63476227D01*
X141623796Y-63500496D01*
X141625000Y-63525000D01*
X141625000Y-64450000D01*
X141623796Y-64474504D01*
X141620196Y-64498773D01*
X141614235Y-64522571D01*
X141605970Y-64545671D01*
X141595480Y-64567849D01*
X141582867Y-64588893D01*
X141568253Y-64608598D01*
X141551777Y-64626777D01*
X141533598Y-64643253D01*
X141513893Y-64657867D01*
X141492849Y-64670480D01*
X141470671Y-64680970D01*
X141447571Y-64689235D01*
X141423773Y-64695196D01*
X141399504Y-64698796D01*
X141375000Y-64700000D01*
X140125000Y-64700000D01*
X140100496Y-64698796D01*
X140076227Y-64695196D01*
X140052429Y-64689235D01*
X140029329Y-64680970D01*
X140007151Y-64670480D01*
X139986107Y-64657867D01*
X139966402Y-64643253D01*
X139948223Y-64626777D01*
X139931747Y-64608598D01*
X139917133Y-64588893D01*
X139904520Y-64567849D01*
X139894030Y-64545671D01*
X139885765Y-64522571D01*
X139879804Y-64498773D01*
X139876204Y-64474504D01*
X139875000Y-64450000D01*
X139875000Y-63525000D01*
X139876204Y-63500496D01*
X139879804Y-63476227D01*
X139885765Y-63452429D01*
X139894030Y-63429329D01*
X139904520Y-63407151D01*
X139917133Y-63386107D01*
X139931747Y-63366402D01*
X139948223Y-63348223D01*
X139966402Y-63331747D01*
X139986107Y-63317133D01*
X140007151Y-63304520D01*
X140029329Y-63294030D01*
X140052429Y-63285765D01*
X140076227Y-63279804D01*
X140100496Y-63276204D01*
X140125000Y-63275000D01*
X141375000Y-63275000D01*
X141399504Y-63276204D01*
X141399504Y-63276204D01*
G37*
D12*
G04 #@! TD*
G04 #@! TO.P,R6,1*
G04 #@! TO.N,Net-(R6-Pad1)*
X140750000Y-63987500D03*
D11*
G04 #@! TO.N,/RPin*
G04 #@! TO.C,R1*
G36*
X99649504Y-69801204D02*
X99673773Y-69804804D01*
X99697571Y-69810765D01*
X99720671Y-69819030D01*
X99742849Y-69829520D01*
X99763893Y-69842133D01*
X99783598Y-69856747D01*
X99801777Y-69873223D01*
X99818253Y-69891402D01*
X99832867Y-69911107D01*
X99845480Y-69932151D01*
X99855970Y-69954329D01*
X99864235Y-69977429D01*
X99870196Y-70001227D01*
X99873796Y-70025496D01*
X99875000Y-70050000D01*
X99875000Y-70975000D01*
X99873796Y-70999504D01*
X99870196Y-71023773D01*
X99864235Y-71047571D01*
X99855970Y-71070671D01*
X99845480Y-71092849D01*
X99832867Y-71113893D01*
X99818253Y-71133598D01*
X99801777Y-71151777D01*
X99783598Y-71168253D01*
X99763893Y-71182867D01*
X99742849Y-71195480D01*
X99720671Y-71205970D01*
X99697571Y-71214235D01*
X99673773Y-71220196D01*
X99649504Y-71223796D01*
X99625000Y-71225000D01*
X98375000Y-71225000D01*
X98350496Y-71223796D01*
X98326227Y-71220196D01*
X98302429Y-71214235D01*
X98279329Y-71205970D01*
X98257151Y-71195480D01*
X98236107Y-71182867D01*
X98216402Y-71168253D01*
X98198223Y-71151777D01*
X98181747Y-71133598D01*
X98167133Y-71113893D01*
X98154520Y-71092849D01*
X98144030Y-71070671D01*
X98135765Y-71047571D01*
X98129804Y-71023773D01*
X98126204Y-70999504D01*
X98125000Y-70975000D01*
X98125000Y-70050000D01*
X98126204Y-70025496D01*
X98129804Y-70001227D01*
X98135765Y-69977429D01*
X98144030Y-69954329D01*
X98154520Y-69932151D01*
X98167133Y-69911107D01*
X98181747Y-69891402D01*
X98198223Y-69873223D01*
X98216402Y-69856747D01*
X98236107Y-69842133D01*
X98257151Y-69829520D01*
X98279329Y-69819030D01*
X98302429Y-69810765D01*
X98326227Y-69804804D01*
X98350496Y-69801204D01*
X98375000Y-69800000D01*
X99625000Y-69800000D01*
X99649504Y-69801204D01*
X99649504Y-69801204D01*
G37*
D12*
G04 #@! TD*
G04 #@! TO.P,R1,2*
G04 #@! TO.N,/RPin*
X99000000Y-70512500D03*
D11*
G04 #@! TO.N,VCC*
G04 #@! TO.C,R1*
G36*
X99649504Y-72776204D02*
X99673773Y-72779804D01*
X99697571Y-72785765D01*
X99720671Y-72794030D01*
X99742849Y-72804520D01*
X99763893Y-72817133D01*
X99783598Y-72831747D01*
X99801777Y-72848223D01*
X99818253Y-72866402D01*
X99832867Y-72886107D01*
X99845480Y-72907151D01*
X99855970Y-72929329D01*
X99864235Y-72952429D01*
X99870196Y-72976227D01*
X99873796Y-73000496D01*
X99875000Y-73025000D01*
X99875000Y-73950000D01*
X99873796Y-73974504D01*
X99870196Y-73998773D01*
X99864235Y-74022571D01*
X99855970Y-74045671D01*
X99845480Y-74067849D01*
X99832867Y-74088893D01*
X99818253Y-74108598D01*
X99801777Y-74126777D01*
X99783598Y-74143253D01*
X99763893Y-74157867D01*
X99742849Y-74170480D01*
X99720671Y-74180970D01*
X99697571Y-74189235D01*
X99673773Y-74195196D01*
X99649504Y-74198796D01*
X99625000Y-74200000D01*
X98375000Y-74200000D01*
X98350496Y-74198796D01*
X98326227Y-74195196D01*
X98302429Y-74189235D01*
X98279329Y-74180970D01*
X98257151Y-74170480D01*
X98236107Y-74157867D01*
X98216402Y-74143253D01*
X98198223Y-74126777D01*
X98181747Y-74108598D01*
X98167133Y-74088893D01*
X98154520Y-74067849D01*
X98144030Y-74045671D01*
X98135765Y-74022571D01*
X98129804Y-73998773D01*
X98126204Y-73974504D01*
X98125000Y-73950000D01*
X98125000Y-73025000D01*
X98126204Y-73000496D01*
X98129804Y-72976227D01*
X98135765Y-72952429D01*
X98144030Y-72929329D01*
X98154520Y-72907151D01*
X98167133Y-72886107D01*
X98181747Y-72866402D01*
X98198223Y-72848223D01*
X98216402Y-72831747D01*
X98236107Y-72817133D01*
X98257151Y-72804520D01*
X98279329Y-72794030D01*
X98302429Y-72785765D01*
X98326227Y-72779804D01*
X98350496Y-72776204D01*
X98375000Y-72775000D01*
X99625000Y-72775000D01*
X99649504Y-72776204D01*
X99649504Y-72776204D01*
G37*
D12*
G04 #@! TD*
G04 #@! TO.P,R1,1*
G04 #@! TO.N,VCC*
X99000000Y-73487500D03*
D11*
G04 #@! TO.N,Net-(C8-Pad1)*
G04 #@! TO.C,R4*
G36*
X117999504Y-46626204D02*
X118023773Y-46629804D01*
X118047571Y-46635765D01*
X118070671Y-46644030D01*
X118092849Y-46654520D01*
X118113893Y-46667133D01*
X118133598Y-46681747D01*
X118151777Y-46698223D01*
X118168253Y-46716402D01*
X118182867Y-46736107D01*
X118195480Y-46757151D01*
X118205970Y-46779329D01*
X118214235Y-46802429D01*
X118220196Y-46826227D01*
X118223796Y-46850496D01*
X118225000Y-46875000D01*
X118225000Y-48125000D01*
X118223796Y-48149504D01*
X118220196Y-48173773D01*
X118214235Y-48197571D01*
X118205970Y-48220671D01*
X118195480Y-48242849D01*
X118182867Y-48263893D01*
X118168253Y-48283598D01*
X118151777Y-48301777D01*
X118133598Y-48318253D01*
X118113893Y-48332867D01*
X118092849Y-48345480D01*
X118070671Y-48355970D01*
X118047571Y-48364235D01*
X118023773Y-48370196D01*
X117999504Y-48373796D01*
X117975000Y-48375000D01*
X117050000Y-48375000D01*
X117025496Y-48373796D01*
X117001227Y-48370196D01*
X116977429Y-48364235D01*
X116954329Y-48355970D01*
X116932151Y-48345480D01*
X116911107Y-48332867D01*
X116891402Y-48318253D01*
X116873223Y-48301777D01*
X116856747Y-48283598D01*
X116842133Y-48263893D01*
X116829520Y-48242849D01*
X116819030Y-48220671D01*
X116810765Y-48197571D01*
X116804804Y-48173773D01*
X116801204Y-48149504D01*
X116800000Y-48125000D01*
X116800000Y-46875000D01*
X116801204Y-46850496D01*
X116804804Y-46826227D01*
X116810765Y-46802429D01*
X116819030Y-46779329D01*
X116829520Y-46757151D01*
X116842133Y-46736107D01*
X116856747Y-46716402D01*
X116873223Y-46698223D01*
X116891402Y-46681747D01*
X116911107Y-46667133D01*
X116932151Y-46654520D01*
X116954329Y-46644030D01*
X116977429Y-46635765D01*
X117001227Y-46629804D01*
X117025496Y-46626204D01*
X117050000Y-46625000D01*
X117975000Y-46625000D01*
X117999504Y-46626204D01*
X117999504Y-46626204D01*
G37*
D12*
G04 #@! TD*
G04 #@! TO.P,R4,2*
G04 #@! TO.N,Net-(C8-Pad1)*
X117512500Y-47500000D03*
D11*
G04 #@! TO.N,Net-(R4-Pad1)*
G04 #@! TO.C,R4*
G36*
X120974504Y-46626204D02*
X120998773Y-46629804D01*
X121022571Y-46635765D01*
X121045671Y-46644030D01*
X121067849Y-46654520D01*
X121088893Y-46667133D01*
X121108598Y-46681747D01*
X121126777Y-46698223D01*
X121143253Y-46716402D01*
X121157867Y-46736107D01*
X121170480Y-46757151D01*
X121180970Y-46779329D01*
X121189235Y-46802429D01*
X121195196Y-46826227D01*
X121198796Y-46850496D01*
X121200000Y-46875000D01*
X121200000Y-48125000D01*
X121198796Y-48149504D01*
X121195196Y-48173773D01*
X121189235Y-48197571D01*
X121180970Y-48220671D01*
X121170480Y-48242849D01*
X121157867Y-48263893D01*
X121143253Y-48283598D01*
X121126777Y-48301777D01*
X121108598Y-48318253D01*
X121088893Y-48332867D01*
X121067849Y-48345480D01*
X121045671Y-48355970D01*
X121022571Y-48364235D01*
X120998773Y-48370196D01*
X120974504Y-48373796D01*
X120950000Y-48375000D01*
X120025000Y-48375000D01*
X120000496Y-48373796D01*
X119976227Y-48370196D01*
X119952429Y-48364235D01*
X119929329Y-48355970D01*
X119907151Y-48345480D01*
X119886107Y-48332867D01*
X119866402Y-48318253D01*
X119848223Y-48301777D01*
X119831747Y-48283598D01*
X119817133Y-48263893D01*
X119804520Y-48242849D01*
X119794030Y-48220671D01*
X119785765Y-48197571D01*
X119779804Y-48173773D01*
X119776204Y-48149504D01*
X119775000Y-48125000D01*
X119775000Y-46875000D01*
X119776204Y-46850496D01*
X119779804Y-46826227D01*
X119785765Y-46802429D01*
X119794030Y-46779329D01*
X119804520Y-46757151D01*
X119817133Y-46736107D01*
X119831747Y-46716402D01*
X119848223Y-46698223D01*
X119866402Y-46681747D01*
X119886107Y-46667133D01*
X119907151Y-46654520D01*
X119929329Y-46644030D01*
X119952429Y-46635765D01*
X119976227Y-46629804D01*
X120000496Y-46626204D01*
X120025000Y-46625000D01*
X120950000Y-46625000D01*
X120974504Y-46626204D01*
X120974504Y-46626204D01*
G37*
D12*
G04 #@! TD*
G04 #@! TO.P,R4,1*
G04 #@! TO.N,Net-(R4-Pad1)*
X120487500Y-47500000D03*
D13*
G04 #@! TO.P,J1,1*
G04 #@! TO.N,VCC*
X89650000Y-54920000D03*
G04 #@! TO.P,J1,3*
G04 #@! TO.N,/SDA*
X89650000Y-60000000D03*
G04 #@! TO.P,J1,5*
G04 #@! TO.N,GND*
X89650000Y-65080000D03*
G04 #@! TO.P,J1,2*
G04 #@! TO.N,Net-(J1-Pad2)*
X86350000Y-57460000D03*
G04 #@! TO.P,J1,4*
G04 #@! TO.N,/SCL*
X86350000Y-62540000D03*
G04 #@! TD*
D11*
G04 #@! TO.N,/clk1*
G04 #@! TO.C,C1*
G36*
X135999504Y-49326204D02*
X136023773Y-49329804D01*
X136047571Y-49335765D01*
X136070671Y-49344030D01*
X136092849Y-49354520D01*
X136113893Y-49367133D01*
X136133598Y-49381747D01*
X136151777Y-49398223D01*
X136168253Y-49416402D01*
X136182867Y-49436107D01*
X136195480Y-49457151D01*
X136205970Y-49479329D01*
X136214235Y-49502429D01*
X136220196Y-49526227D01*
X136223796Y-49550496D01*
X136225000Y-49575000D01*
X136225000Y-50825000D01*
X136223796Y-50849504D01*
X136220196Y-50873773D01*
X136214235Y-50897571D01*
X136205970Y-50920671D01*
X136195480Y-50942849D01*
X136182867Y-50963893D01*
X136168253Y-50983598D01*
X136151777Y-51001777D01*
X136133598Y-51018253D01*
X136113893Y-51032867D01*
X136092849Y-51045480D01*
X136070671Y-51055970D01*
X136047571Y-51064235D01*
X136023773Y-51070196D01*
X135999504Y-51073796D01*
X135975000Y-51075000D01*
X135050000Y-51075000D01*
X135025496Y-51073796D01*
X135001227Y-51070196D01*
X134977429Y-51064235D01*
X134954329Y-51055970D01*
X134932151Y-51045480D01*
X134911107Y-51032867D01*
X134891402Y-51018253D01*
X134873223Y-51001777D01*
X134856747Y-50983598D01*
X134842133Y-50963893D01*
X134829520Y-50942849D01*
X134819030Y-50920671D01*
X134810765Y-50897571D01*
X134804804Y-50873773D01*
X134801204Y-50849504D01*
X134800000Y-50825000D01*
X134800000Y-49575000D01*
X134801204Y-49550496D01*
X134804804Y-49526227D01*
X134810765Y-49502429D01*
X134819030Y-49479329D01*
X134829520Y-49457151D01*
X134842133Y-49436107D01*
X134856747Y-49416402D01*
X134873223Y-49398223D01*
X134891402Y-49381747D01*
X134911107Y-49367133D01*
X134932151Y-49354520D01*
X134954329Y-49344030D01*
X134977429Y-49335765D01*
X135001227Y-49329804D01*
X135025496Y-49326204D01*
X135050000Y-49325000D01*
X135975000Y-49325000D01*
X135999504Y-49326204D01*
X135999504Y-49326204D01*
G37*
D12*
G04 #@! TD*
G04 #@! TO.P,C1,2*
G04 #@! TO.N,/clk1*
X135512500Y-50200000D03*
D11*
G04 #@! TO.N,GND*
G04 #@! TO.C,C1*
G36*
X138974504Y-49326204D02*
X138998773Y-49329804D01*
X139022571Y-49335765D01*
X139045671Y-49344030D01*
X139067849Y-49354520D01*
X139088893Y-49367133D01*
X139108598Y-49381747D01*
X139126777Y-49398223D01*
X139143253Y-49416402D01*
X139157867Y-49436107D01*
X139170480Y-49457151D01*
X139180970Y-49479329D01*
X139189235Y-49502429D01*
X139195196Y-49526227D01*
X139198796Y-49550496D01*
X139200000Y-49575000D01*
X139200000Y-50825000D01*
X139198796Y-50849504D01*
X139195196Y-50873773D01*
X139189235Y-50897571D01*
X139180970Y-50920671D01*
X139170480Y-50942849D01*
X139157867Y-50963893D01*
X139143253Y-50983598D01*
X139126777Y-51001777D01*
X139108598Y-51018253D01*
X139088893Y-51032867D01*
X139067849Y-51045480D01*
X139045671Y-51055970D01*
X139022571Y-51064235D01*
X138998773Y-51070196D01*
X138974504Y-51073796D01*
X138950000Y-51075000D01*
X138025000Y-51075000D01*
X138000496Y-51073796D01*
X137976227Y-51070196D01*
X137952429Y-51064235D01*
X137929329Y-51055970D01*
X137907151Y-51045480D01*
X137886107Y-51032867D01*
X137866402Y-51018253D01*
X137848223Y-51001777D01*
X137831747Y-50983598D01*
X137817133Y-50963893D01*
X137804520Y-50942849D01*
X137794030Y-50920671D01*
X137785765Y-50897571D01*
X137779804Y-50873773D01*
X137776204Y-50849504D01*
X137775000Y-50825000D01*
X137775000Y-49575000D01*
X137776204Y-49550496D01*
X137779804Y-49526227D01*
X137785765Y-49502429D01*
X137794030Y-49479329D01*
X137804520Y-49457151D01*
X137817133Y-49436107D01*
X137831747Y-49416402D01*
X137848223Y-49398223D01*
X137866402Y-49381747D01*
X137886107Y-49367133D01*
X137907151Y-49354520D01*
X137929329Y-49344030D01*
X137952429Y-49335765D01*
X137976227Y-49329804D01*
X138000496Y-49326204D01*
X138025000Y-49325000D01*
X138950000Y-49325000D01*
X138974504Y-49326204D01*
X138974504Y-49326204D01*
G37*
D12*
G04 #@! TD*
G04 #@! TO.P,C1,1*
G04 #@! TO.N,GND*
X138487500Y-50200000D03*
D14*
G04 #@! TO.P,J2,1*
G04 #@! TO.N,/MISO*
X86480000Y-75460000D03*
G04 #@! TO.P,J2,2*
G04 #@! TO.N,VCC*
X91520000Y-75460000D03*
G04 #@! TO.P,J2,3*
G04 #@! TO.N,/SCK*
X86480000Y-78000000D03*
G04 #@! TO.P,J2,4*
G04 #@! TO.N,/MOSI*
X91520000Y-78000000D03*
G04 #@! TO.P,J2,5*
G04 #@! TO.N,/RPin*
X86480000Y-80540000D03*
G04 #@! TO.P,J2,6*
G04 #@! TO.N,GND*
X91520000Y-80540000D03*
G04 #@! TD*
D15*
G04 #@! TO.P,U1,1*
G04 #@! TO.N,Net-(C8-Pad1)*
X121200000Y-58750000D03*
G04 #@! TO.P,U1,2*
G04 #@! TO.N,Net-(R4-Pad1)*
X122000000Y-58750000D03*
G04 #@! TO.P,U1,3*
G04 #@! TO.N,GND*
X122800000Y-58750000D03*
G04 #@! TO.P,U1,4*
G04 #@! TO.N,VCC*
X123600000Y-58750000D03*
G04 #@! TO.P,U1,5*
G04 #@! TO.N,GND*
X124400000Y-58750000D03*
G04 #@! TO.P,U1,6*
G04 #@! TO.N,VCC*
X125200000Y-58750000D03*
G04 #@! TO.P,U1,7*
G04 #@! TO.N,/clk1*
X126000000Y-58750000D03*
G04 #@! TO.P,U1,8*
G04 #@! TO.N,/clk2*
X126800000Y-58750000D03*
D16*
G04 #@! TO.P,U1,9*
G04 #@! TO.N,Net-(C10-Pad1)*
X128250000Y-60200000D03*
G04 #@! TO.P,U1,10*
G04 #@! TO.N,Net-(R5-Pad1)*
X128250000Y-61000000D03*
G04 #@! TO.P,U1,11*
G04 #@! TO.N,Net-(C13-Pad1)*
X128250000Y-61800000D03*
G04 #@! TO.P,U1,12*
G04 #@! TO.N,Net-(R6-Pad1)*
X128250000Y-62600000D03*
G04 #@! TO.P,U1,13*
G04 #@! TO.N,Net-(U1-Pad13)*
X128250000Y-63400000D03*
G04 #@! TO.P,U1,14*
G04 #@! TO.N,Net-(U1-Pad14)*
X128250000Y-64200000D03*
G04 #@! TO.P,U1,15*
G04 #@! TO.N,/MOSI*
X128250000Y-65000000D03*
G04 #@! TO.P,U1,16*
G04 #@! TO.N,/MISO*
X128250000Y-65800000D03*
D15*
G04 #@! TO.P,U1,17*
G04 #@! TO.N,/SCK*
X126800000Y-67250000D03*
G04 #@! TO.P,U1,18*
G04 #@! TO.N,Net-(U1-Pad18)*
X126000000Y-67250000D03*
G04 #@! TO.P,U1,19*
G04 #@! TO.N,Net-(U1-Pad19)*
X125200000Y-67250000D03*
G04 #@! TO.P,U1,20*
G04 #@! TO.N,Net-(U1-Pad20)*
X124400000Y-67250000D03*
G04 #@! TO.P,U1,21*
G04 #@! TO.N,GND*
X123600000Y-67250000D03*
G04 #@! TO.P,U1,22*
G04 #@! TO.N,Net-(U1-Pad22)*
X122800000Y-67250000D03*
G04 #@! TO.P,U1,23*
G04 #@! TO.N,Net-(U1-Pad23)*
X122000000Y-67250000D03*
G04 #@! TO.P,U1,24*
G04 #@! TO.N,Net-(U1-Pad24)*
X121200000Y-67250000D03*
D16*
G04 #@! TO.P,U1,25*
G04 #@! TO.N,Net-(R3-Pad1)*
X119750000Y-65800000D03*
G04 #@! TO.P,U1,26*
G04 #@! TO.N,Net-(C6-Pad1)*
X119750000Y-65000000D03*
G04 #@! TO.P,U1,27*
G04 #@! TO.N,/SDA*
X119750000Y-64200000D03*
G04 #@! TO.P,U1,28*
G04 #@! TO.N,/SCL*
X119750000Y-63400000D03*
G04 #@! TO.P,U1,29*
G04 #@! TO.N,/RPin*
X119750000Y-62600000D03*
G04 #@! TO.P,U1,30*
G04 #@! TO.N,Net-(C4-Pad1)*
X119750000Y-61800000D03*
G04 #@! TO.P,U1,31*
G04 #@! TO.N,Net-(R2-Pad1)*
X119750000Y-61000000D03*
G04 #@! TO.P,U1,32*
G04 #@! TO.N,Net-(U1-Pad32)*
X119750000Y-60200000D03*
G04 #@! TD*
D11*
G04 #@! TO.N,Net-(R5-Pad1)*
G04 #@! TO.C,R5*
G36*
X147399504Y-56026204D02*
X147423773Y-56029804D01*
X147447571Y-56035765D01*
X147470671Y-56044030D01*
X147492849Y-56054520D01*
X147513893Y-56067133D01*
X147533598Y-56081747D01*
X147551777Y-56098223D01*
X147568253Y-56116402D01*
X147582867Y-56136107D01*
X147595480Y-56157151D01*
X147605970Y-56179329D01*
X147614235Y-56202429D01*
X147620196Y-56226227D01*
X147623796Y-56250496D01*
X147625000Y-56275000D01*
X147625000Y-57200000D01*
X147623796Y-57224504D01*
X147620196Y-57248773D01*
X147614235Y-57272571D01*
X147605970Y-57295671D01*
X147595480Y-57317849D01*
X147582867Y-57338893D01*
X147568253Y-57358598D01*
X147551777Y-57376777D01*
X147533598Y-57393253D01*
X147513893Y-57407867D01*
X147492849Y-57420480D01*
X147470671Y-57430970D01*
X147447571Y-57439235D01*
X147423773Y-57445196D01*
X147399504Y-57448796D01*
X147375000Y-57450000D01*
X146125000Y-57450000D01*
X146100496Y-57448796D01*
X146076227Y-57445196D01*
X146052429Y-57439235D01*
X146029329Y-57430970D01*
X146007151Y-57420480D01*
X145986107Y-57407867D01*
X145966402Y-57393253D01*
X145948223Y-57376777D01*
X145931747Y-57358598D01*
X145917133Y-57338893D01*
X145904520Y-57317849D01*
X145894030Y-57295671D01*
X145885765Y-57272571D01*
X145879804Y-57248773D01*
X145876204Y-57224504D01*
X145875000Y-57200000D01*
X145875000Y-56275000D01*
X145876204Y-56250496D01*
X145879804Y-56226227D01*
X145885765Y-56202429D01*
X145894030Y-56179329D01*
X145904520Y-56157151D01*
X145917133Y-56136107D01*
X145931747Y-56116402D01*
X145948223Y-56098223D01*
X145966402Y-56081747D01*
X145986107Y-56067133D01*
X146007151Y-56054520D01*
X146029329Y-56044030D01*
X146052429Y-56035765D01*
X146076227Y-56029804D01*
X146100496Y-56026204D01*
X146125000Y-56025000D01*
X147375000Y-56025000D01*
X147399504Y-56026204D01*
X147399504Y-56026204D01*
G37*
D12*
G04 #@! TD*
G04 #@! TO.P,R5,1*
G04 #@! TO.N,Net-(R5-Pad1)*
X146750000Y-56737500D03*
D11*
G04 #@! TO.N,Net-(C10-Pad1)*
G04 #@! TO.C,R5*
G36*
X147399504Y-53051204D02*
X147423773Y-53054804D01*
X147447571Y-53060765D01*
X147470671Y-53069030D01*
X147492849Y-53079520D01*
X147513893Y-53092133D01*
X147533598Y-53106747D01*
X147551777Y-53123223D01*
X147568253Y-53141402D01*
X147582867Y-53161107D01*
X147595480Y-53182151D01*
X147605970Y-53204329D01*
X147614235Y-53227429D01*
X147620196Y-53251227D01*
X147623796Y-53275496D01*
X147625000Y-53300000D01*
X147625000Y-54225000D01*
X147623796Y-54249504D01*
X147620196Y-54273773D01*
X147614235Y-54297571D01*
X147605970Y-54320671D01*
X147595480Y-54342849D01*
X147582867Y-54363893D01*
X147568253Y-54383598D01*
X147551777Y-54401777D01*
X147533598Y-54418253D01*
X147513893Y-54432867D01*
X147492849Y-54445480D01*
X147470671Y-54455970D01*
X147447571Y-54464235D01*
X147423773Y-54470196D01*
X147399504Y-54473796D01*
X147375000Y-54475000D01*
X146125000Y-54475000D01*
X146100496Y-54473796D01*
X146076227Y-54470196D01*
X146052429Y-54464235D01*
X146029329Y-54455970D01*
X146007151Y-54445480D01*
X145986107Y-54432867D01*
X145966402Y-54418253D01*
X145948223Y-54401777D01*
X145931747Y-54383598D01*
X145917133Y-54363893D01*
X145904520Y-54342849D01*
X145894030Y-54320671D01*
X145885765Y-54297571D01*
X145879804Y-54273773D01*
X145876204Y-54249504D01*
X145875000Y-54225000D01*
X145875000Y-53300000D01*
X145876204Y-53275496D01*
X145879804Y-53251227D01*
X145885765Y-53227429D01*
X145894030Y-53204329D01*
X145904520Y-53182151D01*
X145917133Y-53161107D01*
X145931747Y-53141402D01*
X145948223Y-53123223D01*
X145966402Y-53106747D01*
X145986107Y-53092133D01*
X146007151Y-53079520D01*
X146029329Y-53069030D01*
X146052429Y-53060765D01*
X146076227Y-53054804D01*
X146100496Y-53051204D01*
X146125000Y-53050000D01*
X147375000Y-53050000D01*
X147399504Y-53051204D01*
X147399504Y-53051204D01*
G37*
D12*
G04 #@! TD*
G04 #@! TO.P,R5,2*
G04 #@! TO.N,Net-(C10-Pad1)*
X146750000Y-53762500D03*
D17*
G04 #@! TO.P,Y1,1*
G04 #@! TO.N,/clk1*
X136237500Y-46000000D03*
G04 #@! TO.P,Y1,2*
G04 #@! TO.N,/clk2*
X141762500Y-46000000D03*
G04 #@! TD*
D11*
G04 #@! TO.N,Net-(C4-Pad1)*
G04 #@! TO.C,R2*
G36*
X102999504Y-63426204D02*
X103023773Y-63429804D01*
X103047571Y-63435765D01*
X103070671Y-63444030D01*
X103092849Y-63454520D01*
X103113893Y-63467133D01*
X103133598Y-63481747D01*
X103151777Y-63498223D01*
X103168253Y-63516402D01*
X103182867Y-63536107D01*
X103195480Y-63557151D01*
X103205970Y-63579329D01*
X103214235Y-63602429D01*
X103220196Y-63626227D01*
X103223796Y-63650496D01*
X103225000Y-63675000D01*
X103225000Y-64925000D01*
X103223796Y-64949504D01*
X103220196Y-64973773D01*
X103214235Y-64997571D01*
X103205970Y-65020671D01*
X103195480Y-65042849D01*
X103182867Y-65063893D01*
X103168253Y-65083598D01*
X103151777Y-65101777D01*
X103133598Y-65118253D01*
X103113893Y-65132867D01*
X103092849Y-65145480D01*
X103070671Y-65155970D01*
X103047571Y-65164235D01*
X103023773Y-65170196D01*
X102999504Y-65173796D01*
X102975000Y-65175000D01*
X102050000Y-65175000D01*
X102025496Y-65173796D01*
X102001227Y-65170196D01*
X101977429Y-65164235D01*
X101954329Y-65155970D01*
X101932151Y-65145480D01*
X101911107Y-65132867D01*
X101891402Y-65118253D01*
X101873223Y-65101777D01*
X101856747Y-65083598D01*
X101842133Y-65063893D01*
X101829520Y-65042849D01*
X101819030Y-65020671D01*
X101810765Y-64997571D01*
X101804804Y-64973773D01*
X101801204Y-64949504D01*
X101800000Y-64925000D01*
X101800000Y-63675000D01*
X101801204Y-63650496D01*
X101804804Y-63626227D01*
X101810765Y-63602429D01*
X101819030Y-63579329D01*
X101829520Y-63557151D01*
X101842133Y-63536107D01*
X101856747Y-63516402D01*
X101873223Y-63498223D01*
X101891402Y-63481747D01*
X101911107Y-63467133D01*
X101932151Y-63454520D01*
X101954329Y-63444030D01*
X101977429Y-63435765D01*
X102001227Y-63429804D01*
X102025496Y-63426204D01*
X102050000Y-63425000D01*
X102975000Y-63425000D01*
X102999504Y-63426204D01*
X102999504Y-63426204D01*
G37*
D12*
G04 #@! TD*
G04 #@! TO.P,R2,2*
G04 #@! TO.N,Net-(C4-Pad1)*
X102512500Y-64300000D03*
D11*
G04 #@! TO.N,Net-(R2-Pad1)*
G04 #@! TO.C,R2*
G36*
X105974504Y-63426204D02*
X105998773Y-63429804D01*
X106022571Y-63435765D01*
X106045671Y-63444030D01*
X106067849Y-63454520D01*
X106088893Y-63467133D01*
X106108598Y-63481747D01*
X106126777Y-63498223D01*
X106143253Y-63516402D01*
X106157867Y-63536107D01*
X106170480Y-63557151D01*
X106180970Y-63579329D01*
X106189235Y-63602429D01*
X106195196Y-63626227D01*
X106198796Y-63650496D01*
X106200000Y-63675000D01*
X106200000Y-64925000D01*
X106198796Y-64949504D01*
X106195196Y-64973773D01*
X106189235Y-64997571D01*
X106180970Y-65020671D01*
X106170480Y-65042849D01*
X106157867Y-65063893D01*
X106143253Y-65083598D01*
X106126777Y-65101777D01*
X106108598Y-65118253D01*
X106088893Y-65132867D01*
X106067849Y-65145480D01*
X106045671Y-65155970D01*
X106022571Y-65164235D01*
X105998773Y-65170196D01*
X105974504Y-65173796D01*
X105950000Y-65175000D01*
X105025000Y-65175000D01*
X105000496Y-65173796D01*
X104976227Y-65170196D01*
X104952429Y-65164235D01*
X104929329Y-65155970D01*
X104907151Y-65145480D01*
X104886107Y-65132867D01*
X104866402Y-65118253D01*
X104848223Y-65101777D01*
X104831747Y-65083598D01*
X104817133Y-65063893D01*
X104804520Y-65042849D01*
X104794030Y-65020671D01*
X104785765Y-64997571D01*
X104779804Y-64973773D01*
X104776204Y-64949504D01*
X104775000Y-64925000D01*
X104775000Y-63675000D01*
X104776204Y-63650496D01*
X104779804Y-63626227D01*
X104785765Y-63602429D01*
X104794030Y-63579329D01*
X104804520Y-63557151D01*
X104817133Y-63536107D01*
X104831747Y-63516402D01*
X104848223Y-63498223D01*
X104866402Y-63481747D01*
X104886107Y-63467133D01*
X104907151Y-63454520D01*
X104929329Y-63444030D01*
X104952429Y-63435765D01*
X104976227Y-63429804D01*
X105000496Y-63426204D01*
X105025000Y-63425000D01*
X105950000Y-63425000D01*
X105974504Y-63426204D01*
X105974504Y-63426204D01*
G37*
D12*
G04 #@! TD*
G04 #@! TO.P,R2,1*
G04 #@! TO.N,Net-(R2-Pad1)*
X105487500Y-64300000D03*
D11*
G04 #@! TO.N,Net-(R3-Pad1)*
G04 #@! TO.C,R3*
G36*
X111149504Y-73776204D02*
X111173773Y-73779804D01*
X111197571Y-73785765D01*
X111220671Y-73794030D01*
X111242849Y-73804520D01*
X111263893Y-73817133D01*
X111283598Y-73831747D01*
X111301777Y-73848223D01*
X111318253Y-73866402D01*
X111332867Y-73886107D01*
X111345480Y-73907151D01*
X111355970Y-73929329D01*
X111364235Y-73952429D01*
X111370196Y-73976227D01*
X111373796Y-74000496D01*
X111375000Y-74025000D01*
X111375000Y-74950000D01*
X111373796Y-74974504D01*
X111370196Y-74998773D01*
X111364235Y-75022571D01*
X111355970Y-75045671D01*
X111345480Y-75067849D01*
X111332867Y-75088893D01*
X111318253Y-75108598D01*
X111301777Y-75126777D01*
X111283598Y-75143253D01*
X111263893Y-75157867D01*
X111242849Y-75170480D01*
X111220671Y-75180970D01*
X111197571Y-75189235D01*
X111173773Y-75195196D01*
X111149504Y-75198796D01*
X111125000Y-75200000D01*
X109875000Y-75200000D01*
X109850496Y-75198796D01*
X109826227Y-75195196D01*
X109802429Y-75189235D01*
X109779329Y-75180970D01*
X109757151Y-75170480D01*
X109736107Y-75157867D01*
X109716402Y-75143253D01*
X109698223Y-75126777D01*
X109681747Y-75108598D01*
X109667133Y-75088893D01*
X109654520Y-75067849D01*
X109644030Y-75045671D01*
X109635765Y-75022571D01*
X109629804Y-74998773D01*
X109626204Y-74974504D01*
X109625000Y-74950000D01*
X109625000Y-74025000D01*
X109626204Y-74000496D01*
X109629804Y-73976227D01*
X109635765Y-73952429D01*
X109644030Y-73929329D01*
X109654520Y-73907151D01*
X109667133Y-73886107D01*
X109681747Y-73866402D01*
X109698223Y-73848223D01*
X109716402Y-73831747D01*
X109736107Y-73817133D01*
X109757151Y-73804520D01*
X109779329Y-73794030D01*
X109802429Y-73785765D01*
X109826227Y-73779804D01*
X109850496Y-73776204D01*
X109875000Y-73775000D01*
X111125000Y-73775000D01*
X111149504Y-73776204D01*
X111149504Y-73776204D01*
G37*
D12*
G04 #@! TD*
G04 #@! TO.P,R3,1*
G04 #@! TO.N,Net-(R3-Pad1)*
X110500000Y-74487500D03*
D11*
G04 #@! TO.N,Net-(C6-Pad1)*
G04 #@! TO.C,R3*
G36*
X111149504Y-70801204D02*
X111173773Y-70804804D01*
X111197571Y-70810765D01*
X111220671Y-70819030D01*
X111242849Y-70829520D01*
X111263893Y-70842133D01*
X111283598Y-70856747D01*
X111301777Y-70873223D01*
X111318253Y-70891402D01*
X111332867Y-70911107D01*
X111345480Y-70932151D01*
X111355970Y-70954329D01*
X111364235Y-70977429D01*
X111370196Y-71001227D01*
X111373796Y-71025496D01*
X111375000Y-71050000D01*
X111375000Y-71975000D01*
X111373796Y-71999504D01*
X111370196Y-72023773D01*
X111364235Y-72047571D01*
X111355970Y-72070671D01*
X111345480Y-72092849D01*
X111332867Y-72113893D01*
X111318253Y-72133598D01*
X111301777Y-72151777D01*
X111283598Y-72168253D01*
X111263893Y-72182867D01*
X111242849Y-72195480D01*
X111220671Y-72205970D01*
X111197571Y-72214235D01*
X111173773Y-72220196D01*
X111149504Y-72223796D01*
X111125000Y-72225000D01*
X109875000Y-72225000D01*
X109850496Y-72223796D01*
X109826227Y-72220196D01*
X109802429Y-72214235D01*
X109779329Y-72205970D01*
X109757151Y-72195480D01*
X109736107Y-72182867D01*
X109716402Y-72168253D01*
X109698223Y-72151777D01*
X109681747Y-72133598D01*
X109667133Y-72113893D01*
X109654520Y-72092849D01*
X109644030Y-72070671D01*
X109635765Y-72047571D01*
X109629804Y-72023773D01*
X109626204Y-71999504D01*
X109625000Y-71975000D01*
X109625000Y-71050000D01*
X109626204Y-71025496D01*
X109629804Y-71001227D01*
X109635765Y-70977429D01*
X109644030Y-70954329D01*
X109654520Y-70932151D01*
X109667133Y-70911107D01*
X109681747Y-70891402D01*
X109698223Y-70873223D01*
X109716402Y-70856747D01*
X109736107Y-70842133D01*
X109757151Y-70829520D01*
X109779329Y-70819030D01*
X109802429Y-70810765D01*
X109826227Y-70804804D01*
X109850496Y-70801204D01*
X109875000Y-70800000D01*
X111125000Y-70800000D01*
X111149504Y-70801204D01*
X111149504Y-70801204D01*
G37*
D12*
G04 #@! TD*
G04 #@! TO.P,R3,2*
G04 #@! TO.N,Net-(C6-Pad1)*
X110500000Y-71512500D03*
D11*
G04 #@! TO.N,GND*
G04 #@! TO.C,C2*
G36*
X138974504Y-53126204D02*
X138998773Y-53129804D01*
X139022571Y-53135765D01*
X139045671Y-53144030D01*
X139067849Y-53154520D01*
X139088893Y-53167133D01*
X139108598Y-53181747D01*
X139126777Y-53198223D01*
X139143253Y-53216402D01*
X139157867Y-53236107D01*
X139170480Y-53257151D01*
X139180970Y-53279329D01*
X139189235Y-53302429D01*
X139195196Y-53326227D01*
X139198796Y-53350496D01*
X139200000Y-53375000D01*
X139200000Y-54625000D01*
X139198796Y-54649504D01*
X139195196Y-54673773D01*
X139189235Y-54697571D01*
X139180970Y-54720671D01*
X139170480Y-54742849D01*
X139157867Y-54763893D01*
X139143253Y-54783598D01*
X139126777Y-54801777D01*
X139108598Y-54818253D01*
X139088893Y-54832867D01*
X139067849Y-54845480D01*
X139045671Y-54855970D01*
X139022571Y-54864235D01*
X138998773Y-54870196D01*
X138974504Y-54873796D01*
X138950000Y-54875000D01*
X138025000Y-54875000D01*
X138000496Y-54873796D01*
X137976227Y-54870196D01*
X137952429Y-54864235D01*
X137929329Y-54855970D01*
X137907151Y-54845480D01*
X137886107Y-54832867D01*
X137866402Y-54818253D01*
X137848223Y-54801777D01*
X137831747Y-54783598D01*
X137817133Y-54763893D01*
X137804520Y-54742849D01*
X137794030Y-54720671D01*
X137785765Y-54697571D01*
X137779804Y-54673773D01*
X137776204Y-54649504D01*
X137775000Y-54625000D01*
X137775000Y-53375000D01*
X137776204Y-53350496D01*
X137779804Y-53326227D01*
X137785765Y-53302429D01*
X137794030Y-53279329D01*
X137804520Y-53257151D01*
X137817133Y-53236107D01*
X137831747Y-53216402D01*
X137848223Y-53198223D01*
X137866402Y-53181747D01*
X137886107Y-53167133D01*
X137907151Y-53154520D01*
X137929329Y-53144030D01*
X137952429Y-53135765D01*
X137976227Y-53129804D01*
X138000496Y-53126204D01*
X138025000Y-53125000D01*
X138950000Y-53125000D01*
X138974504Y-53126204D01*
X138974504Y-53126204D01*
G37*
D12*
G04 #@! TD*
G04 #@! TO.P,C2,1*
G04 #@! TO.N,GND*
X138487500Y-54000000D03*
D11*
G04 #@! TO.N,/clk2*
G04 #@! TO.C,C2*
G36*
X135999504Y-53126204D02*
X136023773Y-53129804D01*
X136047571Y-53135765D01*
X136070671Y-53144030D01*
X136092849Y-53154520D01*
X136113893Y-53167133D01*
X136133598Y-53181747D01*
X136151777Y-53198223D01*
X136168253Y-53216402D01*
X136182867Y-53236107D01*
X136195480Y-53257151D01*
X136205970Y-53279329D01*
X136214235Y-53302429D01*
X136220196Y-53326227D01*
X136223796Y-53350496D01*
X136225000Y-53375000D01*
X136225000Y-54625000D01*
X136223796Y-54649504D01*
X136220196Y-54673773D01*
X136214235Y-54697571D01*
X136205970Y-54720671D01*
X136195480Y-54742849D01*
X136182867Y-54763893D01*
X136168253Y-54783598D01*
X136151777Y-54801777D01*
X136133598Y-54818253D01*
X136113893Y-54832867D01*
X136092849Y-54845480D01*
X136070671Y-54855970D01*
X136047571Y-54864235D01*
X136023773Y-54870196D01*
X135999504Y-54873796D01*
X135975000Y-54875000D01*
X135050000Y-54875000D01*
X135025496Y-54873796D01*
X135001227Y-54870196D01*
X134977429Y-54864235D01*
X134954329Y-54855970D01*
X134932151Y-54845480D01*
X134911107Y-54832867D01*
X134891402Y-54818253D01*
X134873223Y-54801777D01*
X134856747Y-54783598D01*
X134842133Y-54763893D01*
X134829520Y-54742849D01*
X134819030Y-54720671D01*
X134810765Y-54697571D01*
X134804804Y-54673773D01*
X134801204Y-54649504D01*
X134800000Y-54625000D01*
X134800000Y-53375000D01*
X134801204Y-53350496D01*
X134804804Y-53326227D01*
X134810765Y-53302429D01*
X134819030Y-53279329D01*
X134829520Y-53257151D01*
X134842133Y-53236107D01*
X134856747Y-53216402D01*
X134873223Y-53198223D01*
X134891402Y-53181747D01*
X134911107Y-53167133D01*
X134932151Y-53154520D01*
X134954329Y-53144030D01*
X134977429Y-53135765D01*
X135001227Y-53129804D01*
X135025496Y-53126204D01*
X135050000Y-53125000D01*
X135975000Y-53125000D01*
X135999504Y-53126204D01*
X135999504Y-53126204D01*
G37*
D12*
G04 #@! TD*
G04 #@! TO.P,C2,2*
G04 #@! TO.N,/clk2*
X135512500Y-54000000D03*
D11*
G04 #@! TO.N,GND*
G04 #@! TO.C,C11*
G36*
X123499504Y-51126204D02*
X123523773Y-51129804D01*
X123547571Y-51135765D01*
X123570671Y-51144030D01*
X123592849Y-51154520D01*
X123613893Y-51167133D01*
X123633598Y-51181747D01*
X123651777Y-51198223D01*
X123668253Y-51216402D01*
X123682867Y-51236107D01*
X123695480Y-51257151D01*
X123705970Y-51279329D01*
X123714235Y-51302429D01*
X123720196Y-51326227D01*
X123723796Y-51350496D01*
X123725000Y-51375000D01*
X123725000Y-52625000D01*
X123723796Y-52649504D01*
X123720196Y-52673773D01*
X123714235Y-52697571D01*
X123705970Y-52720671D01*
X123695480Y-52742849D01*
X123682867Y-52763893D01*
X123668253Y-52783598D01*
X123651777Y-52801777D01*
X123633598Y-52818253D01*
X123613893Y-52832867D01*
X123592849Y-52845480D01*
X123570671Y-52855970D01*
X123547571Y-52864235D01*
X123523773Y-52870196D01*
X123499504Y-52873796D01*
X123475000Y-52875000D01*
X122550000Y-52875000D01*
X122525496Y-52873796D01*
X122501227Y-52870196D01*
X122477429Y-52864235D01*
X122454329Y-52855970D01*
X122432151Y-52845480D01*
X122411107Y-52832867D01*
X122391402Y-52818253D01*
X122373223Y-52801777D01*
X122356747Y-52783598D01*
X122342133Y-52763893D01*
X122329520Y-52742849D01*
X122319030Y-52720671D01*
X122310765Y-52697571D01*
X122304804Y-52673773D01*
X122301204Y-52649504D01*
X122300000Y-52625000D01*
X122300000Y-51375000D01*
X122301204Y-51350496D01*
X122304804Y-51326227D01*
X122310765Y-51302429D01*
X122319030Y-51279329D01*
X122329520Y-51257151D01*
X122342133Y-51236107D01*
X122356747Y-51216402D01*
X122373223Y-51198223D01*
X122391402Y-51181747D01*
X122411107Y-51167133D01*
X122432151Y-51154520D01*
X122454329Y-51144030D01*
X122477429Y-51135765D01*
X122501227Y-51129804D01*
X122525496Y-51126204D01*
X122550000Y-51125000D01*
X123475000Y-51125000D01*
X123499504Y-51126204D01*
X123499504Y-51126204D01*
G37*
D12*
G04 #@! TD*
G04 #@! TO.P,C11,2*
G04 #@! TO.N,GND*
X123012500Y-52000000D03*
D11*
G04 #@! TO.N,VCC*
G04 #@! TO.C,C11*
G36*
X126474504Y-51126204D02*
X126498773Y-51129804D01*
X126522571Y-51135765D01*
X126545671Y-51144030D01*
X126567849Y-51154520D01*
X126588893Y-51167133D01*
X126608598Y-51181747D01*
X126626777Y-51198223D01*
X126643253Y-51216402D01*
X126657867Y-51236107D01*
X126670480Y-51257151D01*
X126680970Y-51279329D01*
X126689235Y-51302429D01*
X126695196Y-51326227D01*
X126698796Y-51350496D01*
X126700000Y-51375000D01*
X126700000Y-52625000D01*
X126698796Y-52649504D01*
X126695196Y-52673773D01*
X126689235Y-52697571D01*
X126680970Y-52720671D01*
X126670480Y-52742849D01*
X126657867Y-52763893D01*
X126643253Y-52783598D01*
X126626777Y-52801777D01*
X126608598Y-52818253D01*
X126588893Y-52832867D01*
X126567849Y-52845480D01*
X126545671Y-52855970D01*
X126522571Y-52864235D01*
X126498773Y-52870196D01*
X126474504Y-52873796D01*
X126450000Y-52875000D01*
X125525000Y-52875000D01*
X125500496Y-52873796D01*
X125476227Y-52870196D01*
X125452429Y-52864235D01*
X125429329Y-52855970D01*
X125407151Y-52845480D01*
X125386107Y-52832867D01*
X125366402Y-52818253D01*
X125348223Y-52801777D01*
X125331747Y-52783598D01*
X125317133Y-52763893D01*
X125304520Y-52742849D01*
X125294030Y-52720671D01*
X125285765Y-52697571D01*
X125279804Y-52673773D01*
X125276204Y-52649504D01*
X125275000Y-52625000D01*
X125275000Y-51375000D01*
X125276204Y-51350496D01*
X125279804Y-51326227D01*
X125285765Y-51302429D01*
X125294030Y-51279329D01*
X125304520Y-51257151D01*
X125317133Y-51236107D01*
X125331747Y-51216402D01*
X125348223Y-51198223D01*
X125366402Y-51181747D01*
X125386107Y-51167133D01*
X125407151Y-51154520D01*
X125429329Y-51144030D01*
X125452429Y-51135765D01*
X125476227Y-51129804D01*
X125500496Y-51126204D01*
X125525000Y-51125000D01*
X126450000Y-51125000D01*
X126474504Y-51126204D01*
X126474504Y-51126204D01*
G37*
D12*
G04 #@! TD*
G04 #@! TO.P,C11,1*
G04 #@! TO.N,VCC*
X125987500Y-52000000D03*
D18*
G04 #@! TO.N,Net-(C10-Pad1)*
X162500000Y-80000000D03*
G04 #@! TO.N,Net-(R2-Pad1)*
X110000000Y-55000000D03*
X110000000Y-61200006D03*
G04 #@! TO.N,VCC*
X102400000Y-46000000D03*
X114000000Y-78800000D03*
G04 #@! TO.N,/RPin*
X111600000Y-65000000D03*
X105600000Y-57600000D03*
D19*
G04 #@! TO.N,GND*
X85000000Y-35000000D03*
X85000000Y-125000000D03*
X175000000Y-125000000D03*
D18*
X92200000Y-62200000D03*
X95800000Y-56000000D03*
X118600000Y-78000000D03*
X120800000Y-89200000D03*
X118600000Y-83200000D03*
D19*
X175000000Y-35000000D03*
D18*
G04 #@! TO.N,/MOSI*
X119800000Y-75000000D03*
X131600000Y-68000000D03*
G04 #@! TO.N,Net-(C13-Pad1)*
X130000000Y-80000000D03*
G04 #@! TO.N,Net-(C4-Pad1)*
X98600000Y-64200000D03*
X107400000Y-56200000D03*
G04 #@! TO.N,Net-(C6-Pad1)*
X114400000Y-65000000D03*
G04 #@! TO.N,Net-(C8-Pad1)*
X112000000Y-46600000D03*
G04 #@! TD*
D20*
G04 #@! TO.N,Net-(C10-Pad1)*
X146750000Y-51650000D02*
X146750000Y-53762500D01*
X146800000Y-51600000D02*
X146750000Y-51650000D01*
X146700000Y-51500000D02*
X146800000Y-51600000D01*
X146700000Y-51500000D02*
X148700000Y-51500000D01*
X148700000Y-51500000D02*
X162500000Y-65300000D01*
X162500000Y-65300000D02*
X162500000Y-80000000D01*
X146100000Y-51500000D02*
X146700000Y-51500000D01*
X141100000Y-56500000D02*
X146100000Y-51500000D01*
X135250000Y-56500000D02*
X141100000Y-56500000D01*
X128250000Y-60200000D02*
X131550000Y-60200000D01*
X131550000Y-60200000D02*
X135250000Y-56500000D01*
G04 #@! TO.N,Net-(R5-Pad1)*
X132250000Y-61000000D02*
X128250000Y-61000000D01*
X146750000Y-56737500D02*
X146750000Y-58250000D01*
X145750000Y-59250000D02*
X144000000Y-59250000D01*
X135750000Y-57500000D02*
X132250000Y-61000000D01*
X144000000Y-59250000D02*
X142250000Y-57500000D01*
X146750000Y-58250000D02*
X145750000Y-59250000D01*
X142250000Y-57500000D02*
X135750000Y-57500000D01*
G04 #@! TO.N,Net-(R4-Pad1)*
X122000000Y-55750000D02*
X122000000Y-58750000D01*
X120000000Y-50250000D02*
X120000000Y-53750000D01*
X122250000Y-47500000D02*
X122750000Y-48000000D01*
X122750000Y-48000000D02*
X122750000Y-48500000D01*
X120000000Y-53750000D02*
X122000000Y-55750000D01*
X122750000Y-48500000D02*
X122000000Y-49250000D01*
X120487500Y-47500000D02*
X122250000Y-47500000D01*
X122000000Y-49250000D02*
X121000000Y-49250000D01*
X121000000Y-49250000D02*
X120000000Y-50250000D01*
G04 #@! TO.N,Net-(R3-Pad1)*
X110500000Y-76300000D02*
X110500000Y-74487500D01*
X116600000Y-65800000D02*
X114200000Y-68200000D01*
X119750000Y-65800000D02*
X116600000Y-65800000D01*
X114200000Y-68200000D02*
X114200000Y-75800000D01*
X114200000Y-75800000D02*
X112600000Y-77400000D01*
X111600000Y-77400000D02*
X110500000Y-76300000D01*
X112600000Y-77400000D02*
X111600000Y-77400000D01*
G04 #@! TO.N,Net-(R2-Pad1)*
X119750000Y-61000000D02*
X117800000Y-61000000D01*
X117800000Y-61000000D02*
X112000000Y-55200000D01*
X112000000Y-55200000D02*
X111800000Y-55000000D01*
X111800000Y-55000000D02*
X110000000Y-55000000D01*
X110000000Y-63000000D02*
X110000000Y-61200006D01*
X105487500Y-64300000D02*
X108700000Y-64300000D01*
X108700000Y-64300000D02*
X110000000Y-63000000D01*
G04 #@! TO.N,VCC*
X125200000Y-57050000D02*
X125200000Y-58750000D01*
X128250000Y-54000000D02*
X125200000Y-57050000D01*
X128250000Y-53500000D02*
X128250000Y-53750000D01*
X128250000Y-53500000D02*
X128250000Y-54000000D01*
X124750000Y-61250000D02*
X125200000Y-60800000D01*
X124000000Y-61250000D02*
X124750000Y-61250000D01*
X125200000Y-60800000D02*
X125200000Y-58750000D01*
X123600000Y-58750000D02*
X123600000Y-60850000D01*
X123600000Y-60850000D02*
X124000000Y-61250000D01*
X125987500Y-52000000D02*
X128200000Y-52000000D01*
X128250000Y-52050000D02*
X128250000Y-53500000D01*
X128200000Y-52000000D02*
X128250000Y-52050000D01*
X128200000Y-52000000D02*
X128200000Y-50800000D01*
X128200000Y-50800000D02*
X131000000Y-48000000D01*
X131000000Y-48000000D02*
X131000000Y-46600000D01*
X131000000Y-46600000D02*
X128200000Y-43800000D01*
X128200000Y-43800000D02*
X104600000Y-43800000D01*
X93480000Y-54920000D02*
X89650000Y-54920000D01*
X99000000Y-73487500D02*
X99000000Y-74600000D01*
X98140000Y-75460000D02*
X91520000Y-75460000D01*
X98600000Y-75000000D02*
X98140000Y-75460000D01*
X99000000Y-74600000D02*
X98600000Y-75000000D01*
X104600000Y-43800000D02*
X102400000Y-46000000D01*
X102400000Y-46000000D02*
X93480000Y-54920000D01*
X109200000Y-78800000D02*
X114000000Y-78800000D01*
X106600000Y-76200000D02*
X109200000Y-78800000D01*
X105600000Y-76200000D02*
X106600000Y-76200000D01*
X98600000Y-75000000D02*
X99800000Y-76200000D01*
X99800000Y-76200000D02*
X105600000Y-76200000D01*
G04 #@! TO.N,/RPin*
X96704000Y-67950000D02*
X95500000Y-67950000D01*
X97250000Y-67950000D02*
X96704000Y-67950000D01*
X99000000Y-70512500D02*
X99000000Y-69700000D01*
X98100000Y-68800000D02*
X97250000Y-67950000D01*
X99000000Y-69700000D02*
X98100000Y-68800000D01*
X88260000Y-80540000D02*
X86480000Y-80540000D01*
X98000000Y-68800000D02*
X94400000Y-72400000D01*
X98100000Y-68800000D02*
X98000000Y-68800000D01*
X94400000Y-72400000D02*
X90800000Y-72400000D01*
X90800000Y-72400000D02*
X89000000Y-74200000D01*
X89000000Y-74200000D02*
X89000000Y-79800000D01*
X89000000Y-79800000D02*
X88260000Y-80540000D01*
X111600000Y-65000000D02*
X108400000Y-68200000D01*
X98600000Y-68200000D02*
X98000000Y-68800000D01*
X108400000Y-68200000D02*
X98600000Y-68200000D01*
X111600000Y-57600000D02*
X106307106Y-57600000D01*
X106307106Y-57600000D02*
X105600000Y-57600000D01*
X119750000Y-62600000D02*
X116600000Y-62600000D01*
X116600000Y-62600000D02*
X111600000Y-57600000D01*
G04 #@! TO.N,Net-(J1-Pad2)*
X86350000Y-58214000D02*
X86350000Y-57460000D01*
X86350000Y-59350000D02*
X86350000Y-58214000D01*
X95500000Y-66050000D02*
X93050000Y-66050000D01*
X93050000Y-66050000D02*
X86350000Y-59350000D01*
G04 #@! TO.N,GND*
X123600000Y-67250000D02*
X123600000Y-68600000D01*
X124400000Y-58750000D02*
X124400000Y-57696000D01*
X122800000Y-58750000D02*
X122800000Y-57400000D01*
X124400000Y-57696000D02*
X124400000Y-57600000D01*
X124400000Y-57696000D02*
X124400000Y-57400000D01*
G04 #@! TO.N,/MOSI*
X129304000Y-65000000D02*
X128250000Y-65000000D01*
X130400000Y-65000000D02*
X129304000Y-65000000D01*
X131600000Y-68000000D02*
X131600000Y-66200000D01*
X131600000Y-66200000D02*
X130400000Y-65000000D01*
X118400000Y-75000000D02*
X119800000Y-75000000D01*
X91520000Y-78000000D02*
X105400000Y-78000000D01*
X109400000Y-82000000D02*
X114400000Y-82000000D01*
X105400000Y-78000000D02*
X109400000Y-82000000D01*
X116000000Y-77400000D02*
X118400000Y-75000000D01*
X116000000Y-80400000D02*
X116000000Y-77400000D01*
X114400000Y-82000000D02*
X116000000Y-80400000D01*
G04 #@! TO.N,/MISO*
X84140000Y-75460000D02*
X86480000Y-75460000D01*
X83600000Y-76000000D02*
X84140000Y-75460000D01*
X83600000Y-84400000D02*
X83600000Y-76000000D01*
X87000000Y-87800000D02*
X83600000Y-84400000D01*
X130000000Y-65800000D02*
X130600000Y-66400000D01*
X128250000Y-65800000D02*
X130000000Y-65800000D01*
X130600000Y-66400000D02*
X130600000Y-67200000D01*
X130600000Y-67200000D02*
X129200000Y-68600000D01*
X129200000Y-68600000D02*
X129200000Y-76400000D01*
X117800000Y-87800000D02*
X87000000Y-87800000D01*
X129200000Y-76400000D02*
X117800000Y-87800000D01*
G04 #@! TO.N,/SCK*
X84600000Y-78000000D02*
X86480000Y-78000000D01*
X126800000Y-72400000D02*
X113800000Y-85400000D01*
X126800000Y-67250000D02*
X126800000Y-72400000D01*
X113800000Y-85400000D02*
X86000000Y-85400000D01*
X86000000Y-85400000D02*
X84200000Y-83600000D01*
X84200000Y-83600000D02*
X84200000Y-78400000D01*
X84200000Y-78400000D02*
X84600000Y-78000000D01*
G04 #@! TO.N,/clk1*
X136237500Y-46000000D02*
X133250000Y-46000000D01*
X133250000Y-46000000D02*
X132250000Y-47000000D01*
X132250000Y-47000000D02*
X132250000Y-49000000D01*
X130750000Y-49000000D02*
X132250000Y-49000000D01*
X129500000Y-50250000D02*
X130750000Y-49000000D01*
X129500000Y-53500000D02*
X129500000Y-50250000D01*
X126000000Y-58750000D02*
X126000000Y-57000000D01*
X126000000Y-57000000D02*
X129500000Y-53500000D01*
X133450000Y-50200000D02*
X132250000Y-49000000D01*
X135512500Y-50200000D02*
X133450000Y-50200000D01*
G04 #@! TO.N,/clk2*
X126800000Y-58750000D02*
X126800000Y-56950000D01*
X126800000Y-56950000D02*
X129750000Y-54000000D01*
X129750000Y-54000000D02*
X132600000Y-54000000D01*
X132600000Y-54000000D02*
X135512500Y-54000000D01*
X132600000Y-53200000D02*
X132600000Y-54000000D01*
X143679000Y-46000000D02*
X144879000Y-47200000D01*
X141762500Y-46000000D02*
X143679000Y-46000000D01*
X144879000Y-47200000D02*
X144879000Y-49121000D01*
X133200000Y-52600000D02*
X132600000Y-53200000D01*
X144879000Y-49121000D02*
X141400000Y-52600000D01*
X141400000Y-52600000D02*
X133200000Y-52600000D01*
G04 #@! TO.N,/SDA*
X116000000Y-64200000D02*
X119750000Y-64200000D01*
X89650000Y-60000000D02*
X111800000Y-60000000D01*
X111800000Y-60000000D02*
X116000000Y-64200000D01*
G04 #@! TO.N,/SCL*
X86350000Y-61786000D02*
X86350000Y-62540000D01*
X84200000Y-59636000D02*
X86350000Y-61786000D01*
X84200000Y-56400000D02*
X84200000Y-59636000D01*
X115959260Y-63400000D02*
X111159260Y-58600000D01*
X119750000Y-63400000D02*
X115959260Y-63400000D01*
X86800000Y-55800000D02*
X84800000Y-55800000D01*
X84800000Y-55800000D02*
X84200000Y-56400000D01*
X111159260Y-58600000D02*
X89600000Y-58600000D01*
X89600000Y-58600000D02*
X86800000Y-55800000D01*
G04 #@! TO.N,Net-(R6-Pad1)*
X135100000Y-62600000D02*
X128250000Y-62600000D01*
X139000000Y-66500000D02*
X135100000Y-62600000D01*
X140750000Y-63987500D02*
X140750000Y-65750000D01*
X140000000Y-66500000D02*
X139000000Y-66500000D01*
X140750000Y-65750000D02*
X140000000Y-66500000D01*
G04 #@! TO.N,Net-(C13-Pad1)*
X128250000Y-61800000D02*
X133450000Y-61800000D01*
X133450000Y-61800000D02*
X136750000Y-58500000D01*
X136750000Y-58500000D02*
X140000000Y-58500000D01*
X140750000Y-59250000D02*
X140750000Y-61012500D01*
X140000000Y-58500000D02*
X140750000Y-59250000D01*
X140750000Y-59250000D02*
X142050000Y-59250000D01*
X142050000Y-59250000D02*
X143600000Y-60800000D01*
X143600000Y-60800000D02*
X143600000Y-66400000D01*
X143600000Y-66400000D02*
X130000000Y-80000000D01*
G04 #@! TO.N,Net-(C4-Pad1)*
X102512500Y-64300000D02*
X98700000Y-64300000D01*
X98700000Y-64300000D02*
X98600000Y-64200000D01*
X108107106Y-56200000D02*
X107400000Y-56200000D01*
X111800000Y-56200000D02*
X108107106Y-56200000D01*
X119750000Y-61800000D02*
X117400000Y-61800000D01*
X117400000Y-61800000D02*
X111800000Y-56200000D01*
G04 #@! TO.N,Net-(C6-Pad1)*
X110500000Y-71512500D02*
X110500000Y-68900000D01*
X114400000Y-65000000D02*
X119750000Y-65000000D01*
X110500000Y-68900000D02*
X114400000Y-65000000D01*
G04 #@! TO.N,Net-(C8-Pad1)*
X121200000Y-56200000D02*
X121200000Y-58750000D01*
X117512500Y-47500000D02*
X115750000Y-47500000D01*
X115750000Y-50750000D02*
X121200000Y-56200000D01*
X115750000Y-47500000D02*
X115750000Y-50750000D01*
X115750000Y-47500000D02*
X112900000Y-47500000D01*
X112900000Y-47500000D02*
X112000000Y-46600000D01*
G04 #@! TD*
G04 #@! TO.N,GND*
G36*
X177373000Y-127373000D02*
X82627000Y-127373000D01*
X82627000Y-76000000D01*
X82834314Y-76000000D01*
X82838001Y-76037433D01*
X82838000Y-84362577D01*
X82834314Y-84400000D01*
X82838000Y-84437423D01*
X82838000Y-84437425D01*
X82849026Y-84549377D01*
X82892598Y-84693014D01*
X82892599Y-84693015D01*
X82963355Y-84825392D01*
X83002983Y-84873678D01*
X83058578Y-84941422D01*
X83087654Y-84965284D01*
X86434721Y-88312352D01*
X86458578Y-88341422D01*
X86574608Y-88436645D01*
X86706985Y-88507402D01*
X86850622Y-88550974D01*
X86962574Y-88562000D01*
X86962576Y-88562000D01*
X86999999Y-88565686D01*
X87037422Y-88562000D01*
X117762577Y-88562000D01*
X117800000Y-88565686D01*
X117837423Y-88562000D01*
X117837426Y-88562000D01*
X117949378Y-88550974D01*
X118093015Y-88507402D01*
X118225392Y-88436645D01*
X118341422Y-88341422D01*
X118365284Y-88312346D01*
X129712346Y-76965284D01*
X129741422Y-76941422D01*
X129823490Y-76841422D01*
X129836645Y-76825393D01*
X129890096Y-76725392D01*
X129907402Y-76693015D01*
X129950974Y-76549378D01*
X129962000Y-76437426D01*
X129962000Y-76437423D01*
X129965686Y-76400000D01*
X129962000Y-76362577D01*
X129962000Y-68915630D01*
X130519731Y-68357899D01*
X130594176Y-68537624D01*
X130718388Y-68723520D01*
X130876480Y-68881612D01*
X131062376Y-69005824D01*
X131268933Y-69091383D01*
X131488212Y-69135000D01*
X131711788Y-69135000D01*
X131931067Y-69091383D01*
X132137624Y-69005824D01*
X132323520Y-68881612D01*
X132481612Y-68723520D01*
X132605824Y-68537624D01*
X132691383Y-68331067D01*
X132735000Y-68111788D01*
X132735000Y-67888212D01*
X132691383Y-67668933D01*
X132605824Y-67462376D01*
X132481612Y-67276480D01*
X132362000Y-67156868D01*
X132362000Y-66237422D01*
X132365686Y-66199999D01*
X132360684Y-66149215D01*
X132350974Y-66050622D01*
X132307402Y-65906985D01*
X132304103Y-65900812D01*
X132272357Y-65841421D01*
X132236645Y-65774608D01*
X132141422Y-65658578D01*
X132112352Y-65634721D01*
X130965284Y-64487654D01*
X130941422Y-64458578D01*
X130825392Y-64363355D01*
X130693015Y-64292598D01*
X130549378Y-64249026D01*
X130437426Y-64238000D01*
X130437423Y-64238000D01*
X130400000Y-64234314D01*
X130362577Y-64238000D01*
X129688072Y-64238000D01*
X129688072Y-63925000D01*
X129675812Y-63800518D01*
X129675655Y-63800000D01*
X129675812Y-63799482D01*
X129688072Y-63675000D01*
X129688072Y-63362000D01*
X134784370Y-63362000D01*
X138434721Y-67012352D01*
X138458578Y-67041422D01*
X138487648Y-67065279D01*
X138574607Y-67136645D01*
X138628940Y-67165686D01*
X138706985Y-67207402D01*
X138850622Y-67250974D01*
X138962574Y-67262000D01*
X138962577Y-67262000D01*
X139000000Y-67265686D01*
X139037423Y-67262000D01*
X139962577Y-67262000D01*
X140000000Y-67265686D01*
X140037423Y-67262000D01*
X140037426Y-67262000D01*
X140149378Y-67250974D01*
X140293015Y-67207402D01*
X140425392Y-67136645D01*
X140541422Y-67041422D01*
X140565284Y-67012347D01*
X141262351Y-66315280D01*
X141291422Y-66291422D01*
X141386645Y-66175392D01*
X141457402Y-66043015D01*
X141500974Y-65899378D01*
X141512000Y-65787426D01*
X141512000Y-65787424D01*
X141515686Y-65750001D01*
X141512000Y-65712578D01*
X141512000Y-65324579D01*
X141548254Y-65321008D01*
X141714850Y-65270472D01*
X141868386Y-65188405D01*
X142002962Y-65077962D01*
X142113405Y-64943386D01*
X142195472Y-64789850D01*
X142246008Y-64623254D01*
X142263072Y-64450000D01*
X142263072Y-63525000D01*
X142246008Y-63351746D01*
X142195472Y-63185150D01*
X142113405Y-63031614D01*
X142002962Y-62897038D01*
X141868386Y-62786595D01*
X141714850Y-62704528D01*
X141548254Y-62653992D01*
X141375000Y-62636928D01*
X140125000Y-62636928D01*
X139951746Y-62653992D01*
X139785150Y-62704528D01*
X139631614Y-62786595D01*
X139497038Y-62897038D01*
X139386595Y-63031614D01*
X139304528Y-63185150D01*
X139253992Y-63351746D01*
X139236928Y-63525000D01*
X139236928Y-64450000D01*
X139253992Y-64623254D01*
X139304528Y-64789850D01*
X139386595Y-64943386D01*
X139497038Y-65077962D01*
X139631614Y-65188405D01*
X139785150Y-65270472D01*
X139951746Y-65321008D01*
X139988001Y-65324579D01*
X139988001Y-65434369D01*
X139684370Y-65738000D01*
X139315631Y-65738000D01*
X135665284Y-62087654D01*
X135641422Y-62058578D01*
X135525392Y-61963355D01*
X135393015Y-61892598D01*
X135249378Y-61849026D01*
X135137426Y-61838000D01*
X135137423Y-61838000D01*
X135100000Y-61834314D01*
X135062577Y-61838000D01*
X134489630Y-61838000D01*
X137065631Y-59262000D01*
X139684370Y-59262000D01*
X139988000Y-59565631D01*
X139988000Y-59675421D01*
X139951746Y-59678992D01*
X139785150Y-59729528D01*
X139631614Y-59811595D01*
X139497038Y-59922038D01*
X139386595Y-60056614D01*
X139304528Y-60210150D01*
X139253992Y-60376746D01*
X139236928Y-60550000D01*
X139236928Y-61475000D01*
X139253992Y-61648254D01*
X139304528Y-61814850D01*
X139386595Y-61968386D01*
X139497038Y-62102962D01*
X139631614Y-62213405D01*
X139785150Y-62295472D01*
X139951746Y-62346008D01*
X140125000Y-62363072D01*
X141375000Y-62363072D01*
X141548254Y-62346008D01*
X141714850Y-62295472D01*
X141868386Y-62213405D01*
X142002962Y-62102962D01*
X142113405Y-61968386D01*
X142195472Y-61814850D01*
X142246008Y-61648254D01*
X142263072Y-61475000D01*
X142263072Y-60550000D01*
X142262056Y-60539687D01*
X142838000Y-61115631D01*
X142838001Y-66084368D01*
X130057370Y-78865000D01*
X129888212Y-78865000D01*
X129668933Y-78908617D01*
X129462376Y-78994176D01*
X129276480Y-79118388D01*
X129118388Y-79276480D01*
X128994176Y-79462376D01*
X128908617Y-79668933D01*
X128865000Y-79888212D01*
X128865000Y-80111788D01*
X128908617Y-80331067D01*
X128994176Y-80537624D01*
X129118388Y-80723520D01*
X129276480Y-80881612D01*
X129462376Y-81005824D01*
X129668933Y-81091383D01*
X129888212Y-81135000D01*
X130111788Y-81135000D01*
X130331067Y-81091383D01*
X130537624Y-81005824D01*
X130723520Y-80881612D01*
X130881612Y-80723520D01*
X131005824Y-80537624D01*
X131091383Y-80331067D01*
X131135000Y-80111788D01*
X131135000Y-79942630D01*
X144112352Y-66965279D01*
X144141422Y-66941422D01*
X144236645Y-66825392D01*
X144307402Y-66693015D01*
X144350974Y-66549378D01*
X144362000Y-66437426D01*
X144362000Y-66437424D01*
X144365686Y-66400001D01*
X144362000Y-66362574D01*
X144362000Y-60837422D01*
X144365686Y-60799999D01*
X144361943Y-60762000D01*
X144350974Y-60650622D01*
X144307402Y-60506985D01*
X144236645Y-60374608D01*
X144141422Y-60258578D01*
X144112352Y-60234721D01*
X143881662Y-60004031D01*
X143962574Y-60012000D01*
X143962577Y-60012000D01*
X144000000Y-60015686D01*
X144037423Y-60012000D01*
X145712577Y-60012000D01*
X145750000Y-60015686D01*
X145787423Y-60012000D01*
X145787426Y-60012000D01*
X145899378Y-60000974D01*
X146043015Y-59957402D01*
X146175392Y-59886645D01*
X146291422Y-59791422D01*
X146315284Y-59762346D01*
X147262346Y-58815284D01*
X147291422Y-58791422D01*
X147373522Y-58691383D01*
X147386645Y-58675393D01*
X147427973Y-58598072D01*
X147457402Y-58543015D01*
X147500974Y-58399378D01*
X147512000Y-58287426D01*
X147512000Y-58287423D01*
X147515686Y-58250000D01*
X147512000Y-58212577D01*
X147512000Y-58074579D01*
X147548254Y-58071008D01*
X147714850Y-58020472D01*
X147868386Y-57938405D01*
X148002962Y-57827962D01*
X148113405Y-57693386D01*
X148195472Y-57539850D01*
X148246008Y-57373254D01*
X148263072Y-57200000D01*
X148263072Y-56275000D01*
X148246008Y-56101746D01*
X148195472Y-55935150D01*
X148113405Y-55781614D01*
X148002962Y-55647038D01*
X147868386Y-55536595D01*
X147714850Y-55454528D01*
X147548254Y-55403992D01*
X147375000Y-55386928D01*
X146125000Y-55386928D01*
X145951746Y-55403992D01*
X145785150Y-55454528D01*
X145631614Y-55536595D01*
X145497038Y-55647038D01*
X145386595Y-55781614D01*
X145304528Y-55935150D01*
X145253992Y-56101746D01*
X145236928Y-56275000D01*
X145236928Y-57200000D01*
X145253992Y-57373254D01*
X145304528Y-57539850D01*
X145386595Y-57693386D01*
X145497038Y-57827962D01*
X145631614Y-57938405D01*
X145785150Y-58020472D01*
X145874726Y-58047644D01*
X145434370Y-58488000D01*
X144315631Y-58488000D01*
X142815284Y-56987654D01*
X142791422Y-56958578D01*
X142675392Y-56863355D01*
X142543015Y-56792598D01*
X142399378Y-56749026D01*
X142287426Y-56738000D01*
X142287423Y-56738000D01*
X142250000Y-56734314D01*
X142212577Y-56738000D01*
X141939630Y-56738000D01*
X145236928Y-53440703D01*
X145236928Y-54225000D01*
X145253992Y-54398254D01*
X145304528Y-54564850D01*
X145386595Y-54718386D01*
X145497038Y-54852962D01*
X145631614Y-54963405D01*
X145785150Y-55045472D01*
X145951746Y-55096008D01*
X146125000Y-55113072D01*
X147375000Y-55113072D01*
X147548254Y-55096008D01*
X147714850Y-55045472D01*
X147868386Y-54963405D01*
X148002962Y-54852962D01*
X148113405Y-54718386D01*
X148195472Y-54564850D01*
X148246008Y-54398254D01*
X148263072Y-54225000D01*
X148263072Y-53300000D01*
X148246008Y-53126746D01*
X148195472Y-52960150D01*
X148113405Y-52806614D01*
X148002962Y-52672038D01*
X147868386Y-52561595D01*
X147714850Y-52479528D01*
X147548254Y-52428992D01*
X147512000Y-52425421D01*
X147512000Y-52262000D01*
X148384370Y-52262000D01*
X161738000Y-65615631D01*
X161738001Y-79156867D01*
X161618388Y-79276480D01*
X161494176Y-79462376D01*
X161408617Y-79668933D01*
X161365000Y-79888212D01*
X161365000Y-80111788D01*
X161408617Y-80331067D01*
X161494176Y-80537624D01*
X161618388Y-80723520D01*
X161776480Y-80881612D01*
X161962376Y-81005824D01*
X162168933Y-81091383D01*
X162388212Y-81135000D01*
X162611788Y-81135000D01*
X162831067Y-81091383D01*
X163037624Y-81005824D01*
X163223520Y-80881612D01*
X163381612Y-80723520D01*
X163505824Y-80537624D01*
X163591383Y-80331067D01*
X163635000Y-80111788D01*
X163635000Y-79888212D01*
X163591383Y-79668933D01*
X163505824Y-79462376D01*
X163381612Y-79276480D01*
X163262000Y-79156868D01*
X163262000Y-65337422D01*
X163265686Y-65299999D01*
X163262000Y-65262574D01*
X163250974Y-65150622D01*
X163207402Y-65006985D01*
X163136645Y-64874608D01*
X163041422Y-64758578D01*
X163012353Y-64734722D01*
X149265284Y-50987654D01*
X149241422Y-50958578D01*
X149125392Y-50863355D01*
X148993015Y-50792598D01*
X148849378Y-50749026D01*
X148737426Y-50738000D01*
X148737423Y-50738000D01*
X148700000Y-50734314D01*
X148662577Y-50738000D01*
X146737423Y-50738000D01*
X146700000Y-50734314D01*
X146662577Y-50738000D01*
X146137423Y-50738000D01*
X146100000Y-50734314D01*
X146062577Y-50738000D01*
X146062574Y-50738000D01*
X145950622Y-50749026D01*
X145806985Y-50792598D01*
X145764552Y-50815279D01*
X145674607Y-50863355D01*
X145620936Y-50907402D01*
X145558578Y-50958578D01*
X145534721Y-50987648D01*
X140784370Y-55738000D01*
X135287422Y-55738000D01*
X135249999Y-55734314D01*
X135212576Y-55738000D01*
X135212574Y-55738000D01*
X135100622Y-55749026D01*
X134956985Y-55792598D01*
X134824608Y-55863355D01*
X134708578Y-55958578D01*
X134684721Y-55987648D01*
X131234370Y-59438000D01*
X129457544Y-59438000D01*
X129404494Y-59394463D01*
X129294180Y-59335498D01*
X129174482Y-59299188D01*
X129050000Y-59286928D01*
X127713072Y-59286928D01*
X127713072Y-57950000D01*
X127700812Y-57825518D01*
X127664502Y-57705820D01*
X127605537Y-57595506D01*
X127562000Y-57542456D01*
X127562000Y-57265630D01*
X130065631Y-54762000D01*
X132562575Y-54762000D01*
X132600000Y-54765686D01*
X132637426Y-54762000D01*
X134175421Y-54762000D01*
X134178992Y-54798254D01*
X134229528Y-54964850D01*
X134311595Y-55118386D01*
X134422038Y-55252962D01*
X134556614Y-55363405D01*
X134710150Y-55445472D01*
X134876746Y-55496008D01*
X135050000Y-55513072D01*
X135975000Y-55513072D01*
X136148254Y-55496008D01*
X136314850Y-55445472D01*
X136468386Y-55363405D01*
X136602962Y-55252962D01*
X136713405Y-55118386D01*
X136795472Y-54964850D01*
X136846008Y-54798254D01*
X136863072Y-54625000D01*
X136863072Y-54285750D01*
X137140000Y-54285750D01*
X137140000Y-54937542D01*
X137164403Y-55060223D01*
X137212270Y-55175785D01*
X137281763Y-55279789D01*
X137370211Y-55368237D01*
X137474215Y-55437730D01*
X137589777Y-55485597D01*
X137712458Y-55510000D01*
X138201750Y-55510000D01*
X138360500Y-55351250D01*
X138360500Y-54127000D01*
X138614500Y-54127000D01*
X138614500Y-55351250D01*
X138773250Y-55510000D01*
X139262542Y-55510000D01*
X139385223Y-55485597D01*
X139500785Y-55437730D01*
X139604789Y-55368237D01*
X139693237Y-55279789D01*
X139762730Y-55175785D01*
X139810597Y-55060223D01*
X139835000Y-54937542D01*
X139835000Y-54285750D01*
X139676250Y-54127000D01*
X138614500Y-54127000D01*
X138360500Y-54127000D01*
X137298750Y-54127000D01*
X137140000Y-54285750D01*
X136863072Y-54285750D01*
X136863072Y-53375000D01*
X136861792Y-53362000D01*
X137140000Y-53362000D01*
X137140000Y-53714250D01*
X137298750Y-53873000D01*
X138360500Y-53873000D01*
X138360500Y-53853000D01*
X138614500Y-53853000D01*
X138614500Y-53873000D01*
X139676250Y-53873000D01*
X139835000Y-53714250D01*
X139835000Y-53362000D01*
X141362577Y-53362000D01*
X141400000Y-53365686D01*
X141437423Y-53362000D01*
X141437426Y-53362000D01*
X141549378Y-53350974D01*
X141693015Y-53307402D01*
X141825392Y-53236645D01*
X141941422Y-53141422D01*
X141965284Y-53112346D01*
X145391352Y-49686279D01*
X145420422Y-49662422D01*
X145460690Y-49613355D01*
X145515645Y-49546393D01*
X145567688Y-49449026D01*
X145586402Y-49414015D01*
X145629974Y-49270378D01*
X145641000Y-49158426D01*
X145641000Y-49158423D01*
X145644686Y-49121000D01*
X145641000Y-49083577D01*
X145641000Y-47237422D01*
X145644686Y-47199999D01*
X145639700Y-47149378D01*
X145629974Y-47050622D01*
X145586402Y-46906985D01*
X145515645Y-46774608D01*
X145420422Y-46658578D01*
X145391353Y-46634722D01*
X144244284Y-45487654D01*
X144220422Y-45458578D01*
X144104392Y-45363355D01*
X144063072Y-45341269D01*
X144063072Y-44800000D01*
X144050812Y-44675518D01*
X144014502Y-44555820D01*
X143955537Y-44445506D01*
X143876185Y-44348815D01*
X143779494Y-44269463D01*
X143669180Y-44210498D01*
X143549482Y-44174188D01*
X143425000Y-44161928D01*
X140100000Y-44161928D01*
X139975518Y-44174188D01*
X139855820Y-44210498D01*
X139745506Y-44269463D01*
X139648815Y-44348815D01*
X139569463Y-44445506D01*
X139510498Y-44555820D01*
X139474188Y-44675518D01*
X139461928Y-44800000D01*
X139461928Y-47200000D01*
X139474188Y-47324482D01*
X139510498Y-47444180D01*
X139569463Y-47554494D01*
X139648815Y-47651185D01*
X139745506Y-47730537D01*
X139855820Y-47789502D01*
X139975518Y-47825812D01*
X140100000Y-47838072D01*
X143425000Y-47838072D01*
X143549482Y-47825812D01*
X143669180Y-47789502D01*
X143779494Y-47730537D01*
X143876185Y-47651185D01*
X143955537Y-47554494D01*
X144014502Y-47444180D01*
X144021728Y-47420359D01*
X144117000Y-47515631D01*
X144117001Y-48805368D01*
X141084370Y-51838000D01*
X133237422Y-51838000D01*
X133199999Y-51834314D01*
X133162576Y-51838000D01*
X133162574Y-51838000D01*
X133050622Y-51849026D01*
X132906985Y-51892598D01*
X132774608Y-51963355D01*
X132658578Y-52058578D01*
X132634720Y-52087649D01*
X132087653Y-52634717D01*
X132058578Y-52658578D01*
X132018510Y-52707402D01*
X131963355Y-52774608D01*
X131953739Y-52792599D01*
X131892598Y-52906986D01*
X131849026Y-53050623D01*
X131838000Y-53162574D01*
X131834314Y-53200000D01*
X131838000Y-53237423D01*
X131838000Y-53238000D01*
X130262000Y-53238000D01*
X130262000Y-50565630D01*
X131065631Y-49762000D01*
X131934370Y-49762000D01*
X132884721Y-50712352D01*
X132908578Y-50741422D01*
X133024608Y-50836645D01*
X133156985Y-50907402D01*
X133300622Y-50950974D01*
X133412574Y-50962000D01*
X133412576Y-50962000D01*
X133449999Y-50965686D01*
X133487422Y-50962000D01*
X134175421Y-50962000D01*
X134178992Y-50998254D01*
X134229528Y-51164850D01*
X134311595Y-51318386D01*
X134422038Y-51452962D01*
X134556614Y-51563405D01*
X134710150Y-51645472D01*
X134876746Y-51696008D01*
X135050000Y-51713072D01*
X135975000Y-51713072D01*
X136148254Y-51696008D01*
X136314850Y-51645472D01*
X136468386Y-51563405D01*
X136602962Y-51452962D01*
X136713405Y-51318386D01*
X136795472Y-51164850D01*
X136846008Y-50998254D01*
X136863072Y-50825000D01*
X136863072Y-50485750D01*
X137140000Y-50485750D01*
X137140000Y-51137542D01*
X137164403Y-51260223D01*
X137212270Y-51375785D01*
X137281763Y-51479789D01*
X137370211Y-51568237D01*
X137474215Y-51637730D01*
X137589777Y-51685597D01*
X137712458Y-51710000D01*
X138201750Y-51710000D01*
X138360500Y-51551250D01*
X138360500Y-50327000D01*
X138614500Y-50327000D01*
X138614500Y-51551250D01*
X138773250Y-51710000D01*
X139262542Y-51710000D01*
X139385223Y-51685597D01*
X139500785Y-51637730D01*
X139604789Y-51568237D01*
X139693237Y-51479789D01*
X139762730Y-51375785D01*
X139810597Y-51260223D01*
X139835000Y-51137542D01*
X139835000Y-50485750D01*
X139676250Y-50327000D01*
X138614500Y-50327000D01*
X138360500Y-50327000D01*
X137298750Y-50327000D01*
X137140000Y-50485750D01*
X136863072Y-50485750D01*
X136863072Y-49575000D01*
X136846008Y-49401746D01*
X136803756Y-49262458D01*
X137140000Y-49262458D01*
X137140000Y-49914250D01*
X137298750Y-50073000D01*
X138360500Y-50073000D01*
X138360500Y-48848750D01*
X138614500Y-48848750D01*
X138614500Y-50073000D01*
X139676250Y-50073000D01*
X139835000Y-49914250D01*
X139835000Y-49262458D01*
X139810597Y-49139777D01*
X139762730Y-49024215D01*
X139693237Y-48920211D01*
X139604789Y-48831763D01*
X139500785Y-48762270D01*
X139385223Y-48714403D01*
X139262542Y-48690000D01*
X138773250Y-48690000D01*
X138614500Y-48848750D01*
X138360500Y-48848750D01*
X138201750Y-48690000D01*
X137712458Y-48690000D01*
X137589777Y-48714403D01*
X137474215Y-48762270D01*
X137370211Y-48831763D01*
X137281763Y-48920211D01*
X137212270Y-49024215D01*
X137164403Y-49139777D01*
X137140000Y-49262458D01*
X136803756Y-49262458D01*
X136795472Y-49235150D01*
X136713405Y-49081614D01*
X136602962Y-48947038D01*
X136468386Y-48836595D01*
X136314850Y-48754528D01*
X136148254Y-48703992D01*
X135975000Y-48686928D01*
X135050000Y-48686928D01*
X134876746Y-48703992D01*
X134710150Y-48754528D01*
X134556614Y-48836595D01*
X134422038Y-48947038D01*
X134311595Y-49081614D01*
X134229528Y-49235150D01*
X134178992Y-49401746D01*
X134175421Y-49438000D01*
X133765631Y-49438000D01*
X133012000Y-48684370D01*
X133012000Y-47315630D01*
X133565630Y-46762000D01*
X133936928Y-46762000D01*
X133936928Y-47200000D01*
X133949188Y-47324482D01*
X133985498Y-47444180D01*
X134044463Y-47554494D01*
X134123815Y-47651185D01*
X134220506Y-47730537D01*
X134330820Y-47789502D01*
X134450518Y-47825812D01*
X134575000Y-47838072D01*
X137900000Y-47838072D01*
X138024482Y-47825812D01*
X138144180Y-47789502D01*
X138254494Y-47730537D01*
X138351185Y-47651185D01*
X138430537Y-47554494D01*
X138489502Y-47444180D01*
X138525812Y-47324482D01*
X138538072Y-47200000D01*
X138538072Y-44800000D01*
X138525812Y-44675518D01*
X138489502Y-44555820D01*
X138430537Y-44445506D01*
X138351185Y-44348815D01*
X138254494Y-44269463D01*
X138144180Y-44210498D01*
X138024482Y-44174188D01*
X137900000Y-44161928D01*
X134575000Y-44161928D01*
X134450518Y-44174188D01*
X134330820Y-44210498D01*
X134220506Y-44269463D01*
X134123815Y-44348815D01*
X134044463Y-44445506D01*
X133985498Y-44555820D01*
X133949188Y-44675518D01*
X133936928Y-44800000D01*
X133936928Y-45238000D01*
X133287423Y-45238000D01*
X133250000Y-45234314D01*
X133212577Y-45238000D01*
X133212574Y-45238000D01*
X133100622Y-45249026D01*
X132956985Y-45292598D01*
X132895364Y-45325535D01*
X132824607Y-45363355D01*
X132782219Y-45398143D01*
X132708578Y-45458578D01*
X132684716Y-45487654D01*
X131744172Y-46428198D01*
X131707402Y-46306985D01*
X131668559Y-46234314D01*
X131636645Y-46174607D01*
X131565279Y-46087648D01*
X131541422Y-46058578D01*
X131512352Y-46034721D01*
X128765284Y-43287654D01*
X128741422Y-43258578D01*
X128625392Y-43163355D01*
X128493015Y-43092598D01*
X128349378Y-43049026D01*
X128237426Y-43038000D01*
X128237423Y-43038000D01*
X128200000Y-43034314D01*
X128162577Y-43038000D01*
X104637423Y-43038000D01*
X104600000Y-43034314D01*
X104562577Y-43038000D01*
X104562574Y-43038000D01*
X104450622Y-43049026D01*
X104306985Y-43092598D01*
X104245364Y-43125535D01*
X104174607Y-43163355D01*
X104091904Y-43231228D01*
X104058578Y-43258578D01*
X104034721Y-43287648D01*
X102457370Y-44865000D01*
X102288212Y-44865000D01*
X102068933Y-44908617D01*
X101862376Y-44994176D01*
X101676480Y-45118388D01*
X101518388Y-45276480D01*
X101394176Y-45462376D01*
X101308617Y-45668933D01*
X101265000Y-45888212D01*
X101265000Y-46057369D01*
X93164370Y-54158000D01*
X91179977Y-54158000D01*
X91130537Y-54065506D01*
X91051185Y-53968815D01*
X90954494Y-53889463D01*
X90844180Y-53830498D01*
X90724482Y-53794188D01*
X90600000Y-53781928D01*
X88700000Y-53781928D01*
X88575518Y-53794188D01*
X88455820Y-53830498D01*
X88345506Y-53889463D01*
X88248815Y-53968815D01*
X88169463Y-54065506D01*
X88110498Y-54175820D01*
X88074188Y-54295518D01*
X88061928Y-54420000D01*
X88061928Y-55420000D01*
X88074188Y-55544482D01*
X88110498Y-55664180D01*
X88169463Y-55774494D01*
X88248815Y-55871185D01*
X88345506Y-55950537D01*
X88455820Y-56009502D01*
X88575518Y-56045812D01*
X88700000Y-56058072D01*
X90600000Y-56058072D01*
X90724482Y-56045812D01*
X90844180Y-56009502D01*
X90954494Y-55950537D01*
X91051185Y-55871185D01*
X91130537Y-55774494D01*
X91179977Y-55682000D01*
X93442577Y-55682000D01*
X93480000Y-55685686D01*
X93517423Y-55682000D01*
X93517426Y-55682000D01*
X93629378Y-55670974D01*
X93773015Y-55627402D01*
X93905392Y-55556645D01*
X94021422Y-55461422D01*
X94045284Y-55432346D01*
X102342631Y-47135000D01*
X102511788Y-47135000D01*
X102731067Y-47091383D01*
X102937624Y-47005824D01*
X103123520Y-46881612D01*
X103281612Y-46723520D01*
X103405824Y-46537624D01*
X103491383Y-46331067D01*
X103535000Y-46111788D01*
X103535000Y-45942630D01*
X104915631Y-44562000D01*
X127884370Y-44562000D01*
X130238001Y-46915632D01*
X130238000Y-47684369D01*
X127687649Y-50234721D01*
X127658579Y-50258578D01*
X127634722Y-50287648D01*
X127634721Y-50287649D01*
X127563355Y-50374608D01*
X127492599Y-50506985D01*
X127449027Y-50650622D01*
X127434314Y-50800000D01*
X127438001Y-50837433D01*
X127438001Y-51238000D01*
X127324579Y-51238000D01*
X127321008Y-51201746D01*
X127270472Y-51035150D01*
X127188405Y-50881614D01*
X127077962Y-50747038D01*
X126943386Y-50636595D01*
X126789850Y-50554528D01*
X126623254Y-50503992D01*
X126450000Y-50486928D01*
X125525000Y-50486928D01*
X125351746Y-50503992D01*
X125185150Y-50554528D01*
X125031614Y-50636595D01*
X124897038Y-50747038D01*
X124786595Y-50881614D01*
X124704528Y-51035150D01*
X124653992Y-51201746D01*
X124636928Y-51375000D01*
X124636928Y-52625000D01*
X124653992Y-52798254D01*
X124704528Y-52964850D01*
X124786595Y-53118386D01*
X124897038Y-53252962D01*
X125031614Y-53363405D01*
X125185150Y-53445472D01*
X125351746Y-53496008D01*
X125525000Y-53513072D01*
X126450000Y-53513072D01*
X126623254Y-53496008D01*
X126789850Y-53445472D01*
X126943386Y-53363405D01*
X127077962Y-53252962D01*
X127188405Y-53118386D01*
X127270472Y-52964850D01*
X127321008Y-52798254D01*
X127324579Y-52762000D01*
X127488000Y-52762000D01*
X127488001Y-53462565D01*
X127488000Y-53462575D01*
X127488000Y-53684369D01*
X124687654Y-56484716D01*
X124658578Y-56508578D01*
X124625095Y-56549378D01*
X124563355Y-56624608D01*
X124526791Y-56693015D01*
X124492598Y-56756986D01*
X124449026Y-56900623D01*
X124438022Y-57012352D01*
X124434314Y-57050000D01*
X124438000Y-57087424D01*
X124438000Y-57542455D01*
X124400000Y-57588759D01*
X124326185Y-57498815D01*
X124229494Y-57419463D01*
X124206333Y-57407083D01*
X124114250Y-57315000D01*
X124062458Y-57315000D01*
X124006130Y-57326205D01*
X123999482Y-57324188D01*
X123875000Y-57311928D01*
X123325000Y-57311928D01*
X123200518Y-57324188D01*
X123193870Y-57326205D01*
X123137542Y-57315000D01*
X123085750Y-57315000D01*
X122993667Y-57407083D01*
X122970506Y-57419463D01*
X122873815Y-57498815D01*
X122800000Y-57588759D01*
X122762000Y-57542456D01*
X122762000Y-55787422D01*
X122765686Y-55749999D01*
X122761978Y-55712351D01*
X122750974Y-55600622D01*
X122707402Y-55456985D01*
X122636645Y-55324608D01*
X122541422Y-55208578D01*
X122512353Y-55184722D01*
X120762000Y-53434370D01*
X120762000Y-52285750D01*
X121665000Y-52285750D01*
X121665000Y-52937542D01*
X121689403Y-53060223D01*
X121737270Y-53175785D01*
X121806763Y-53279789D01*
X121895211Y-53368237D01*
X121999215Y-53437730D01*
X122114777Y-53485597D01*
X122237458Y-53510000D01*
X122726750Y-53510000D01*
X122885500Y-53351250D01*
X122885500Y-52127000D01*
X123139500Y-52127000D01*
X123139500Y-53351250D01*
X123298250Y-53510000D01*
X123787542Y-53510000D01*
X123910223Y-53485597D01*
X124025785Y-53437730D01*
X124129789Y-53368237D01*
X124218237Y-53279789D01*
X124287730Y-53175785D01*
X124335597Y-53060223D01*
X124360000Y-52937542D01*
X124360000Y-52285750D01*
X124201250Y-52127000D01*
X123139500Y-52127000D01*
X122885500Y-52127000D01*
X121823750Y-52127000D01*
X121665000Y-52285750D01*
X120762000Y-52285750D01*
X120762000Y-51062458D01*
X121665000Y-51062458D01*
X121665000Y-51714250D01*
X121823750Y-51873000D01*
X122885500Y-51873000D01*
X122885500Y-50648750D01*
X123139500Y-50648750D01*
X123139500Y-51873000D01*
X124201250Y-51873000D01*
X124360000Y-51714250D01*
X124360000Y-51062458D01*
X124335597Y-50939777D01*
X124287730Y-50824215D01*
X124218237Y-50720211D01*
X124129789Y-50631763D01*
X124025785Y-50562270D01*
X123910223Y-50514403D01*
X123787542Y-50490000D01*
X123298250Y-50490000D01*
X123139500Y-50648750D01*
X122885500Y-50648750D01*
X122726750Y-50490000D01*
X122237458Y-50490000D01*
X122114777Y-50514403D01*
X121999215Y-50562270D01*
X121895211Y-50631763D01*
X121806763Y-50720211D01*
X121737270Y-50824215D01*
X121689403Y-50939777D01*
X121665000Y-51062458D01*
X120762000Y-51062458D01*
X120762000Y-50565630D01*
X121315630Y-50012000D01*
X121962577Y-50012000D01*
X122000000Y-50015686D01*
X122037423Y-50012000D01*
X122037426Y-50012000D01*
X122149378Y-50000974D01*
X122293015Y-49957402D01*
X122425392Y-49886645D01*
X122541422Y-49791422D01*
X122565284Y-49762347D01*
X123262351Y-49065280D01*
X123291422Y-49041422D01*
X123386645Y-48925392D01*
X123457402Y-48793015D01*
X123500974Y-48649378D01*
X123512000Y-48537426D01*
X123512000Y-48537424D01*
X123515686Y-48500001D01*
X123512000Y-48462578D01*
X123512000Y-48037423D01*
X123515686Y-48000000D01*
X123512000Y-47962574D01*
X123500974Y-47850622D01*
X123457402Y-47706985D01*
X123424465Y-47645364D01*
X123386645Y-47574607D01*
X123351857Y-47532219D01*
X123291422Y-47458578D01*
X123262347Y-47434717D01*
X122815284Y-46987654D01*
X122791422Y-46958578D01*
X122675392Y-46863355D01*
X122543015Y-46792598D01*
X122399378Y-46749026D01*
X122287426Y-46738000D01*
X122287423Y-46738000D01*
X122250000Y-46734314D01*
X122212577Y-46738000D01*
X121824579Y-46738000D01*
X121821008Y-46701746D01*
X121770472Y-46535150D01*
X121688405Y-46381614D01*
X121577962Y-46247038D01*
X121443386Y-46136595D01*
X121289850Y-46054528D01*
X121123254Y-46003992D01*
X120950000Y-45986928D01*
X120025000Y-45986928D01*
X119851746Y-46003992D01*
X119685150Y-46054528D01*
X119531614Y-46136595D01*
X119397038Y-46247038D01*
X119286595Y-46381614D01*
X119204528Y-46535150D01*
X119153992Y-46701746D01*
X119136928Y-46875000D01*
X119136928Y-48125000D01*
X119153992Y-48298254D01*
X119204528Y-48464850D01*
X119286595Y-48618386D01*
X119397038Y-48752962D01*
X119531614Y-48863405D01*
X119685150Y-48945472D01*
X119851746Y-48996008D01*
X120025000Y-49013072D01*
X120159298Y-49013072D01*
X119487654Y-49684716D01*
X119458578Y-49708578D01*
X119414736Y-49762000D01*
X119363355Y-49824608D01*
X119338038Y-49871974D01*
X119292598Y-49956986D01*
X119249026Y-50100623D01*
X119238394Y-50208579D01*
X119234314Y-50250000D01*
X119238000Y-50287423D01*
X119238001Y-53160370D01*
X116512000Y-50434370D01*
X116512000Y-48826791D01*
X116556614Y-48863405D01*
X116710150Y-48945472D01*
X116876746Y-48996008D01*
X117050000Y-49013072D01*
X117975000Y-49013072D01*
X118148254Y-48996008D01*
X118314850Y-48945472D01*
X118468386Y-48863405D01*
X118602962Y-48752962D01*
X118713405Y-48618386D01*
X118795472Y-48464850D01*
X118846008Y-48298254D01*
X118863072Y-48125000D01*
X118863072Y-46875000D01*
X118846008Y-46701746D01*
X118795472Y-46535150D01*
X118713405Y-46381614D01*
X118602962Y-46247038D01*
X118468386Y-46136595D01*
X118314850Y-46054528D01*
X118148254Y-46003992D01*
X117975000Y-45986928D01*
X117050000Y-45986928D01*
X116876746Y-46003992D01*
X116710150Y-46054528D01*
X116556614Y-46136595D01*
X116422038Y-46247038D01*
X116311595Y-46381614D01*
X116229528Y-46535150D01*
X116178992Y-46701746D01*
X116175421Y-46738000D01*
X115787425Y-46738000D01*
X115750000Y-46734314D01*
X115712574Y-46738000D01*
X113215631Y-46738000D01*
X113135000Y-46657369D01*
X113135000Y-46488212D01*
X113091383Y-46268933D01*
X113005824Y-46062376D01*
X112881612Y-45876480D01*
X112723520Y-45718388D01*
X112537624Y-45594176D01*
X112331067Y-45508617D01*
X112111788Y-45465000D01*
X111888212Y-45465000D01*
X111668933Y-45508617D01*
X111462376Y-45594176D01*
X111276480Y-45718388D01*
X111118388Y-45876480D01*
X110994176Y-46062376D01*
X110908617Y-46268933D01*
X110865000Y-46488212D01*
X110865000Y-46711788D01*
X110908617Y-46931067D01*
X110994176Y-47137624D01*
X111118388Y-47323520D01*
X111276480Y-47481612D01*
X111462376Y-47605824D01*
X111668933Y-47691383D01*
X111888212Y-47735000D01*
X112057369Y-47735000D01*
X112334721Y-48012351D01*
X112358578Y-48041422D01*
X112474608Y-48136645D01*
X112606985Y-48207402D01*
X112750622Y-48250974D01*
X112862574Y-48262000D01*
X112862576Y-48262000D01*
X112899999Y-48265686D01*
X112937422Y-48262000D01*
X114988000Y-48262000D01*
X114988001Y-50712567D01*
X114984314Y-50750000D01*
X114999027Y-50899378D01*
X115042599Y-51043015D01*
X115113355Y-51175392D01*
X115173786Y-51249027D01*
X115208579Y-51291422D01*
X115237649Y-51315279D01*
X120438000Y-56515631D01*
X120438001Y-57542455D01*
X120394463Y-57595506D01*
X120335498Y-57705820D01*
X120299188Y-57825518D01*
X120286928Y-57950000D01*
X120286928Y-59286928D01*
X118950000Y-59286928D01*
X118825518Y-59299188D01*
X118705820Y-59335498D01*
X118595506Y-59394463D01*
X118498815Y-59473815D01*
X118419463Y-59570506D01*
X118360498Y-59680820D01*
X118324188Y-59800518D01*
X118311928Y-59925000D01*
X118311928Y-60238000D01*
X118115630Y-60238000D01*
X112365285Y-54487655D01*
X112341422Y-54458578D01*
X112225392Y-54363355D01*
X112093015Y-54292598D01*
X111949378Y-54249026D01*
X111837426Y-54238000D01*
X111837423Y-54238000D01*
X111800000Y-54234314D01*
X111762577Y-54238000D01*
X110843132Y-54238000D01*
X110723520Y-54118388D01*
X110537624Y-53994176D01*
X110331067Y-53908617D01*
X110111788Y-53865000D01*
X109888212Y-53865000D01*
X109668933Y-53908617D01*
X109462376Y-53994176D01*
X109276480Y-54118388D01*
X109118388Y-54276480D01*
X108994176Y-54462376D01*
X108908617Y-54668933D01*
X108865000Y-54888212D01*
X108865000Y-55111788D01*
X108908617Y-55331067D01*
X108952910Y-55438000D01*
X108243132Y-55438000D01*
X108123520Y-55318388D01*
X107937624Y-55194176D01*
X107731067Y-55108617D01*
X107511788Y-55065000D01*
X107288212Y-55065000D01*
X107068933Y-55108617D01*
X106862376Y-55194176D01*
X106676480Y-55318388D01*
X106518388Y-55476480D01*
X106394176Y-55662376D01*
X106308617Y-55868933D01*
X106265000Y-56088212D01*
X106265000Y-56311788D01*
X106308617Y-56531067D01*
X106394176Y-56737624D01*
X106461245Y-56838000D01*
X106443132Y-56838000D01*
X106323520Y-56718388D01*
X106137624Y-56594176D01*
X105931067Y-56508617D01*
X105711788Y-56465000D01*
X105488212Y-56465000D01*
X105268933Y-56508617D01*
X105062376Y-56594176D01*
X104876480Y-56718388D01*
X104718388Y-56876480D01*
X104594176Y-57062376D01*
X104508617Y-57268933D01*
X104465000Y-57488212D01*
X104465000Y-57711788D01*
X104490105Y-57838000D01*
X89915631Y-57838000D01*
X87365284Y-55287654D01*
X87341422Y-55258578D01*
X87225392Y-55163355D01*
X87093015Y-55092598D01*
X86949378Y-55049026D01*
X86837426Y-55038000D01*
X86837423Y-55038000D01*
X86800000Y-55034314D01*
X86762577Y-55038000D01*
X84837422Y-55038000D01*
X84799999Y-55034314D01*
X84762576Y-55038000D01*
X84762574Y-55038000D01*
X84650622Y-55049026D01*
X84506985Y-55092598D01*
X84374608Y-55163355D01*
X84258578Y-55258578D01*
X84234720Y-55287649D01*
X83687653Y-55834717D01*
X83658578Y-55858578D01*
X83602983Y-55926322D01*
X83563355Y-55974608D01*
X83526791Y-56043015D01*
X83492598Y-56106986D01*
X83449026Y-56250623D01*
X83439968Y-56342598D01*
X83434314Y-56400000D01*
X83438000Y-56437423D01*
X83438001Y-59598567D01*
X83434314Y-59636000D01*
X83449027Y-59785378D01*
X83492599Y-59929015D01*
X83563355Y-60061392D01*
X83634721Y-60148351D01*
X83658579Y-60177422D01*
X83687649Y-60201279D01*
X85018223Y-61531854D01*
X84948815Y-61588815D01*
X84869463Y-61685506D01*
X84810498Y-61795820D01*
X84774188Y-61915518D01*
X84761928Y-62040000D01*
X84761928Y-63040000D01*
X84774188Y-63164482D01*
X84810498Y-63284180D01*
X84869463Y-63394494D01*
X84948815Y-63491185D01*
X85045506Y-63570537D01*
X85155820Y-63629502D01*
X85275518Y-63665812D01*
X85400000Y-63678072D01*
X87300000Y-63678072D01*
X87424482Y-63665812D01*
X87544180Y-63629502D01*
X87654494Y-63570537D01*
X87751185Y-63491185D01*
X87830537Y-63394494D01*
X87889502Y-63284180D01*
X87925812Y-63164482D01*
X87938072Y-63040000D01*
X87938072Y-62040000D01*
X87935418Y-62013048D01*
X89901560Y-63979190D01*
X89777000Y-64103750D01*
X89777000Y-64953000D01*
X89797000Y-64953000D01*
X89797000Y-65207000D01*
X89777000Y-65207000D01*
X89777000Y-66056250D01*
X89935750Y-66215000D01*
X90662542Y-66215000D01*
X90785223Y-66190597D01*
X90900785Y-66142730D01*
X91004789Y-66073237D01*
X91093237Y-65984789D01*
X91162730Y-65880785D01*
X91210597Y-65765223D01*
X91235000Y-65642542D01*
X91235000Y-65365750D01*
X91076252Y-65207002D01*
X91129371Y-65207002D01*
X92484721Y-66562352D01*
X92508578Y-66591422D01*
X92537648Y-66615279D01*
X92624607Y-66686645D01*
X92674049Y-66713072D01*
X92756985Y-66757402D01*
X92900622Y-66800974D01*
X93012574Y-66812000D01*
X93012577Y-66812000D01*
X93050000Y-66815686D01*
X93087423Y-66812000D01*
X94025623Y-66812000D01*
X94098815Y-66901185D01*
X94195506Y-66980537D01*
X94231918Y-67000000D01*
X94195506Y-67019463D01*
X94098815Y-67098815D01*
X94019463Y-67195506D01*
X93960498Y-67305820D01*
X93924188Y-67425518D01*
X93911928Y-67550000D01*
X93911928Y-68350000D01*
X93924188Y-68474482D01*
X93960498Y-68594180D01*
X94019463Y-68704494D01*
X94098815Y-68801185D01*
X94195506Y-68880537D01*
X94305820Y-68939502D01*
X94425518Y-68975812D01*
X94550000Y-68988072D01*
X96450000Y-68988072D01*
X96574482Y-68975812D01*
X96694180Y-68939502D01*
X96804494Y-68880537D01*
X96901185Y-68801185D01*
X96956344Y-68733974D01*
X96972370Y-68750000D01*
X94084370Y-71638000D01*
X90837422Y-71638000D01*
X90799999Y-71634314D01*
X90762576Y-71638000D01*
X90762574Y-71638000D01*
X90650622Y-71649026D01*
X90506985Y-71692598D01*
X90374608Y-71763355D01*
X90258578Y-71858578D01*
X90234721Y-71887648D01*
X88487654Y-73634716D01*
X88458578Y-73658578D01*
X88406682Y-73721814D01*
X88363355Y-73774608D01*
X88360421Y-73780098D01*
X88292598Y-73906986D01*
X88249026Y-74050623D01*
X88242352Y-74118388D01*
X88234314Y-74200000D01*
X88238000Y-74237423D01*
X88238000Y-74377885D01*
X88224180Y-74370498D01*
X88104482Y-74334188D01*
X87980000Y-74321928D01*
X84980000Y-74321928D01*
X84855518Y-74334188D01*
X84735820Y-74370498D01*
X84625506Y-74429463D01*
X84528815Y-74508815D01*
X84449463Y-74605506D01*
X84400023Y-74698000D01*
X84177422Y-74698000D01*
X84139999Y-74694314D01*
X84102576Y-74698000D01*
X84102574Y-74698000D01*
X83990622Y-74709026D01*
X83846985Y-74752598D01*
X83714608Y-74823355D01*
X83598578Y-74918578D01*
X83574720Y-74947649D01*
X83087649Y-75434721D01*
X83058579Y-75458578D01*
X83034722Y-75487648D01*
X83034721Y-75487649D01*
X82963355Y-75574608D01*
X82892599Y-75706985D01*
X82849027Y-75850622D01*
X82834314Y-76000000D01*
X82627000Y-76000000D01*
X82627000Y-65365750D01*
X88065000Y-65365750D01*
X88065000Y-65642542D01*
X88089403Y-65765223D01*
X88137270Y-65880785D01*
X88206763Y-65984789D01*
X88295211Y-66073237D01*
X88399215Y-66142730D01*
X88514777Y-66190597D01*
X88637458Y-66215000D01*
X89364250Y-66215000D01*
X89523000Y-66056250D01*
X89523000Y-65207000D01*
X88223750Y-65207000D01*
X88065000Y-65365750D01*
X82627000Y-65365750D01*
X82627000Y-64517458D01*
X88065000Y-64517458D01*
X88065000Y-64794250D01*
X88223750Y-64953000D01*
X89523000Y-64953000D01*
X89523000Y-64103750D01*
X89364250Y-63945000D01*
X88637458Y-63945000D01*
X88514777Y-63969403D01*
X88399215Y-64017270D01*
X88295211Y-64086763D01*
X88206763Y-64175211D01*
X88137270Y-64279215D01*
X88089403Y-64394777D01*
X88065000Y-64517458D01*
X82627000Y-64517458D01*
X82627000Y-32627000D01*
X177373000Y-32627000D01*
X177373000Y-127373000D01*
X177373000Y-127373000D01*
G37*
X177373000Y-127373000D02*
X82627000Y-127373000D01*
X82627000Y-76000000D01*
X82834314Y-76000000D01*
X82838001Y-76037433D01*
X82838000Y-84362577D01*
X82834314Y-84400000D01*
X82838000Y-84437423D01*
X82838000Y-84437425D01*
X82849026Y-84549377D01*
X82892598Y-84693014D01*
X82892599Y-84693015D01*
X82963355Y-84825392D01*
X83002983Y-84873678D01*
X83058578Y-84941422D01*
X83087654Y-84965284D01*
X86434721Y-88312352D01*
X86458578Y-88341422D01*
X86574608Y-88436645D01*
X86706985Y-88507402D01*
X86850622Y-88550974D01*
X86962574Y-88562000D01*
X86962576Y-88562000D01*
X86999999Y-88565686D01*
X87037422Y-88562000D01*
X117762577Y-88562000D01*
X117800000Y-88565686D01*
X117837423Y-88562000D01*
X117837426Y-88562000D01*
X117949378Y-88550974D01*
X118093015Y-88507402D01*
X118225392Y-88436645D01*
X118341422Y-88341422D01*
X118365284Y-88312346D01*
X129712346Y-76965284D01*
X129741422Y-76941422D01*
X129823490Y-76841422D01*
X129836645Y-76825393D01*
X129890096Y-76725392D01*
X129907402Y-76693015D01*
X129950974Y-76549378D01*
X129962000Y-76437426D01*
X129962000Y-76437423D01*
X129965686Y-76400000D01*
X129962000Y-76362577D01*
X129962000Y-68915630D01*
X130519731Y-68357899D01*
X130594176Y-68537624D01*
X130718388Y-68723520D01*
X130876480Y-68881612D01*
X131062376Y-69005824D01*
X131268933Y-69091383D01*
X131488212Y-69135000D01*
X131711788Y-69135000D01*
X131931067Y-69091383D01*
X132137624Y-69005824D01*
X132323520Y-68881612D01*
X132481612Y-68723520D01*
X132605824Y-68537624D01*
X132691383Y-68331067D01*
X132735000Y-68111788D01*
X132735000Y-67888212D01*
X132691383Y-67668933D01*
X132605824Y-67462376D01*
X132481612Y-67276480D01*
X132362000Y-67156868D01*
X132362000Y-66237422D01*
X132365686Y-66199999D01*
X132360684Y-66149215D01*
X132350974Y-66050622D01*
X132307402Y-65906985D01*
X132304103Y-65900812D01*
X132272357Y-65841421D01*
X132236645Y-65774608D01*
X132141422Y-65658578D01*
X132112352Y-65634721D01*
X130965284Y-64487654D01*
X130941422Y-64458578D01*
X130825392Y-64363355D01*
X130693015Y-64292598D01*
X130549378Y-64249026D01*
X130437426Y-64238000D01*
X130437423Y-64238000D01*
X130400000Y-64234314D01*
X130362577Y-64238000D01*
X129688072Y-64238000D01*
X129688072Y-63925000D01*
X129675812Y-63800518D01*
X129675655Y-63800000D01*
X129675812Y-63799482D01*
X129688072Y-63675000D01*
X129688072Y-63362000D01*
X134784370Y-63362000D01*
X138434721Y-67012352D01*
X138458578Y-67041422D01*
X138487648Y-67065279D01*
X138574607Y-67136645D01*
X138628940Y-67165686D01*
X138706985Y-67207402D01*
X138850622Y-67250974D01*
X138962574Y-67262000D01*
X138962577Y-67262000D01*
X139000000Y-67265686D01*
X139037423Y-67262000D01*
X139962577Y-67262000D01*
X140000000Y-67265686D01*
X140037423Y-67262000D01*
X140037426Y-67262000D01*
X140149378Y-67250974D01*
X140293015Y-67207402D01*
X140425392Y-67136645D01*
X140541422Y-67041422D01*
X140565284Y-67012347D01*
X141262351Y-66315280D01*
X141291422Y-66291422D01*
X141386645Y-66175392D01*
X141457402Y-66043015D01*
X141500974Y-65899378D01*
X141512000Y-65787426D01*
X141512000Y-65787424D01*
X141515686Y-65750001D01*
X141512000Y-65712578D01*
X141512000Y-65324579D01*
X141548254Y-65321008D01*
X141714850Y-65270472D01*
X141868386Y-65188405D01*
X142002962Y-65077962D01*
X142113405Y-64943386D01*
X142195472Y-64789850D01*
X142246008Y-64623254D01*
X142263072Y-64450000D01*
X142263072Y-63525000D01*
X142246008Y-63351746D01*
X142195472Y-63185150D01*
X142113405Y-63031614D01*
X142002962Y-62897038D01*
X141868386Y-62786595D01*
X141714850Y-62704528D01*
X141548254Y-62653992D01*
X141375000Y-62636928D01*
X140125000Y-62636928D01*
X139951746Y-62653992D01*
X139785150Y-62704528D01*
X139631614Y-62786595D01*
X139497038Y-62897038D01*
X139386595Y-63031614D01*
X139304528Y-63185150D01*
X139253992Y-63351746D01*
X139236928Y-63525000D01*
X139236928Y-64450000D01*
X139253992Y-64623254D01*
X139304528Y-64789850D01*
X139386595Y-64943386D01*
X139497038Y-65077962D01*
X139631614Y-65188405D01*
X139785150Y-65270472D01*
X139951746Y-65321008D01*
X139988001Y-65324579D01*
X139988001Y-65434369D01*
X139684370Y-65738000D01*
X139315631Y-65738000D01*
X135665284Y-62087654D01*
X135641422Y-62058578D01*
X135525392Y-61963355D01*
X135393015Y-61892598D01*
X135249378Y-61849026D01*
X135137426Y-61838000D01*
X135137423Y-61838000D01*
X135100000Y-61834314D01*
X135062577Y-61838000D01*
X134489630Y-61838000D01*
X137065631Y-59262000D01*
X139684370Y-59262000D01*
X139988000Y-59565631D01*
X139988000Y-59675421D01*
X139951746Y-59678992D01*
X139785150Y-59729528D01*
X139631614Y-59811595D01*
X139497038Y-59922038D01*
X139386595Y-60056614D01*
X139304528Y-60210150D01*
X139253992Y-60376746D01*
X139236928Y-60550000D01*
X139236928Y-61475000D01*
X139253992Y-61648254D01*
X139304528Y-61814850D01*
X139386595Y-61968386D01*
X139497038Y-62102962D01*
X139631614Y-62213405D01*
X139785150Y-62295472D01*
X139951746Y-62346008D01*
X140125000Y-62363072D01*
X141375000Y-62363072D01*
X141548254Y-62346008D01*
X141714850Y-62295472D01*
X141868386Y-62213405D01*
X142002962Y-62102962D01*
X142113405Y-61968386D01*
X142195472Y-61814850D01*
X142246008Y-61648254D01*
X142263072Y-61475000D01*
X142263072Y-60550000D01*
X142262056Y-60539687D01*
X142838000Y-61115631D01*
X142838001Y-66084368D01*
X130057370Y-78865000D01*
X129888212Y-78865000D01*
X129668933Y-78908617D01*
X129462376Y-78994176D01*
X129276480Y-79118388D01*
X129118388Y-79276480D01*
X128994176Y-79462376D01*
X128908617Y-79668933D01*
X128865000Y-79888212D01*
X128865000Y-80111788D01*
X128908617Y-80331067D01*
X128994176Y-80537624D01*
X129118388Y-80723520D01*
X129276480Y-80881612D01*
X129462376Y-81005824D01*
X129668933Y-81091383D01*
X129888212Y-81135000D01*
X130111788Y-81135000D01*
X130331067Y-81091383D01*
X130537624Y-81005824D01*
X130723520Y-80881612D01*
X130881612Y-80723520D01*
X131005824Y-80537624D01*
X131091383Y-80331067D01*
X131135000Y-80111788D01*
X131135000Y-79942630D01*
X144112352Y-66965279D01*
X144141422Y-66941422D01*
X144236645Y-66825392D01*
X144307402Y-66693015D01*
X144350974Y-66549378D01*
X144362000Y-66437426D01*
X144362000Y-66437424D01*
X144365686Y-66400001D01*
X144362000Y-66362574D01*
X144362000Y-60837422D01*
X144365686Y-60799999D01*
X144361943Y-60762000D01*
X144350974Y-60650622D01*
X144307402Y-60506985D01*
X144236645Y-60374608D01*
X144141422Y-60258578D01*
X144112352Y-60234721D01*
X143881662Y-60004031D01*
X143962574Y-60012000D01*
X143962577Y-60012000D01*
X144000000Y-60015686D01*
X144037423Y-60012000D01*
X145712577Y-60012000D01*
X145750000Y-60015686D01*
X145787423Y-60012000D01*
X145787426Y-60012000D01*
X145899378Y-60000974D01*
X146043015Y-59957402D01*
X146175392Y-59886645D01*
X146291422Y-59791422D01*
X146315284Y-59762346D01*
X147262346Y-58815284D01*
X147291422Y-58791422D01*
X147373522Y-58691383D01*
X147386645Y-58675393D01*
X147427973Y-58598072D01*
X147457402Y-58543015D01*
X147500974Y-58399378D01*
X147512000Y-58287426D01*
X147512000Y-58287423D01*
X147515686Y-58250000D01*
X147512000Y-58212577D01*
X147512000Y-58074579D01*
X147548254Y-58071008D01*
X147714850Y-58020472D01*
X147868386Y-57938405D01*
X148002962Y-57827962D01*
X148113405Y-57693386D01*
X148195472Y-57539850D01*
X148246008Y-57373254D01*
X148263072Y-57200000D01*
X148263072Y-56275000D01*
X148246008Y-56101746D01*
X148195472Y-55935150D01*
X148113405Y-55781614D01*
X148002962Y-55647038D01*
X147868386Y-55536595D01*
X147714850Y-55454528D01*
X147548254Y-55403992D01*
X147375000Y-55386928D01*
X146125000Y-55386928D01*
X145951746Y-55403992D01*
X145785150Y-55454528D01*
X145631614Y-55536595D01*
X145497038Y-55647038D01*
X145386595Y-55781614D01*
X145304528Y-55935150D01*
X145253992Y-56101746D01*
X145236928Y-56275000D01*
X145236928Y-57200000D01*
X145253992Y-57373254D01*
X145304528Y-57539850D01*
X145386595Y-57693386D01*
X145497038Y-57827962D01*
X145631614Y-57938405D01*
X145785150Y-58020472D01*
X145874726Y-58047644D01*
X145434370Y-58488000D01*
X144315631Y-58488000D01*
X142815284Y-56987654D01*
X142791422Y-56958578D01*
X142675392Y-56863355D01*
X142543015Y-56792598D01*
X142399378Y-56749026D01*
X142287426Y-56738000D01*
X142287423Y-56738000D01*
X142250000Y-56734314D01*
X142212577Y-56738000D01*
X141939630Y-56738000D01*
X145236928Y-53440703D01*
X145236928Y-54225000D01*
X145253992Y-54398254D01*
X145304528Y-54564850D01*
X145386595Y-54718386D01*
X145497038Y-54852962D01*
X145631614Y-54963405D01*
X145785150Y-55045472D01*
X145951746Y-55096008D01*
X146125000Y-55113072D01*
X147375000Y-55113072D01*
X147548254Y-55096008D01*
X147714850Y-55045472D01*
X147868386Y-54963405D01*
X148002962Y-54852962D01*
X148113405Y-54718386D01*
X148195472Y-54564850D01*
X148246008Y-54398254D01*
X148263072Y-54225000D01*
X148263072Y-53300000D01*
X148246008Y-53126746D01*
X148195472Y-52960150D01*
X148113405Y-52806614D01*
X148002962Y-52672038D01*
X147868386Y-52561595D01*
X147714850Y-52479528D01*
X147548254Y-52428992D01*
X147512000Y-52425421D01*
X147512000Y-52262000D01*
X148384370Y-52262000D01*
X161738000Y-65615631D01*
X161738001Y-79156867D01*
X161618388Y-79276480D01*
X161494176Y-79462376D01*
X161408617Y-79668933D01*
X161365000Y-79888212D01*
X161365000Y-80111788D01*
X161408617Y-80331067D01*
X161494176Y-80537624D01*
X161618388Y-80723520D01*
X161776480Y-80881612D01*
X161962376Y-81005824D01*
X162168933Y-81091383D01*
X162388212Y-81135000D01*
X162611788Y-81135000D01*
X162831067Y-81091383D01*
X163037624Y-81005824D01*
X163223520Y-80881612D01*
X163381612Y-80723520D01*
X163505824Y-80537624D01*
X163591383Y-80331067D01*
X163635000Y-80111788D01*
X163635000Y-79888212D01*
X163591383Y-79668933D01*
X163505824Y-79462376D01*
X163381612Y-79276480D01*
X163262000Y-79156868D01*
X163262000Y-65337422D01*
X163265686Y-65299999D01*
X163262000Y-65262574D01*
X163250974Y-65150622D01*
X163207402Y-65006985D01*
X163136645Y-64874608D01*
X163041422Y-64758578D01*
X163012353Y-64734722D01*
X149265284Y-50987654D01*
X149241422Y-50958578D01*
X149125392Y-50863355D01*
X148993015Y-50792598D01*
X148849378Y-50749026D01*
X148737426Y-50738000D01*
X148737423Y-50738000D01*
X148700000Y-50734314D01*
X148662577Y-50738000D01*
X146737423Y-50738000D01*
X146700000Y-50734314D01*
X146662577Y-50738000D01*
X146137423Y-50738000D01*
X146100000Y-50734314D01*
X146062577Y-50738000D01*
X146062574Y-50738000D01*
X145950622Y-50749026D01*
X145806985Y-50792598D01*
X145764552Y-50815279D01*
X145674607Y-50863355D01*
X145620936Y-50907402D01*
X145558578Y-50958578D01*
X145534721Y-50987648D01*
X140784370Y-55738000D01*
X135287422Y-55738000D01*
X135249999Y-55734314D01*
X135212576Y-55738000D01*
X135212574Y-55738000D01*
X135100622Y-55749026D01*
X134956985Y-55792598D01*
X134824608Y-55863355D01*
X134708578Y-55958578D01*
X134684721Y-55987648D01*
X131234370Y-59438000D01*
X129457544Y-59438000D01*
X129404494Y-59394463D01*
X129294180Y-59335498D01*
X129174482Y-59299188D01*
X129050000Y-59286928D01*
X127713072Y-59286928D01*
X127713072Y-57950000D01*
X127700812Y-57825518D01*
X127664502Y-57705820D01*
X127605537Y-57595506D01*
X127562000Y-57542456D01*
X127562000Y-57265630D01*
X130065631Y-54762000D01*
X132562575Y-54762000D01*
X132600000Y-54765686D01*
X132637426Y-54762000D01*
X134175421Y-54762000D01*
X134178992Y-54798254D01*
X134229528Y-54964850D01*
X134311595Y-55118386D01*
X134422038Y-55252962D01*
X134556614Y-55363405D01*
X134710150Y-55445472D01*
X134876746Y-55496008D01*
X135050000Y-55513072D01*
X135975000Y-55513072D01*
X136148254Y-55496008D01*
X136314850Y-55445472D01*
X136468386Y-55363405D01*
X136602962Y-55252962D01*
X136713405Y-55118386D01*
X136795472Y-54964850D01*
X136846008Y-54798254D01*
X136863072Y-54625000D01*
X136863072Y-54285750D01*
X137140000Y-54285750D01*
X137140000Y-54937542D01*
X137164403Y-55060223D01*
X137212270Y-55175785D01*
X137281763Y-55279789D01*
X137370211Y-55368237D01*
X137474215Y-55437730D01*
X137589777Y-55485597D01*
X137712458Y-55510000D01*
X138201750Y-55510000D01*
X138360500Y-55351250D01*
X138360500Y-54127000D01*
X138614500Y-54127000D01*
X138614500Y-55351250D01*
X138773250Y-55510000D01*
X139262542Y-55510000D01*
X139385223Y-55485597D01*
X139500785Y-55437730D01*
X139604789Y-55368237D01*
X139693237Y-55279789D01*
X139762730Y-55175785D01*
X139810597Y-55060223D01*
X139835000Y-54937542D01*
X139835000Y-54285750D01*
X139676250Y-54127000D01*
X138614500Y-54127000D01*
X138360500Y-54127000D01*
X137298750Y-54127000D01*
X137140000Y-54285750D01*
X136863072Y-54285750D01*
X136863072Y-53375000D01*
X136861792Y-53362000D01*
X137140000Y-53362000D01*
X137140000Y-53714250D01*
X137298750Y-53873000D01*
X138360500Y-53873000D01*
X138360500Y-53853000D01*
X138614500Y-53853000D01*
X138614500Y-53873000D01*
X139676250Y-53873000D01*
X139835000Y-53714250D01*
X139835000Y-53362000D01*
X141362577Y-53362000D01*
X141400000Y-53365686D01*
X141437423Y-53362000D01*
X141437426Y-53362000D01*
X141549378Y-53350974D01*
X141693015Y-53307402D01*
X141825392Y-53236645D01*
X141941422Y-53141422D01*
X141965284Y-53112346D01*
X145391352Y-49686279D01*
X145420422Y-49662422D01*
X145460690Y-49613355D01*
X145515645Y-49546393D01*
X145567688Y-49449026D01*
X145586402Y-49414015D01*
X145629974Y-49270378D01*
X145641000Y-49158426D01*
X145641000Y-49158423D01*
X145644686Y-49121000D01*
X145641000Y-49083577D01*
X145641000Y-47237422D01*
X145644686Y-47199999D01*
X145639700Y-47149378D01*
X145629974Y-47050622D01*
X145586402Y-46906985D01*
X145515645Y-46774608D01*
X145420422Y-46658578D01*
X145391353Y-46634722D01*
X144244284Y-45487654D01*
X144220422Y-45458578D01*
X144104392Y-45363355D01*
X144063072Y-45341269D01*
X144063072Y-44800000D01*
X144050812Y-44675518D01*
X144014502Y-44555820D01*
X143955537Y-44445506D01*
X143876185Y-44348815D01*
X143779494Y-44269463D01*
X143669180Y-44210498D01*
X143549482Y-44174188D01*
X143425000Y-44161928D01*
X140100000Y-44161928D01*
X139975518Y-44174188D01*
X139855820Y-44210498D01*
X139745506Y-44269463D01*
X139648815Y-44348815D01*
X139569463Y-44445506D01*
X139510498Y-44555820D01*
X139474188Y-44675518D01*
X139461928Y-44800000D01*
X139461928Y-47200000D01*
X139474188Y-47324482D01*
X139510498Y-47444180D01*
X139569463Y-47554494D01*
X139648815Y-47651185D01*
X139745506Y-47730537D01*
X139855820Y-47789502D01*
X139975518Y-47825812D01*
X140100000Y-47838072D01*
X143425000Y-47838072D01*
X143549482Y-47825812D01*
X143669180Y-47789502D01*
X143779494Y-47730537D01*
X143876185Y-47651185D01*
X143955537Y-47554494D01*
X144014502Y-47444180D01*
X144021728Y-47420359D01*
X144117000Y-47515631D01*
X144117001Y-48805368D01*
X141084370Y-51838000D01*
X133237422Y-51838000D01*
X133199999Y-51834314D01*
X133162576Y-51838000D01*
X133162574Y-51838000D01*
X133050622Y-51849026D01*
X132906985Y-51892598D01*
X132774608Y-51963355D01*
X132658578Y-52058578D01*
X132634720Y-52087649D01*
X132087653Y-52634717D01*
X132058578Y-52658578D01*
X132018510Y-52707402D01*
X131963355Y-52774608D01*
X131953739Y-52792599D01*
X131892598Y-52906986D01*
X131849026Y-53050623D01*
X131838000Y-53162574D01*
X131834314Y-53200000D01*
X131838000Y-53237423D01*
X131838000Y-53238000D01*
X130262000Y-53238000D01*
X130262000Y-50565630D01*
X131065631Y-49762000D01*
X131934370Y-49762000D01*
X132884721Y-50712352D01*
X132908578Y-50741422D01*
X133024608Y-50836645D01*
X133156985Y-50907402D01*
X133300622Y-50950974D01*
X133412574Y-50962000D01*
X133412576Y-50962000D01*
X133449999Y-50965686D01*
X133487422Y-50962000D01*
X134175421Y-50962000D01*
X134178992Y-50998254D01*
X134229528Y-51164850D01*
X134311595Y-51318386D01*
X134422038Y-51452962D01*
X134556614Y-51563405D01*
X134710150Y-51645472D01*
X134876746Y-51696008D01*
X135050000Y-51713072D01*
X135975000Y-51713072D01*
X136148254Y-51696008D01*
X136314850Y-51645472D01*
X136468386Y-51563405D01*
X136602962Y-51452962D01*
X136713405Y-51318386D01*
X136795472Y-51164850D01*
X136846008Y-50998254D01*
X136863072Y-50825000D01*
X136863072Y-50485750D01*
X137140000Y-50485750D01*
X137140000Y-51137542D01*
X137164403Y-51260223D01*
X137212270Y-51375785D01*
X137281763Y-51479789D01*
X137370211Y-51568237D01*
X137474215Y-51637730D01*
X137589777Y-51685597D01*
X137712458Y-51710000D01*
X138201750Y-51710000D01*
X138360500Y-51551250D01*
X138360500Y-50327000D01*
X138614500Y-50327000D01*
X138614500Y-51551250D01*
X138773250Y-51710000D01*
X139262542Y-51710000D01*
X139385223Y-51685597D01*
X139500785Y-51637730D01*
X139604789Y-51568237D01*
X139693237Y-51479789D01*
X139762730Y-51375785D01*
X139810597Y-51260223D01*
X139835000Y-51137542D01*
X139835000Y-50485750D01*
X139676250Y-50327000D01*
X138614500Y-50327000D01*
X138360500Y-50327000D01*
X137298750Y-50327000D01*
X137140000Y-50485750D01*
X136863072Y-50485750D01*
X136863072Y-49575000D01*
X136846008Y-49401746D01*
X136803756Y-49262458D01*
X137140000Y-49262458D01*
X137140000Y-49914250D01*
X137298750Y-50073000D01*
X138360500Y-50073000D01*
X138360500Y-48848750D01*
X138614500Y-48848750D01*
X138614500Y-50073000D01*
X139676250Y-50073000D01*
X139835000Y-49914250D01*
X139835000Y-49262458D01*
X139810597Y-49139777D01*
X139762730Y-49024215D01*
X139693237Y-48920211D01*
X139604789Y-48831763D01*
X139500785Y-48762270D01*
X139385223Y-48714403D01*
X139262542Y-48690000D01*
X138773250Y-48690000D01*
X138614500Y-48848750D01*
X138360500Y-48848750D01*
X138201750Y-48690000D01*
X137712458Y-48690000D01*
X137589777Y-48714403D01*
X137474215Y-48762270D01*
X137370211Y-48831763D01*
X137281763Y-48920211D01*
X137212270Y-49024215D01*
X137164403Y-49139777D01*
X137140000Y-49262458D01*
X136803756Y-49262458D01*
X136795472Y-49235150D01*
X136713405Y-49081614D01*
X136602962Y-48947038D01*
X136468386Y-48836595D01*
X136314850Y-48754528D01*
X136148254Y-48703992D01*
X135975000Y-48686928D01*
X135050000Y-48686928D01*
X134876746Y-48703992D01*
X134710150Y-48754528D01*
X134556614Y-48836595D01*
X134422038Y-48947038D01*
X134311595Y-49081614D01*
X134229528Y-49235150D01*
X134178992Y-49401746D01*
X134175421Y-49438000D01*
X133765631Y-49438000D01*
X133012000Y-48684370D01*
X133012000Y-47315630D01*
X133565630Y-46762000D01*
X133936928Y-46762000D01*
X133936928Y-47200000D01*
X133949188Y-47324482D01*
X133985498Y-47444180D01*
X134044463Y-47554494D01*
X134123815Y-47651185D01*
X134220506Y-47730537D01*
X134330820Y-47789502D01*
X134450518Y-47825812D01*
X134575000Y-47838072D01*
X137900000Y-47838072D01*
X138024482Y-47825812D01*
X138144180Y-47789502D01*
X138254494Y-47730537D01*
X138351185Y-47651185D01*
X138430537Y-47554494D01*
X138489502Y-47444180D01*
X138525812Y-47324482D01*
X138538072Y-47200000D01*
X138538072Y-44800000D01*
X138525812Y-44675518D01*
X138489502Y-44555820D01*
X138430537Y-44445506D01*
X138351185Y-44348815D01*
X138254494Y-44269463D01*
X138144180Y-44210498D01*
X138024482Y-44174188D01*
X137900000Y-44161928D01*
X134575000Y-44161928D01*
X134450518Y-44174188D01*
X134330820Y-44210498D01*
X134220506Y-44269463D01*
X134123815Y-44348815D01*
X134044463Y-44445506D01*
X133985498Y-44555820D01*
X133949188Y-44675518D01*
X133936928Y-44800000D01*
X133936928Y-45238000D01*
X133287423Y-45238000D01*
X133250000Y-45234314D01*
X133212577Y-45238000D01*
X133212574Y-45238000D01*
X133100622Y-45249026D01*
X132956985Y-45292598D01*
X132895364Y-45325535D01*
X132824607Y-45363355D01*
X132782219Y-45398143D01*
X132708578Y-45458578D01*
X132684716Y-45487654D01*
X131744172Y-46428198D01*
X131707402Y-46306985D01*
X131668559Y-46234314D01*
X131636645Y-46174607D01*
X131565279Y-46087648D01*
X131541422Y-46058578D01*
X131512352Y-46034721D01*
X128765284Y-43287654D01*
X128741422Y-43258578D01*
X128625392Y-43163355D01*
X128493015Y-43092598D01*
X128349378Y-43049026D01*
X128237426Y-43038000D01*
X128237423Y-43038000D01*
X128200000Y-43034314D01*
X128162577Y-43038000D01*
X104637423Y-43038000D01*
X104600000Y-43034314D01*
X104562577Y-43038000D01*
X104562574Y-43038000D01*
X104450622Y-43049026D01*
X104306985Y-43092598D01*
X104245364Y-43125535D01*
X104174607Y-43163355D01*
X104091904Y-43231228D01*
X104058578Y-43258578D01*
X104034721Y-43287648D01*
X102457370Y-44865000D01*
X102288212Y-44865000D01*
X102068933Y-44908617D01*
X101862376Y-44994176D01*
X101676480Y-45118388D01*
X101518388Y-45276480D01*
X101394176Y-45462376D01*
X101308617Y-45668933D01*
X101265000Y-45888212D01*
X101265000Y-46057369D01*
X93164370Y-54158000D01*
X91179977Y-54158000D01*
X91130537Y-54065506D01*
X91051185Y-53968815D01*
X90954494Y-53889463D01*
X90844180Y-53830498D01*
X90724482Y-53794188D01*
X90600000Y-53781928D01*
X88700000Y-53781928D01*
X88575518Y-53794188D01*
X88455820Y-53830498D01*
X88345506Y-53889463D01*
X88248815Y-53968815D01*
X88169463Y-54065506D01*
X88110498Y-54175820D01*
X88074188Y-54295518D01*
X88061928Y-54420000D01*
X88061928Y-55420000D01*
X88074188Y-55544482D01*
X88110498Y-55664180D01*
X88169463Y-55774494D01*
X88248815Y-55871185D01*
X88345506Y-55950537D01*
X88455820Y-56009502D01*
X88575518Y-56045812D01*
X88700000Y-56058072D01*
X90600000Y-56058072D01*
X90724482Y-56045812D01*
X90844180Y-56009502D01*
X90954494Y-55950537D01*
X91051185Y-55871185D01*
X91130537Y-55774494D01*
X91179977Y-55682000D01*
X93442577Y-55682000D01*
X93480000Y-55685686D01*
X93517423Y-55682000D01*
X93517426Y-55682000D01*
X93629378Y-55670974D01*
X93773015Y-55627402D01*
X93905392Y-55556645D01*
X94021422Y-55461422D01*
X94045284Y-55432346D01*
X102342631Y-47135000D01*
X102511788Y-47135000D01*
X102731067Y-47091383D01*
X102937624Y-47005824D01*
X103123520Y-46881612D01*
X103281612Y-46723520D01*
X103405824Y-46537624D01*
X103491383Y-46331067D01*
X103535000Y-46111788D01*
X103535000Y-45942630D01*
X104915631Y-44562000D01*
X127884370Y-44562000D01*
X130238001Y-46915632D01*
X130238000Y-47684369D01*
X127687649Y-50234721D01*
X127658579Y-50258578D01*
X127634722Y-50287648D01*
X127634721Y-50287649D01*
X127563355Y-50374608D01*
X127492599Y-50506985D01*
X127449027Y-50650622D01*
X127434314Y-50800000D01*
X127438001Y-50837433D01*
X127438001Y-51238000D01*
X127324579Y-51238000D01*
X127321008Y-51201746D01*
X127270472Y-51035150D01*
X127188405Y-50881614D01*
X127077962Y-50747038D01*
X126943386Y-50636595D01*
X126789850Y-50554528D01*
X126623254Y-50503992D01*
X126450000Y-50486928D01*
X125525000Y-50486928D01*
X125351746Y-50503992D01*
X125185150Y-50554528D01*
X125031614Y-50636595D01*
X124897038Y-50747038D01*
X124786595Y-50881614D01*
X124704528Y-51035150D01*
X124653992Y-51201746D01*
X124636928Y-51375000D01*
X124636928Y-52625000D01*
X124653992Y-52798254D01*
X124704528Y-52964850D01*
X124786595Y-53118386D01*
X124897038Y-53252962D01*
X125031614Y-53363405D01*
X125185150Y-53445472D01*
X125351746Y-53496008D01*
X125525000Y-53513072D01*
X126450000Y-53513072D01*
X126623254Y-53496008D01*
X126789850Y-53445472D01*
X126943386Y-53363405D01*
X127077962Y-53252962D01*
X127188405Y-53118386D01*
X127270472Y-52964850D01*
X127321008Y-52798254D01*
X127324579Y-52762000D01*
X127488000Y-52762000D01*
X127488001Y-53462565D01*
X127488000Y-53462575D01*
X127488000Y-53684369D01*
X124687654Y-56484716D01*
X124658578Y-56508578D01*
X124625095Y-56549378D01*
X124563355Y-56624608D01*
X124526791Y-56693015D01*
X124492598Y-56756986D01*
X124449026Y-56900623D01*
X124438022Y-57012352D01*
X124434314Y-57050000D01*
X124438000Y-57087424D01*
X124438000Y-57542455D01*
X124400000Y-57588759D01*
X124326185Y-57498815D01*
X124229494Y-57419463D01*
X124206333Y-57407083D01*
X124114250Y-57315000D01*
X124062458Y-57315000D01*
X124006130Y-57326205D01*
X123999482Y-57324188D01*
X123875000Y-57311928D01*
X123325000Y-57311928D01*
X123200518Y-57324188D01*
X123193870Y-57326205D01*
X123137542Y-57315000D01*
X123085750Y-57315000D01*
X122993667Y-57407083D01*
X122970506Y-57419463D01*
X122873815Y-57498815D01*
X122800000Y-57588759D01*
X122762000Y-57542456D01*
X122762000Y-55787422D01*
X122765686Y-55749999D01*
X122761978Y-55712351D01*
X122750974Y-55600622D01*
X122707402Y-55456985D01*
X122636645Y-55324608D01*
X122541422Y-55208578D01*
X122512353Y-55184722D01*
X120762000Y-53434370D01*
X120762000Y-52285750D01*
X121665000Y-52285750D01*
X121665000Y-52937542D01*
X121689403Y-53060223D01*
X121737270Y-53175785D01*
X121806763Y-53279789D01*
X121895211Y-53368237D01*
X121999215Y-53437730D01*
X122114777Y-53485597D01*
X122237458Y-53510000D01*
X122726750Y-53510000D01*
X122885500Y-53351250D01*
X122885500Y-52127000D01*
X123139500Y-52127000D01*
X123139500Y-53351250D01*
X123298250Y-53510000D01*
X123787542Y-53510000D01*
X123910223Y-53485597D01*
X124025785Y-53437730D01*
X124129789Y-53368237D01*
X124218237Y-53279789D01*
X124287730Y-53175785D01*
X124335597Y-53060223D01*
X124360000Y-52937542D01*
X124360000Y-52285750D01*
X124201250Y-52127000D01*
X123139500Y-52127000D01*
X122885500Y-52127000D01*
X121823750Y-52127000D01*
X121665000Y-52285750D01*
X120762000Y-52285750D01*
X120762000Y-51062458D01*
X121665000Y-51062458D01*
X121665000Y-51714250D01*
X121823750Y-51873000D01*
X122885500Y-51873000D01*
X122885500Y-50648750D01*
X123139500Y-50648750D01*
X123139500Y-51873000D01*
X124201250Y-51873000D01*
X124360000Y-51714250D01*
X124360000Y-51062458D01*
X124335597Y-50939777D01*
X124287730Y-50824215D01*
X124218237Y-50720211D01*
X124129789Y-50631763D01*
X124025785Y-50562270D01*
X123910223Y-50514403D01*
X123787542Y-50490000D01*
X123298250Y-50490000D01*
X123139500Y-50648750D01*
X122885500Y-50648750D01*
X122726750Y-50490000D01*
X122237458Y-50490000D01*
X122114777Y-50514403D01*
X121999215Y-50562270D01*
X121895211Y-50631763D01*
X121806763Y-50720211D01*
X121737270Y-50824215D01*
X121689403Y-50939777D01*
X121665000Y-51062458D01*
X120762000Y-51062458D01*
X120762000Y-50565630D01*
X121315630Y-50012000D01*
X121962577Y-50012000D01*
X122000000Y-50015686D01*
X122037423Y-50012000D01*
X122037426Y-50012000D01*
X122149378Y-50000974D01*
X122293015Y-49957402D01*
X122425392Y-49886645D01*
X122541422Y-49791422D01*
X122565284Y-49762347D01*
X123262351Y-49065280D01*
X123291422Y-49041422D01*
X123386645Y-48925392D01*
X123457402Y-48793015D01*
X123500974Y-48649378D01*
X123512000Y-48537426D01*
X123512000Y-48537424D01*
X123515686Y-48500001D01*
X123512000Y-48462578D01*
X123512000Y-48037423D01*
X123515686Y-48000000D01*
X123512000Y-47962574D01*
X123500974Y-47850622D01*
X123457402Y-47706985D01*
X123424465Y-47645364D01*
X123386645Y-47574607D01*
X123351857Y-47532219D01*
X123291422Y-47458578D01*
X123262347Y-47434717D01*
X122815284Y-46987654D01*
X122791422Y-46958578D01*
X122675392Y-46863355D01*
X122543015Y-46792598D01*
X122399378Y-46749026D01*
X122287426Y-46738000D01*
X122287423Y-46738000D01*
X122250000Y-46734314D01*
X122212577Y-46738000D01*
X121824579Y-46738000D01*
X121821008Y-46701746D01*
X121770472Y-46535150D01*
X121688405Y-46381614D01*
X121577962Y-46247038D01*
X121443386Y-46136595D01*
X121289850Y-46054528D01*
X121123254Y-46003992D01*
X120950000Y-45986928D01*
X120025000Y-45986928D01*
X119851746Y-46003992D01*
X119685150Y-46054528D01*
X119531614Y-46136595D01*
X119397038Y-46247038D01*
X119286595Y-46381614D01*
X119204528Y-46535150D01*
X119153992Y-46701746D01*
X119136928Y-46875000D01*
X119136928Y-48125000D01*
X119153992Y-48298254D01*
X119204528Y-48464850D01*
X119286595Y-48618386D01*
X119397038Y-48752962D01*
X119531614Y-48863405D01*
X119685150Y-48945472D01*
X119851746Y-48996008D01*
X120025000Y-49013072D01*
X120159298Y-49013072D01*
X119487654Y-49684716D01*
X119458578Y-49708578D01*
X119414736Y-49762000D01*
X119363355Y-49824608D01*
X119338038Y-49871974D01*
X119292598Y-49956986D01*
X119249026Y-50100623D01*
X119238394Y-50208579D01*
X119234314Y-50250000D01*
X119238000Y-50287423D01*
X119238001Y-53160370D01*
X116512000Y-50434370D01*
X116512000Y-48826791D01*
X116556614Y-48863405D01*
X116710150Y-48945472D01*
X116876746Y-48996008D01*
X117050000Y-49013072D01*
X117975000Y-49013072D01*
X118148254Y-48996008D01*
X118314850Y-48945472D01*
X118468386Y-48863405D01*
X118602962Y-48752962D01*
X118713405Y-48618386D01*
X118795472Y-48464850D01*
X118846008Y-48298254D01*
X118863072Y-48125000D01*
X118863072Y-46875000D01*
X118846008Y-46701746D01*
X118795472Y-46535150D01*
X118713405Y-46381614D01*
X118602962Y-46247038D01*
X118468386Y-46136595D01*
X118314850Y-46054528D01*
X118148254Y-46003992D01*
X117975000Y-45986928D01*
X117050000Y-45986928D01*
X116876746Y-46003992D01*
X116710150Y-46054528D01*
X116556614Y-46136595D01*
X116422038Y-46247038D01*
X116311595Y-46381614D01*
X116229528Y-46535150D01*
X116178992Y-46701746D01*
X116175421Y-46738000D01*
X115787425Y-46738000D01*
X115750000Y-46734314D01*
X115712574Y-46738000D01*
X113215631Y-46738000D01*
X113135000Y-46657369D01*
X113135000Y-46488212D01*
X113091383Y-46268933D01*
X113005824Y-46062376D01*
X112881612Y-45876480D01*
X112723520Y-45718388D01*
X112537624Y-45594176D01*
X112331067Y-45508617D01*
X112111788Y-45465000D01*
X111888212Y-45465000D01*
X111668933Y-45508617D01*
X111462376Y-45594176D01*
X111276480Y-45718388D01*
X111118388Y-45876480D01*
X110994176Y-46062376D01*
X110908617Y-46268933D01*
X110865000Y-46488212D01*
X110865000Y-46711788D01*
X110908617Y-46931067D01*
X110994176Y-47137624D01*
X111118388Y-47323520D01*
X111276480Y-47481612D01*
X111462376Y-47605824D01*
X111668933Y-47691383D01*
X111888212Y-47735000D01*
X112057369Y-47735000D01*
X112334721Y-48012351D01*
X112358578Y-48041422D01*
X112474608Y-48136645D01*
X112606985Y-48207402D01*
X112750622Y-48250974D01*
X112862574Y-48262000D01*
X112862576Y-48262000D01*
X112899999Y-48265686D01*
X112937422Y-48262000D01*
X114988000Y-48262000D01*
X114988001Y-50712567D01*
X114984314Y-50750000D01*
X114999027Y-50899378D01*
X115042599Y-51043015D01*
X115113355Y-51175392D01*
X115173786Y-51249027D01*
X115208579Y-51291422D01*
X115237649Y-51315279D01*
X120438000Y-56515631D01*
X120438001Y-57542455D01*
X120394463Y-57595506D01*
X120335498Y-57705820D01*
X120299188Y-57825518D01*
X120286928Y-57950000D01*
X120286928Y-59286928D01*
X118950000Y-59286928D01*
X118825518Y-59299188D01*
X118705820Y-59335498D01*
X118595506Y-59394463D01*
X118498815Y-59473815D01*
X118419463Y-59570506D01*
X118360498Y-59680820D01*
X118324188Y-59800518D01*
X118311928Y-59925000D01*
X118311928Y-60238000D01*
X118115630Y-60238000D01*
X112365285Y-54487655D01*
X112341422Y-54458578D01*
X112225392Y-54363355D01*
X112093015Y-54292598D01*
X111949378Y-54249026D01*
X111837426Y-54238000D01*
X111837423Y-54238000D01*
X111800000Y-54234314D01*
X111762577Y-54238000D01*
X110843132Y-54238000D01*
X110723520Y-54118388D01*
X110537624Y-53994176D01*
X110331067Y-53908617D01*
X110111788Y-53865000D01*
X109888212Y-53865000D01*
X109668933Y-53908617D01*
X109462376Y-53994176D01*
X109276480Y-54118388D01*
X109118388Y-54276480D01*
X108994176Y-54462376D01*
X108908617Y-54668933D01*
X108865000Y-54888212D01*
X108865000Y-55111788D01*
X108908617Y-55331067D01*
X108952910Y-55438000D01*
X108243132Y-55438000D01*
X108123520Y-55318388D01*
X107937624Y-55194176D01*
X107731067Y-55108617D01*
X107511788Y-55065000D01*
X107288212Y-55065000D01*
X107068933Y-55108617D01*
X106862376Y-55194176D01*
X106676480Y-55318388D01*
X106518388Y-55476480D01*
X106394176Y-55662376D01*
X106308617Y-55868933D01*
X106265000Y-56088212D01*
X106265000Y-56311788D01*
X106308617Y-56531067D01*
X106394176Y-56737624D01*
X106461245Y-56838000D01*
X106443132Y-56838000D01*
X106323520Y-56718388D01*
X106137624Y-56594176D01*
X105931067Y-56508617D01*
X105711788Y-56465000D01*
X105488212Y-56465000D01*
X105268933Y-56508617D01*
X105062376Y-56594176D01*
X104876480Y-56718388D01*
X104718388Y-56876480D01*
X104594176Y-57062376D01*
X104508617Y-57268933D01*
X104465000Y-57488212D01*
X104465000Y-57711788D01*
X104490105Y-57838000D01*
X89915631Y-57838000D01*
X87365284Y-55287654D01*
X87341422Y-55258578D01*
X87225392Y-55163355D01*
X87093015Y-55092598D01*
X86949378Y-55049026D01*
X86837426Y-55038000D01*
X86837423Y-55038000D01*
X86800000Y-55034314D01*
X86762577Y-55038000D01*
X84837422Y-55038000D01*
X84799999Y-55034314D01*
X84762576Y-55038000D01*
X84762574Y-55038000D01*
X84650622Y-55049026D01*
X84506985Y-55092598D01*
X84374608Y-55163355D01*
X84258578Y-55258578D01*
X84234720Y-55287649D01*
X83687653Y-55834717D01*
X83658578Y-55858578D01*
X83602983Y-55926322D01*
X83563355Y-55974608D01*
X83526791Y-56043015D01*
X83492598Y-56106986D01*
X83449026Y-56250623D01*
X83439968Y-56342598D01*
X83434314Y-56400000D01*
X83438000Y-56437423D01*
X83438001Y-59598567D01*
X83434314Y-59636000D01*
X83449027Y-59785378D01*
X83492599Y-59929015D01*
X83563355Y-60061392D01*
X83634721Y-60148351D01*
X83658579Y-60177422D01*
X83687649Y-60201279D01*
X85018223Y-61531854D01*
X84948815Y-61588815D01*
X84869463Y-61685506D01*
X84810498Y-61795820D01*
X84774188Y-61915518D01*
X84761928Y-62040000D01*
X84761928Y-63040000D01*
X84774188Y-63164482D01*
X84810498Y-63284180D01*
X84869463Y-63394494D01*
X84948815Y-63491185D01*
X85045506Y-63570537D01*
X85155820Y-63629502D01*
X85275518Y-63665812D01*
X85400000Y-63678072D01*
X87300000Y-63678072D01*
X87424482Y-63665812D01*
X87544180Y-63629502D01*
X87654494Y-63570537D01*
X87751185Y-63491185D01*
X87830537Y-63394494D01*
X87889502Y-63284180D01*
X87925812Y-63164482D01*
X87938072Y-63040000D01*
X87938072Y-62040000D01*
X87935418Y-62013048D01*
X89901560Y-63979190D01*
X89777000Y-64103750D01*
X89777000Y-64953000D01*
X89797000Y-64953000D01*
X89797000Y-65207000D01*
X89777000Y-65207000D01*
X89777000Y-66056250D01*
X89935750Y-66215000D01*
X90662542Y-66215000D01*
X90785223Y-66190597D01*
X90900785Y-66142730D01*
X91004789Y-66073237D01*
X91093237Y-65984789D01*
X91162730Y-65880785D01*
X91210597Y-65765223D01*
X91235000Y-65642542D01*
X91235000Y-65365750D01*
X91076252Y-65207002D01*
X91129371Y-65207002D01*
X92484721Y-66562352D01*
X92508578Y-66591422D01*
X92537648Y-66615279D01*
X92624607Y-66686645D01*
X92674049Y-66713072D01*
X92756985Y-66757402D01*
X92900622Y-66800974D01*
X93012574Y-66812000D01*
X93012577Y-66812000D01*
X93050000Y-66815686D01*
X93087423Y-66812000D01*
X94025623Y-66812000D01*
X94098815Y-66901185D01*
X94195506Y-66980537D01*
X94231918Y-67000000D01*
X94195506Y-67019463D01*
X94098815Y-67098815D01*
X94019463Y-67195506D01*
X93960498Y-67305820D01*
X93924188Y-67425518D01*
X93911928Y-67550000D01*
X93911928Y-68350000D01*
X93924188Y-68474482D01*
X93960498Y-68594180D01*
X94019463Y-68704494D01*
X94098815Y-68801185D01*
X94195506Y-68880537D01*
X94305820Y-68939502D01*
X94425518Y-68975812D01*
X94550000Y-68988072D01*
X96450000Y-68988072D01*
X96574482Y-68975812D01*
X96694180Y-68939502D01*
X96804494Y-68880537D01*
X96901185Y-68801185D01*
X96956344Y-68733974D01*
X96972370Y-68750000D01*
X94084370Y-71638000D01*
X90837422Y-71638000D01*
X90799999Y-71634314D01*
X90762576Y-71638000D01*
X90762574Y-71638000D01*
X90650622Y-71649026D01*
X90506985Y-71692598D01*
X90374608Y-71763355D01*
X90258578Y-71858578D01*
X90234721Y-71887648D01*
X88487654Y-73634716D01*
X88458578Y-73658578D01*
X88406682Y-73721814D01*
X88363355Y-73774608D01*
X88360421Y-73780098D01*
X88292598Y-73906986D01*
X88249026Y-74050623D01*
X88242352Y-74118388D01*
X88234314Y-74200000D01*
X88238000Y-74237423D01*
X88238000Y-74377885D01*
X88224180Y-74370498D01*
X88104482Y-74334188D01*
X87980000Y-74321928D01*
X84980000Y-74321928D01*
X84855518Y-74334188D01*
X84735820Y-74370498D01*
X84625506Y-74429463D01*
X84528815Y-74508815D01*
X84449463Y-74605506D01*
X84400023Y-74698000D01*
X84177422Y-74698000D01*
X84139999Y-74694314D01*
X84102576Y-74698000D01*
X84102574Y-74698000D01*
X83990622Y-74709026D01*
X83846985Y-74752598D01*
X83714608Y-74823355D01*
X83598578Y-74918578D01*
X83574720Y-74947649D01*
X83087649Y-75434721D01*
X83058579Y-75458578D01*
X83034722Y-75487648D01*
X83034721Y-75487649D01*
X82963355Y-75574608D01*
X82892599Y-75706985D01*
X82849027Y-75850622D01*
X82834314Y-76000000D01*
X82627000Y-76000000D01*
X82627000Y-65365750D01*
X88065000Y-65365750D01*
X88065000Y-65642542D01*
X88089403Y-65765223D01*
X88137270Y-65880785D01*
X88206763Y-65984789D01*
X88295211Y-66073237D01*
X88399215Y-66142730D01*
X88514777Y-66190597D01*
X88637458Y-66215000D01*
X89364250Y-66215000D01*
X89523000Y-66056250D01*
X89523000Y-65207000D01*
X88223750Y-65207000D01*
X88065000Y-65365750D01*
X82627000Y-65365750D01*
X82627000Y-64517458D01*
X88065000Y-64517458D01*
X88065000Y-64794250D01*
X88223750Y-64953000D01*
X89523000Y-64953000D01*
X89523000Y-64103750D01*
X89364250Y-63945000D01*
X88637458Y-63945000D01*
X88514777Y-63969403D01*
X88399215Y-64017270D01*
X88295211Y-64086763D01*
X88206763Y-64175211D01*
X88137270Y-64279215D01*
X88089403Y-64394777D01*
X88065000Y-64517458D01*
X82627000Y-64517458D01*
X82627000Y-32627000D01*
X177373000Y-32627000D01*
X177373000Y-127373000D01*
G36*
X129838000Y-66715631D02*
X129838000Y-66884369D01*
X128687654Y-68034716D01*
X128658578Y-68058578D01*
X128602983Y-68126322D01*
X128563355Y-68174608D01*
X128531224Y-68234721D01*
X128492598Y-68306986D01*
X128449026Y-68450623D01*
X128439905Y-68543237D01*
X128434314Y-68600000D01*
X128438000Y-68637423D01*
X128438001Y-76084369D01*
X117484370Y-87038000D01*
X87315631Y-87038000D01*
X86439631Y-86162000D01*
X113762577Y-86162000D01*
X113800000Y-86165686D01*
X113837423Y-86162000D01*
X113837426Y-86162000D01*
X113949378Y-86150974D01*
X114093015Y-86107402D01*
X114225392Y-86036645D01*
X114341422Y-85941422D01*
X114365284Y-85912346D01*
X127312352Y-72965279D01*
X127341422Y-72941422D01*
X127436645Y-72825392D01*
X127507402Y-72693015D01*
X127550974Y-72549378D01*
X127562000Y-72437426D01*
X127562000Y-72437424D01*
X127565686Y-72400001D01*
X127562000Y-72362578D01*
X127562000Y-68457544D01*
X127605537Y-68404494D01*
X127664502Y-68294180D01*
X127700812Y-68174482D01*
X127713072Y-68050000D01*
X127713072Y-66713072D01*
X129050000Y-66713072D01*
X129174482Y-66700812D01*
X129294180Y-66664502D01*
X129404494Y-66605537D01*
X129457544Y-66562000D01*
X129684370Y-66562000D01*
X129838000Y-66715631D01*
X129838000Y-66715631D01*
G37*
X129838000Y-66715631D02*
X129838000Y-66884369D01*
X128687654Y-68034716D01*
X128658578Y-68058578D01*
X128602983Y-68126322D01*
X128563355Y-68174608D01*
X128531224Y-68234721D01*
X128492598Y-68306986D01*
X128449026Y-68450623D01*
X128439905Y-68543237D01*
X128434314Y-68600000D01*
X128438000Y-68637423D01*
X128438001Y-76084369D01*
X117484370Y-87038000D01*
X87315631Y-87038000D01*
X86439631Y-86162000D01*
X113762577Y-86162000D01*
X113800000Y-86165686D01*
X113837423Y-86162000D01*
X113837426Y-86162000D01*
X113949378Y-86150974D01*
X114093015Y-86107402D01*
X114225392Y-86036645D01*
X114341422Y-85941422D01*
X114365284Y-85912346D01*
X127312352Y-72965279D01*
X127341422Y-72941422D01*
X127436645Y-72825392D01*
X127507402Y-72693015D01*
X127550974Y-72549378D01*
X127562000Y-72437426D01*
X127562000Y-72437424D01*
X127565686Y-72400001D01*
X127562000Y-72362578D01*
X127562000Y-68457544D01*
X127605537Y-68404494D01*
X127664502Y-68294180D01*
X127700812Y-68174482D01*
X127713072Y-68050000D01*
X127713072Y-66713072D01*
X129050000Y-66713072D01*
X129174482Y-66700812D01*
X129294180Y-66664502D01*
X129404494Y-66605537D01*
X129457544Y-66562000D01*
X129684370Y-66562000D01*
X129838000Y-66715631D01*
G36*
X118595506Y-66605537D02*
X118705820Y-66664502D01*
X118825518Y-66700812D01*
X118950000Y-66713072D01*
X120286928Y-66713072D01*
X120286928Y-68050000D01*
X120299188Y-68174482D01*
X120335498Y-68294180D01*
X120394463Y-68404494D01*
X120473815Y-68501185D01*
X120570506Y-68580537D01*
X120680820Y-68639502D01*
X120800518Y-68675812D01*
X120925000Y-68688072D01*
X121475000Y-68688072D01*
X121599482Y-68675812D01*
X121600000Y-68675655D01*
X121600518Y-68675812D01*
X121725000Y-68688072D01*
X122275000Y-68688072D01*
X122399482Y-68675812D01*
X122400000Y-68675655D01*
X122400518Y-68675812D01*
X122525000Y-68688072D01*
X123075000Y-68688072D01*
X123199482Y-68675812D01*
X123206130Y-68673795D01*
X123262458Y-68685000D01*
X123314250Y-68685000D01*
X123406333Y-68592917D01*
X123429494Y-68580537D01*
X123526185Y-68501185D01*
X123600000Y-68411241D01*
X123673815Y-68501185D01*
X123770506Y-68580537D01*
X123793667Y-68592917D01*
X123885750Y-68685000D01*
X123937542Y-68685000D01*
X123993870Y-68673795D01*
X124000518Y-68675812D01*
X124125000Y-68688072D01*
X124675000Y-68688072D01*
X124799482Y-68675812D01*
X124800000Y-68675655D01*
X124800518Y-68675812D01*
X124925000Y-68688072D01*
X125475000Y-68688072D01*
X125599482Y-68675812D01*
X125600000Y-68675655D01*
X125600518Y-68675812D01*
X125725000Y-68688072D01*
X126038000Y-68688072D01*
X126038001Y-72084368D01*
X113484370Y-84638000D01*
X86315631Y-84638000D01*
X84962000Y-83284370D01*
X84962000Y-81676299D01*
X84980000Y-81678072D01*
X87980000Y-81678072D01*
X88104482Y-81665812D01*
X88224180Y-81629502D01*
X88334494Y-81570537D01*
X88431185Y-81491185D01*
X88510537Y-81394494D01*
X88569502Y-81284180D01*
X88586008Y-81229767D01*
X88685392Y-81176645D01*
X88801422Y-81081422D01*
X88825284Y-81052347D01*
X89051880Y-80825750D01*
X89385000Y-80825750D01*
X89385000Y-81102542D01*
X89409403Y-81225223D01*
X89457270Y-81340785D01*
X89526763Y-81444789D01*
X89615211Y-81533237D01*
X89719215Y-81602730D01*
X89834777Y-81650597D01*
X89957458Y-81675000D01*
X91234250Y-81675000D01*
X91393000Y-81516250D01*
X91393000Y-80667000D01*
X91647000Y-80667000D01*
X91647000Y-81516250D01*
X91805750Y-81675000D01*
X93082542Y-81675000D01*
X93205223Y-81650597D01*
X93320785Y-81602730D01*
X93424789Y-81533237D01*
X93513237Y-81444789D01*
X93582730Y-81340785D01*
X93630597Y-81225223D01*
X93655000Y-81102542D01*
X93655000Y-80825750D01*
X93496250Y-80667000D01*
X91647000Y-80667000D01*
X91393000Y-80667000D01*
X89543750Y-80667000D01*
X89385000Y-80825750D01*
X89051880Y-80825750D01*
X89504190Y-80373440D01*
X89543750Y-80413000D01*
X91393000Y-80413000D01*
X91393000Y-79563750D01*
X91647000Y-79563750D01*
X91647000Y-80413000D01*
X93496250Y-80413000D01*
X93655000Y-80254250D01*
X93655000Y-79977458D01*
X93630597Y-79854777D01*
X93582730Y-79739215D01*
X93513237Y-79635211D01*
X93424789Y-79546763D01*
X93320785Y-79477270D01*
X93205223Y-79429403D01*
X93082542Y-79405000D01*
X91805750Y-79405000D01*
X91647000Y-79563750D01*
X91393000Y-79563750D01*
X91234250Y-79405000D01*
X89957458Y-79405000D01*
X89834777Y-79429403D01*
X89762000Y-79459548D01*
X89762000Y-79082115D01*
X89775820Y-79089502D01*
X89895518Y-79125812D01*
X90020000Y-79138072D01*
X93020000Y-79138072D01*
X93144482Y-79125812D01*
X93264180Y-79089502D01*
X93374494Y-79030537D01*
X93471185Y-78951185D01*
X93550537Y-78854494D01*
X93599977Y-78762000D01*
X105084370Y-78762000D01*
X108834721Y-82512352D01*
X108858578Y-82541422D01*
X108974608Y-82636645D01*
X109106985Y-82707402D01*
X109250622Y-82750974D01*
X109362574Y-82762000D01*
X109362576Y-82762000D01*
X109399999Y-82765686D01*
X109437422Y-82762000D01*
X114362577Y-82762000D01*
X114400000Y-82765686D01*
X114437423Y-82762000D01*
X114437426Y-82762000D01*
X114549378Y-82750974D01*
X114693015Y-82707402D01*
X114825392Y-82636645D01*
X114941422Y-82541422D01*
X114965284Y-82512346D01*
X116512347Y-80965283D01*
X116541422Y-80941422D01*
X116601857Y-80867781D01*
X116636645Y-80825393D01*
X116676423Y-80750973D01*
X116707402Y-80693015D01*
X116750974Y-80549378D01*
X116762000Y-80437426D01*
X116762000Y-80437423D01*
X116765686Y-80400000D01*
X116762000Y-80362577D01*
X116762000Y-77715630D01*
X118715630Y-75762000D01*
X118956868Y-75762000D01*
X119076480Y-75881612D01*
X119262376Y-76005824D01*
X119468933Y-76091383D01*
X119688212Y-76135000D01*
X119911788Y-76135000D01*
X120131067Y-76091383D01*
X120337624Y-76005824D01*
X120523520Y-75881612D01*
X120681612Y-75723520D01*
X120805824Y-75537624D01*
X120891383Y-75331067D01*
X120935000Y-75111788D01*
X120935000Y-74888212D01*
X120891383Y-74668933D01*
X120805824Y-74462376D01*
X120681612Y-74276480D01*
X120523520Y-74118388D01*
X120337624Y-73994176D01*
X120131067Y-73908617D01*
X119911788Y-73865000D01*
X119688212Y-73865000D01*
X119468933Y-73908617D01*
X119262376Y-73994176D01*
X119076480Y-74118388D01*
X118956868Y-74238000D01*
X118437423Y-74238000D01*
X118400000Y-74234314D01*
X118362577Y-74238000D01*
X118362574Y-74238000D01*
X118250622Y-74249026D01*
X118106985Y-74292598D01*
X118045364Y-74325535D01*
X117974607Y-74363355D01*
X117932219Y-74398143D01*
X117858578Y-74458578D01*
X117834716Y-74487654D01*
X115487649Y-76834721D01*
X115458579Y-76858578D01*
X115434722Y-76887648D01*
X115434721Y-76887649D01*
X115363355Y-76974608D01*
X115292599Y-77106985D01*
X115249027Y-77250622D01*
X115234314Y-77400000D01*
X115238001Y-77437433D01*
X115238000Y-80084370D01*
X114084370Y-81238000D01*
X109715631Y-81238000D01*
X105965284Y-77487654D01*
X105941422Y-77458578D01*
X105825392Y-77363355D01*
X105693015Y-77292598D01*
X105549378Y-77249026D01*
X105437426Y-77238000D01*
X105437423Y-77238000D01*
X105400000Y-77234314D01*
X105362577Y-77238000D01*
X93599977Y-77238000D01*
X93550537Y-77145506D01*
X93471185Y-77048815D01*
X93374494Y-76969463D01*
X93264180Y-76910498D01*
X93144482Y-76874188D01*
X93020000Y-76861928D01*
X90020000Y-76861928D01*
X89895518Y-76874188D01*
X89775820Y-76910498D01*
X89762000Y-76917885D01*
X89762000Y-76542115D01*
X89775820Y-76549502D01*
X89895518Y-76585812D01*
X90020000Y-76598072D01*
X93020000Y-76598072D01*
X93144482Y-76585812D01*
X93264180Y-76549502D01*
X93374494Y-76490537D01*
X93471185Y-76411185D01*
X93550537Y-76314494D01*
X93599977Y-76222000D01*
X98102577Y-76222000D01*
X98140000Y-76225686D01*
X98177423Y-76222000D01*
X98177426Y-76222000D01*
X98289378Y-76210974D01*
X98433015Y-76167402D01*
X98565392Y-76096645D01*
X98594844Y-76072474D01*
X99234720Y-76712351D01*
X99258578Y-76741422D01*
X99374608Y-76836645D01*
X99506985Y-76907402D01*
X99650622Y-76950974D01*
X99762574Y-76962000D01*
X99762576Y-76962000D01*
X99799999Y-76965686D01*
X99837422Y-76962000D01*
X106284370Y-76962000D01*
X108634721Y-79312352D01*
X108658578Y-79341422D01*
X108774608Y-79436645D01*
X108906985Y-79507402D01*
X109050622Y-79550974D01*
X109162574Y-79562000D01*
X109162576Y-79562000D01*
X109199999Y-79565686D01*
X109237422Y-79562000D01*
X113156868Y-79562000D01*
X113276480Y-79681612D01*
X113462376Y-79805824D01*
X113668933Y-79891383D01*
X113888212Y-79935000D01*
X114111788Y-79935000D01*
X114331067Y-79891383D01*
X114537624Y-79805824D01*
X114723520Y-79681612D01*
X114881612Y-79523520D01*
X115005824Y-79337624D01*
X115091383Y-79131067D01*
X115135000Y-78911788D01*
X115135000Y-78688212D01*
X115091383Y-78468933D01*
X115005824Y-78262376D01*
X114881612Y-78076480D01*
X114723520Y-77918388D01*
X114537624Y-77794176D01*
X114331067Y-77708617D01*
X114111788Y-77665000D01*
X113888212Y-77665000D01*
X113668933Y-77708617D01*
X113462376Y-77794176D01*
X113276480Y-77918388D01*
X113156868Y-78038000D01*
X113022857Y-78038000D01*
X113025392Y-78036645D01*
X113141422Y-77941422D01*
X113165284Y-77912346D01*
X114712346Y-76365284D01*
X114741422Y-76341422D01*
X114801857Y-76267781D01*
X114836645Y-76225393D01*
X114877275Y-76149378D01*
X114907402Y-76093015D01*
X114950974Y-75949378D01*
X114962000Y-75837426D01*
X114962000Y-75837423D01*
X114965686Y-75800000D01*
X114962000Y-75762577D01*
X114962000Y-68515630D01*
X116915630Y-66562000D01*
X118542456Y-66562000D01*
X118595506Y-66605537D01*
X118595506Y-66605537D01*
G37*
X118595506Y-66605537D02*
X118705820Y-66664502D01*
X118825518Y-66700812D01*
X118950000Y-66713072D01*
X120286928Y-66713072D01*
X120286928Y-68050000D01*
X120299188Y-68174482D01*
X120335498Y-68294180D01*
X120394463Y-68404494D01*
X120473815Y-68501185D01*
X120570506Y-68580537D01*
X120680820Y-68639502D01*
X120800518Y-68675812D01*
X120925000Y-68688072D01*
X121475000Y-68688072D01*
X121599482Y-68675812D01*
X121600000Y-68675655D01*
X121600518Y-68675812D01*
X121725000Y-68688072D01*
X122275000Y-68688072D01*
X122399482Y-68675812D01*
X122400000Y-68675655D01*
X122400518Y-68675812D01*
X122525000Y-68688072D01*
X123075000Y-68688072D01*
X123199482Y-68675812D01*
X123206130Y-68673795D01*
X123262458Y-68685000D01*
X123314250Y-68685000D01*
X123406333Y-68592917D01*
X123429494Y-68580537D01*
X123526185Y-68501185D01*
X123600000Y-68411241D01*
X123673815Y-68501185D01*
X123770506Y-68580537D01*
X123793667Y-68592917D01*
X123885750Y-68685000D01*
X123937542Y-68685000D01*
X123993870Y-68673795D01*
X124000518Y-68675812D01*
X124125000Y-68688072D01*
X124675000Y-68688072D01*
X124799482Y-68675812D01*
X124800000Y-68675655D01*
X124800518Y-68675812D01*
X124925000Y-68688072D01*
X125475000Y-68688072D01*
X125599482Y-68675812D01*
X125600000Y-68675655D01*
X125600518Y-68675812D01*
X125725000Y-68688072D01*
X126038000Y-68688072D01*
X126038001Y-72084368D01*
X113484370Y-84638000D01*
X86315631Y-84638000D01*
X84962000Y-83284370D01*
X84962000Y-81676299D01*
X84980000Y-81678072D01*
X87980000Y-81678072D01*
X88104482Y-81665812D01*
X88224180Y-81629502D01*
X88334494Y-81570537D01*
X88431185Y-81491185D01*
X88510537Y-81394494D01*
X88569502Y-81284180D01*
X88586008Y-81229767D01*
X88685392Y-81176645D01*
X88801422Y-81081422D01*
X88825284Y-81052347D01*
X89051880Y-80825750D01*
X89385000Y-80825750D01*
X89385000Y-81102542D01*
X89409403Y-81225223D01*
X89457270Y-81340785D01*
X89526763Y-81444789D01*
X89615211Y-81533237D01*
X89719215Y-81602730D01*
X89834777Y-81650597D01*
X89957458Y-81675000D01*
X91234250Y-81675000D01*
X91393000Y-81516250D01*
X91393000Y-80667000D01*
X91647000Y-80667000D01*
X91647000Y-81516250D01*
X91805750Y-81675000D01*
X93082542Y-81675000D01*
X93205223Y-81650597D01*
X93320785Y-81602730D01*
X93424789Y-81533237D01*
X93513237Y-81444789D01*
X93582730Y-81340785D01*
X93630597Y-81225223D01*
X93655000Y-81102542D01*
X93655000Y-80825750D01*
X93496250Y-80667000D01*
X91647000Y-80667000D01*
X91393000Y-80667000D01*
X89543750Y-80667000D01*
X89385000Y-80825750D01*
X89051880Y-80825750D01*
X89504190Y-80373440D01*
X89543750Y-80413000D01*
X91393000Y-80413000D01*
X91393000Y-79563750D01*
X91647000Y-79563750D01*
X91647000Y-80413000D01*
X93496250Y-80413000D01*
X93655000Y-80254250D01*
X93655000Y-79977458D01*
X93630597Y-79854777D01*
X93582730Y-79739215D01*
X93513237Y-79635211D01*
X93424789Y-79546763D01*
X93320785Y-79477270D01*
X93205223Y-79429403D01*
X93082542Y-79405000D01*
X91805750Y-79405000D01*
X91647000Y-79563750D01*
X91393000Y-79563750D01*
X91234250Y-79405000D01*
X89957458Y-79405000D01*
X89834777Y-79429403D01*
X89762000Y-79459548D01*
X89762000Y-79082115D01*
X89775820Y-79089502D01*
X89895518Y-79125812D01*
X90020000Y-79138072D01*
X93020000Y-79138072D01*
X93144482Y-79125812D01*
X93264180Y-79089502D01*
X93374494Y-79030537D01*
X93471185Y-78951185D01*
X93550537Y-78854494D01*
X93599977Y-78762000D01*
X105084370Y-78762000D01*
X108834721Y-82512352D01*
X108858578Y-82541422D01*
X108974608Y-82636645D01*
X109106985Y-82707402D01*
X109250622Y-82750974D01*
X109362574Y-82762000D01*
X109362576Y-82762000D01*
X109399999Y-82765686D01*
X109437422Y-82762000D01*
X114362577Y-82762000D01*
X114400000Y-82765686D01*
X114437423Y-82762000D01*
X114437426Y-82762000D01*
X114549378Y-82750974D01*
X114693015Y-82707402D01*
X114825392Y-82636645D01*
X114941422Y-82541422D01*
X114965284Y-82512346D01*
X116512347Y-80965283D01*
X116541422Y-80941422D01*
X116601857Y-80867781D01*
X116636645Y-80825393D01*
X116676423Y-80750973D01*
X116707402Y-80693015D01*
X116750974Y-80549378D01*
X116762000Y-80437426D01*
X116762000Y-80437423D01*
X116765686Y-80400000D01*
X116762000Y-80362577D01*
X116762000Y-77715630D01*
X118715630Y-75762000D01*
X118956868Y-75762000D01*
X119076480Y-75881612D01*
X119262376Y-76005824D01*
X119468933Y-76091383D01*
X119688212Y-76135000D01*
X119911788Y-76135000D01*
X120131067Y-76091383D01*
X120337624Y-76005824D01*
X120523520Y-75881612D01*
X120681612Y-75723520D01*
X120805824Y-75537624D01*
X120891383Y-75331067D01*
X120935000Y-75111788D01*
X120935000Y-74888212D01*
X120891383Y-74668933D01*
X120805824Y-74462376D01*
X120681612Y-74276480D01*
X120523520Y-74118388D01*
X120337624Y-73994176D01*
X120131067Y-73908617D01*
X119911788Y-73865000D01*
X119688212Y-73865000D01*
X119468933Y-73908617D01*
X119262376Y-73994176D01*
X119076480Y-74118388D01*
X118956868Y-74238000D01*
X118437423Y-74238000D01*
X118400000Y-74234314D01*
X118362577Y-74238000D01*
X118362574Y-74238000D01*
X118250622Y-74249026D01*
X118106985Y-74292598D01*
X118045364Y-74325535D01*
X117974607Y-74363355D01*
X117932219Y-74398143D01*
X117858578Y-74458578D01*
X117834716Y-74487654D01*
X115487649Y-76834721D01*
X115458579Y-76858578D01*
X115434722Y-76887648D01*
X115434721Y-76887649D01*
X115363355Y-76974608D01*
X115292599Y-77106985D01*
X115249027Y-77250622D01*
X115234314Y-77400000D01*
X115238001Y-77437433D01*
X115238000Y-80084370D01*
X114084370Y-81238000D01*
X109715631Y-81238000D01*
X105965284Y-77487654D01*
X105941422Y-77458578D01*
X105825392Y-77363355D01*
X105693015Y-77292598D01*
X105549378Y-77249026D01*
X105437426Y-77238000D01*
X105437423Y-77238000D01*
X105400000Y-77234314D01*
X105362577Y-77238000D01*
X93599977Y-77238000D01*
X93550537Y-77145506D01*
X93471185Y-77048815D01*
X93374494Y-76969463D01*
X93264180Y-76910498D01*
X93144482Y-76874188D01*
X93020000Y-76861928D01*
X90020000Y-76861928D01*
X89895518Y-76874188D01*
X89775820Y-76910498D01*
X89762000Y-76917885D01*
X89762000Y-76542115D01*
X89775820Y-76549502D01*
X89895518Y-76585812D01*
X90020000Y-76598072D01*
X93020000Y-76598072D01*
X93144482Y-76585812D01*
X93264180Y-76549502D01*
X93374494Y-76490537D01*
X93471185Y-76411185D01*
X93550537Y-76314494D01*
X93599977Y-76222000D01*
X98102577Y-76222000D01*
X98140000Y-76225686D01*
X98177423Y-76222000D01*
X98177426Y-76222000D01*
X98289378Y-76210974D01*
X98433015Y-76167402D01*
X98565392Y-76096645D01*
X98594844Y-76072474D01*
X99234720Y-76712351D01*
X99258578Y-76741422D01*
X99374608Y-76836645D01*
X99506985Y-76907402D01*
X99650622Y-76950974D01*
X99762574Y-76962000D01*
X99762576Y-76962000D01*
X99799999Y-76965686D01*
X99837422Y-76962000D01*
X106284370Y-76962000D01*
X108634721Y-79312352D01*
X108658578Y-79341422D01*
X108774608Y-79436645D01*
X108906985Y-79507402D01*
X109050622Y-79550974D01*
X109162574Y-79562000D01*
X109162576Y-79562000D01*
X109199999Y-79565686D01*
X109237422Y-79562000D01*
X113156868Y-79562000D01*
X113276480Y-79681612D01*
X113462376Y-79805824D01*
X113668933Y-79891383D01*
X113888212Y-79935000D01*
X114111788Y-79935000D01*
X114331067Y-79891383D01*
X114537624Y-79805824D01*
X114723520Y-79681612D01*
X114881612Y-79523520D01*
X115005824Y-79337624D01*
X115091383Y-79131067D01*
X115135000Y-78911788D01*
X115135000Y-78688212D01*
X115091383Y-78468933D01*
X115005824Y-78262376D01*
X114881612Y-78076480D01*
X114723520Y-77918388D01*
X114537624Y-77794176D01*
X114331067Y-77708617D01*
X114111788Y-77665000D01*
X113888212Y-77665000D01*
X113668933Y-77708617D01*
X113462376Y-77794176D01*
X113276480Y-77918388D01*
X113156868Y-78038000D01*
X113022857Y-78038000D01*
X113025392Y-78036645D01*
X113141422Y-77941422D01*
X113165284Y-77912346D01*
X114712346Y-76365284D01*
X114741422Y-76341422D01*
X114801857Y-76267781D01*
X114836645Y-76225393D01*
X114877275Y-76149378D01*
X114907402Y-76093015D01*
X114950974Y-75949378D01*
X114962000Y-75837426D01*
X114962000Y-75837423D01*
X114965686Y-75800000D01*
X114962000Y-75762577D01*
X114962000Y-68515630D01*
X116915630Y-66562000D01*
X118542456Y-66562000D01*
X118595506Y-66605537D01*
G36*
X108908617Y-60868939D02*
X108865000Y-61088218D01*
X108865000Y-61311794D01*
X108908617Y-61531073D01*
X108994176Y-61737630D01*
X109118388Y-61923526D01*
X109238001Y-62043139D01*
X109238000Y-62684370D01*
X108384370Y-63538000D01*
X106824579Y-63538000D01*
X106821008Y-63501746D01*
X106770472Y-63335150D01*
X106688405Y-63181614D01*
X106577962Y-63047038D01*
X106443386Y-62936595D01*
X106289850Y-62854528D01*
X106123254Y-62803992D01*
X105950000Y-62786928D01*
X105025000Y-62786928D01*
X104851746Y-62803992D01*
X104685150Y-62854528D01*
X104531614Y-62936595D01*
X104397038Y-63047038D01*
X104286595Y-63181614D01*
X104204528Y-63335150D01*
X104153992Y-63501746D01*
X104136928Y-63675000D01*
X104136928Y-64925000D01*
X104153992Y-65098254D01*
X104204528Y-65264850D01*
X104286595Y-65418386D01*
X104397038Y-65552962D01*
X104531614Y-65663405D01*
X104685150Y-65745472D01*
X104851746Y-65796008D01*
X105025000Y-65813072D01*
X105950000Y-65813072D01*
X106123254Y-65796008D01*
X106289850Y-65745472D01*
X106443386Y-65663405D01*
X106577962Y-65552962D01*
X106688405Y-65418386D01*
X106770472Y-65264850D01*
X106821008Y-65098254D01*
X106824579Y-65062000D01*
X108662577Y-65062000D01*
X108700000Y-65065686D01*
X108737423Y-65062000D01*
X108737426Y-65062000D01*
X108849378Y-65050974D01*
X108993015Y-65007402D01*
X109125392Y-64936645D01*
X109241422Y-64841422D01*
X109265284Y-64812346D01*
X110512347Y-63565283D01*
X110541422Y-63541422D01*
X110604548Y-63464502D01*
X110636645Y-63425393D01*
X110699712Y-63307402D01*
X110707402Y-63293015D01*
X110750974Y-63149378D01*
X110762000Y-63037426D01*
X110762000Y-63037423D01*
X110765686Y-63000000D01*
X110762000Y-62962577D01*
X110762000Y-62043138D01*
X110881612Y-61923526D01*
X111005824Y-61737630D01*
X111091383Y-61531073D01*
X111135000Y-61311794D01*
X111135000Y-61088218D01*
X111091383Y-60868939D01*
X111047087Y-60762000D01*
X111484370Y-60762000D01*
X114606136Y-63883767D01*
X114511788Y-63865000D01*
X114288212Y-63865000D01*
X114068933Y-63908617D01*
X113862376Y-63994176D01*
X113676480Y-64118388D01*
X113518388Y-64276480D01*
X113394176Y-64462376D01*
X113308617Y-64668933D01*
X113265000Y-64888212D01*
X113265000Y-65057369D01*
X109987649Y-68334721D01*
X109958579Y-68358578D01*
X109934722Y-68387648D01*
X109934721Y-68387649D01*
X109863355Y-68474608D01*
X109792599Y-68606985D01*
X109749027Y-68750622D01*
X109734314Y-68900000D01*
X109738001Y-68937433D01*
X109738001Y-70175421D01*
X109701746Y-70178992D01*
X109535150Y-70229528D01*
X109381614Y-70311595D01*
X109247038Y-70422038D01*
X109136595Y-70556614D01*
X109054528Y-70710150D01*
X109003992Y-70876746D01*
X108986928Y-71050000D01*
X108986928Y-71975000D01*
X109003992Y-72148254D01*
X109054528Y-72314850D01*
X109136595Y-72468386D01*
X109247038Y-72602962D01*
X109381614Y-72713405D01*
X109535150Y-72795472D01*
X109701746Y-72846008D01*
X109875000Y-72863072D01*
X111125000Y-72863072D01*
X111298254Y-72846008D01*
X111464850Y-72795472D01*
X111618386Y-72713405D01*
X111752962Y-72602962D01*
X111863405Y-72468386D01*
X111945472Y-72314850D01*
X111996008Y-72148254D01*
X112013072Y-71975000D01*
X112013072Y-71050000D01*
X111996008Y-70876746D01*
X111945472Y-70710150D01*
X111863405Y-70556614D01*
X111752962Y-70422038D01*
X111618386Y-70311595D01*
X111464850Y-70229528D01*
X111298254Y-70178992D01*
X111262000Y-70175421D01*
X111262000Y-69215630D01*
X114342631Y-66135000D01*
X114511788Y-66135000D01*
X114731067Y-66091383D01*
X114937624Y-66005824D01*
X115123520Y-65881612D01*
X115243132Y-65762000D01*
X115560370Y-65762000D01*
X113687654Y-67634716D01*
X113658578Y-67658578D01*
X113602983Y-67726322D01*
X113563355Y-67774608D01*
X113547223Y-67804789D01*
X113492598Y-67906986D01*
X113449026Y-68050623D01*
X113439300Y-68149377D01*
X113434314Y-68200000D01*
X113438000Y-68237423D01*
X113438001Y-75484369D01*
X112284370Y-76638000D01*
X111915631Y-76638000D01*
X111262000Y-75984370D01*
X111262000Y-75824579D01*
X111298254Y-75821008D01*
X111464850Y-75770472D01*
X111618386Y-75688405D01*
X111752962Y-75577962D01*
X111863405Y-75443386D01*
X111945472Y-75289850D01*
X111996008Y-75123254D01*
X112013072Y-74950000D01*
X112013072Y-74025000D01*
X111996008Y-73851746D01*
X111945472Y-73685150D01*
X111863405Y-73531614D01*
X111752962Y-73397038D01*
X111618386Y-73286595D01*
X111464850Y-73204528D01*
X111298254Y-73153992D01*
X111125000Y-73136928D01*
X109875000Y-73136928D01*
X109701746Y-73153992D01*
X109535150Y-73204528D01*
X109381614Y-73286595D01*
X109247038Y-73397038D01*
X109136595Y-73531614D01*
X109054528Y-73685150D01*
X109003992Y-73851746D01*
X108986928Y-74025000D01*
X108986928Y-74950000D01*
X109003992Y-75123254D01*
X109054528Y-75289850D01*
X109136595Y-75443386D01*
X109247038Y-75577962D01*
X109381614Y-75688405D01*
X109535150Y-75770472D01*
X109701746Y-75821008D01*
X109738000Y-75824579D01*
X109738000Y-76262576D01*
X109734314Y-76300000D01*
X109738000Y-76337423D01*
X109738000Y-76337425D01*
X109749026Y-76449377D01*
X109792598Y-76593014D01*
X109814673Y-76634314D01*
X109863355Y-76725392D01*
X109876510Y-76741421D01*
X109958578Y-76841422D01*
X109987654Y-76865284D01*
X111034721Y-77912352D01*
X111058578Y-77941422D01*
X111087648Y-77965279D01*
X111174607Y-78036645D01*
X111177142Y-78038000D01*
X109515631Y-78038000D01*
X107165284Y-75687654D01*
X107141422Y-75658578D01*
X107025392Y-75563355D01*
X106893015Y-75492598D01*
X106749378Y-75449026D01*
X106637426Y-75438000D01*
X106637423Y-75438000D01*
X106600000Y-75434314D01*
X106562577Y-75438000D01*
X100115631Y-75438000D01*
X99659766Y-74982136D01*
X99707402Y-74893015D01*
X99727120Y-74828014D01*
X99798254Y-74821008D01*
X99964850Y-74770472D01*
X100118386Y-74688405D01*
X100252962Y-74577962D01*
X100363405Y-74443386D01*
X100445472Y-74289850D01*
X100496008Y-74123254D01*
X100513072Y-73950000D01*
X100513072Y-73025000D01*
X100496008Y-72851746D01*
X100445472Y-72685150D01*
X100363405Y-72531614D01*
X100252962Y-72397038D01*
X100118386Y-72286595D01*
X99964850Y-72204528D01*
X99798254Y-72153992D01*
X99625000Y-72136928D01*
X98375000Y-72136928D01*
X98201746Y-72153992D01*
X98035150Y-72204528D01*
X97881614Y-72286595D01*
X97747038Y-72397038D01*
X97636595Y-72531614D01*
X97554528Y-72685150D01*
X97503992Y-72851746D01*
X97486928Y-73025000D01*
X97486928Y-73950000D01*
X97503992Y-74123254D01*
X97554528Y-74289850D01*
X97636595Y-74443386D01*
X97747038Y-74577962D01*
X97855443Y-74666927D01*
X97824370Y-74698000D01*
X93599977Y-74698000D01*
X93550537Y-74605506D01*
X93471185Y-74508815D01*
X93374494Y-74429463D01*
X93264180Y-74370498D01*
X93144482Y-74334188D01*
X93020000Y-74321928D01*
X90020000Y-74321928D01*
X89948678Y-74328952D01*
X91115631Y-73162000D01*
X94362577Y-73162000D01*
X94400000Y-73165686D01*
X94437423Y-73162000D01*
X94437426Y-73162000D01*
X94549378Y-73150974D01*
X94693015Y-73107402D01*
X94825392Y-73036645D01*
X94941422Y-72941422D01*
X94965284Y-72912346D01*
X97486928Y-70390703D01*
X97486928Y-70975000D01*
X97503992Y-71148254D01*
X97554528Y-71314850D01*
X97636595Y-71468386D01*
X97747038Y-71602962D01*
X97881614Y-71713405D01*
X98035150Y-71795472D01*
X98201746Y-71846008D01*
X98375000Y-71863072D01*
X99625000Y-71863072D01*
X99798254Y-71846008D01*
X99964850Y-71795472D01*
X100118386Y-71713405D01*
X100252962Y-71602962D01*
X100363405Y-71468386D01*
X100445472Y-71314850D01*
X100496008Y-71148254D01*
X100513072Y-70975000D01*
X100513072Y-70050000D01*
X100496008Y-69876746D01*
X100445472Y-69710150D01*
X100363405Y-69556614D01*
X100252962Y-69422038D01*
X100118386Y-69311595D01*
X99964850Y-69229528D01*
X99798254Y-69178992D01*
X99625000Y-69161928D01*
X99544171Y-69161928D01*
X99541422Y-69158578D01*
X99512351Y-69134721D01*
X99339631Y-68962000D01*
X108362577Y-68962000D01*
X108400000Y-68965686D01*
X108437423Y-68962000D01*
X108437426Y-68962000D01*
X108549378Y-68950974D01*
X108693015Y-68907402D01*
X108825392Y-68836645D01*
X108941422Y-68741422D01*
X108965284Y-68712346D01*
X111542631Y-66135000D01*
X111711788Y-66135000D01*
X111931067Y-66091383D01*
X112137624Y-66005824D01*
X112323520Y-65881612D01*
X112481612Y-65723520D01*
X112605824Y-65537624D01*
X112691383Y-65331067D01*
X112735000Y-65111788D01*
X112735000Y-64888212D01*
X112691383Y-64668933D01*
X112605824Y-64462376D01*
X112481612Y-64276480D01*
X112323520Y-64118388D01*
X112137624Y-63994176D01*
X111931067Y-63908617D01*
X111711788Y-63865000D01*
X111488212Y-63865000D01*
X111268933Y-63908617D01*
X111062376Y-63994176D01*
X110876480Y-64118388D01*
X110718388Y-64276480D01*
X110594176Y-64462376D01*
X110508617Y-64668933D01*
X110465000Y-64888212D01*
X110465000Y-65057369D01*
X108084370Y-67438000D01*
X100085000Y-67438000D01*
X100085000Y-67285750D01*
X99926250Y-67127000D01*
X98627000Y-67127000D01*
X98627000Y-67147000D01*
X98373000Y-67147000D01*
X98373000Y-67127000D01*
X97073750Y-67127000D01*
X97012750Y-67188000D01*
X96974377Y-67188000D01*
X96901185Y-67098815D01*
X96804494Y-67019463D01*
X96768082Y-67000000D01*
X96804494Y-66980537D01*
X96901185Y-66901185D01*
X96980537Y-66804494D01*
X96989143Y-66788393D01*
X97073750Y-66873000D01*
X98373000Y-66873000D01*
X98373000Y-66123750D01*
X98627000Y-66123750D01*
X98627000Y-66873000D01*
X99926250Y-66873000D01*
X100085000Y-66714250D01*
X100085000Y-66537458D01*
X100060597Y-66414777D01*
X100012730Y-66299215D01*
X99943237Y-66195211D01*
X99854789Y-66106763D01*
X99750785Y-66037270D01*
X99635223Y-65989403D01*
X99512542Y-65965000D01*
X98785750Y-65965000D01*
X98627000Y-66123750D01*
X98373000Y-66123750D01*
X98214250Y-65965000D01*
X97487458Y-65965000D01*
X97364777Y-65989403D01*
X97249215Y-66037270D01*
X97145211Y-66106763D01*
X97088072Y-66163902D01*
X97088072Y-65650000D01*
X97075812Y-65525518D01*
X97039502Y-65405820D01*
X96980537Y-65295506D01*
X96901185Y-65198815D01*
X96804494Y-65119463D01*
X96694180Y-65060498D01*
X96574482Y-65024188D01*
X96450000Y-65011928D01*
X94550000Y-65011928D01*
X94425518Y-65024188D01*
X94305820Y-65060498D01*
X94195506Y-65119463D01*
X94098815Y-65198815D01*
X94025623Y-65288000D01*
X93365631Y-65288000D01*
X92165843Y-64088212D01*
X97465000Y-64088212D01*
X97465000Y-64311788D01*
X97508617Y-64531067D01*
X97594176Y-64737624D01*
X97718388Y-64923520D01*
X97876480Y-65081612D01*
X98062376Y-65205824D01*
X98268933Y-65291383D01*
X98488212Y-65335000D01*
X98711788Y-65335000D01*
X98931067Y-65291383D01*
X99137624Y-65205824D01*
X99323520Y-65081612D01*
X99343132Y-65062000D01*
X101175421Y-65062000D01*
X101178992Y-65098254D01*
X101229528Y-65264850D01*
X101311595Y-65418386D01*
X101422038Y-65552962D01*
X101556614Y-65663405D01*
X101710150Y-65745472D01*
X101876746Y-65796008D01*
X102050000Y-65813072D01*
X102975000Y-65813072D01*
X103148254Y-65796008D01*
X103314850Y-65745472D01*
X103468386Y-65663405D01*
X103602962Y-65552962D01*
X103713405Y-65418386D01*
X103795472Y-65264850D01*
X103846008Y-65098254D01*
X103863072Y-64925000D01*
X103863072Y-63675000D01*
X103846008Y-63501746D01*
X103795472Y-63335150D01*
X103713405Y-63181614D01*
X103602962Y-63047038D01*
X103468386Y-62936595D01*
X103314850Y-62854528D01*
X103148254Y-62803992D01*
X102975000Y-62786928D01*
X102050000Y-62786928D01*
X101876746Y-62803992D01*
X101710150Y-62854528D01*
X101556614Y-62936595D01*
X101422038Y-63047038D01*
X101311595Y-63181614D01*
X101229528Y-63335150D01*
X101178992Y-63501746D01*
X101175421Y-63538000D01*
X99522718Y-63538000D01*
X99481612Y-63476480D01*
X99323520Y-63318388D01*
X99137624Y-63194176D01*
X98931067Y-63108617D01*
X98711788Y-63065000D01*
X98488212Y-63065000D01*
X98268933Y-63108617D01*
X98062376Y-63194176D01*
X97876480Y-63318388D01*
X97718388Y-63476480D01*
X97594176Y-63662376D01*
X97508617Y-63868933D01*
X97465000Y-64088212D01*
X92165843Y-64088212D01*
X89215702Y-61138072D01*
X90600000Y-61138072D01*
X90724482Y-61125812D01*
X90844180Y-61089502D01*
X90954494Y-61030537D01*
X91051185Y-60951185D01*
X91130537Y-60854494D01*
X91179977Y-60762000D01*
X108952913Y-60762000D01*
X108908617Y-60868939D01*
X108908617Y-60868939D01*
G37*
X108908617Y-60868939D02*
X108865000Y-61088218D01*
X108865000Y-61311794D01*
X108908617Y-61531073D01*
X108994176Y-61737630D01*
X109118388Y-61923526D01*
X109238001Y-62043139D01*
X109238000Y-62684370D01*
X108384370Y-63538000D01*
X106824579Y-63538000D01*
X106821008Y-63501746D01*
X106770472Y-63335150D01*
X106688405Y-63181614D01*
X106577962Y-63047038D01*
X106443386Y-62936595D01*
X106289850Y-62854528D01*
X106123254Y-62803992D01*
X105950000Y-62786928D01*
X105025000Y-62786928D01*
X104851746Y-62803992D01*
X104685150Y-62854528D01*
X104531614Y-62936595D01*
X104397038Y-63047038D01*
X104286595Y-63181614D01*
X104204528Y-63335150D01*
X104153992Y-63501746D01*
X104136928Y-63675000D01*
X104136928Y-64925000D01*
X104153992Y-65098254D01*
X104204528Y-65264850D01*
X104286595Y-65418386D01*
X104397038Y-65552962D01*
X104531614Y-65663405D01*
X104685150Y-65745472D01*
X104851746Y-65796008D01*
X105025000Y-65813072D01*
X105950000Y-65813072D01*
X106123254Y-65796008D01*
X106289850Y-65745472D01*
X106443386Y-65663405D01*
X106577962Y-65552962D01*
X106688405Y-65418386D01*
X106770472Y-65264850D01*
X106821008Y-65098254D01*
X106824579Y-65062000D01*
X108662577Y-65062000D01*
X108700000Y-65065686D01*
X108737423Y-65062000D01*
X108737426Y-65062000D01*
X108849378Y-65050974D01*
X108993015Y-65007402D01*
X109125392Y-64936645D01*
X109241422Y-64841422D01*
X109265284Y-64812346D01*
X110512347Y-63565283D01*
X110541422Y-63541422D01*
X110604548Y-63464502D01*
X110636645Y-63425393D01*
X110699712Y-63307402D01*
X110707402Y-63293015D01*
X110750974Y-63149378D01*
X110762000Y-63037426D01*
X110762000Y-63037423D01*
X110765686Y-63000000D01*
X110762000Y-62962577D01*
X110762000Y-62043138D01*
X110881612Y-61923526D01*
X111005824Y-61737630D01*
X111091383Y-61531073D01*
X111135000Y-61311794D01*
X111135000Y-61088218D01*
X111091383Y-60868939D01*
X111047087Y-60762000D01*
X111484370Y-60762000D01*
X114606136Y-63883767D01*
X114511788Y-63865000D01*
X114288212Y-63865000D01*
X114068933Y-63908617D01*
X113862376Y-63994176D01*
X113676480Y-64118388D01*
X113518388Y-64276480D01*
X113394176Y-64462376D01*
X113308617Y-64668933D01*
X113265000Y-64888212D01*
X113265000Y-65057369D01*
X109987649Y-68334721D01*
X109958579Y-68358578D01*
X109934722Y-68387648D01*
X109934721Y-68387649D01*
X109863355Y-68474608D01*
X109792599Y-68606985D01*
X109749027Y-68750622D01*
X109734314Y-68900000D01*
X109738001Y-68937433D01*
X109738001Y-70175421D01*
X109701746Y-70178992D01*
X109535150Y-70229528D01*
X109381614Y-70311595D01*
X109247038Y-70422038D01*
X109136595Y-70556614D01*
X109054528Y-70710150D01*
X109003992Y-70876746D01*
X108986928Y-71050000D01*
X108986928Y-71975000D01*
X109003992Y-72148254D01*
X109054528Y-72314850D01*
X109136595Y-72468386D01*
X109247038Y-72602962D01*
X109381614Y-72713405D01*
X109535150Y-72795472D01*
X109701746Y-72846008D01*
X109875000Y-72863072D01*
X111125000Y-72863072D01*
X111298254Y-72846008D01*
X111464850Y-72795472D01*
X111618386Y-72713405D01*
X111752962Y-72602962D01*
X111863405Y-72468386D01*
X111945472Y-72314850D01*
X111996008Y-72148254D01*
X112013072Y-71975000D01*
X112013072Y-71050000D01*
X111996008Y-70876746D01*
X111945472Y-70710150D01*
X111863405Y-70556614D01*
X111752962Y-70422038D01*
X111618386Y-70311595D01*
X111464850Y-70229528D01*
X111298254Y-70178992D01*
X111262000Y-70175421D01*
X111262000Y-69215630D01*
X114342631Y-66135000D01*
X114511788Y-66135000D01*
X114731067Y-66091383D01*
X114937624Y-66005824D01*
X115123520Y-65881612D01*
X115243132Y-65762000D01*
X115560370Y-65762000D01*
X113687654Y-67634716D01*
X113658578Y-67658578D01*
X113602983Y-67726322D01*
X113563355Y-67774608D01*
X113547223Y-67804789D01*
X113492598Y-67906986D01*
X113449026Y-68050623D01*
X113439300Y-68149377D01*
X113434314Y-68200000D01*
X113438000Y-68237423D01*
X113438001Y-75484369D01*
X112284370Y-76638000D01*
X111915631Y-76638000D01*
X111262000Y-75984370D01*
X111262000Y-75824579D01*
X111298254Y-75821008D01*
X111464850Y-75770472D01*
X111618386Y-75688405D01*
X111752962Y-75577962D01*
X111863405Y-75443386D01*
X111945472Y-75289850D01*
X111996008Y-75123254D01*
X112013072Y-74950000D01*
X112013072Y-74025000D01*
X111996008Y-73851746D01*
X111945472Y-73685150D01*
X111863405Y-73531614D01*
X111752962Y-73397038D01*
X111618386Y-73286595D01*
X111464850Y-73204528D01*
X111298254Y-73153992D01*
X111125000Y-73136928D01*
X109875000Y-73136928D01*
X109701746Y-73153992D01*
X109535150Y-73204528D01*
X109381614Y-73286595D01*
X109247038Y-73397038D01*
X109136595Y-73531614D01*
X109054528Y-73685150D01*
X109003992Y-73851746D01*
X108986928Y-74025000D01*
X108986928Y-74950000D01*
X109003992Y-75123254D01*
X109054528Y-75289850D01*
X109136595Y-75443386D01*
X109247038Y-75577962D01*
X109381614Y-75688405D01*
X109535150Y-75770472D01*
X109701746Y-75821008D01*
X109738000Y-75824579D01*
X109738000Y-76262576D01*
X109734314Y-76300000D01*
X109738000Y-76337423D01*
X109738000Y-76337425D01*
X109749026Y-76449377D01*
X109792598Y-76593014D01*
X109814673Y-76634314D01*
X109863355Y-76725392D01*
X109876510Y-76741421D01*
X109958578Y-76841422D01*
X109987654Y-76865284D01*
X111034721Y-77912352D01*
X111058578Y-77941422D01*
X111087648Y-77965279D01*
X111174607Y-78036645D01*
X111177142Y-78038000D01*
X109515631Y-78038000D01*
X107165284Y-75687654D01*
X107141422Y-75658578D01*
X107025392Y-75563355D01*
X106893015Y-75492598D01*
X106749378Y-75449026D01*
X106637426Y-75438000D01*
X106637423Y-75438000D01*
X106600000Y-75434314D01*
X106562577Y-75438000D01*
X100115631Y-75438000D01*
X99659766Y-74982136D01*
X99707402Y-74893015D01*
X99727120Y-74828014D01*
X99798254Y-74821008D01*
X99964850Y-74770472D01*
X100118386Y-74688405D01*
X100252962Y-74577962D01*
X100363405Y-74443386D01*
X100445472Y-74289850D01*
X100496008Y-74123254D01*
X100513072Y-73950000D01*
X100513072Y-73025000D01*
X100496008Y-72851746D01*
X100445472Y-72685150D01*
X100363405Y-72531614D01*
X100252962Y-72397038D01*
X100118386Y-72286595D01*
X99964850Y-72204528D01*
X99798254Y-72153992D01*
X99625000Y-72136928D01*
X98375000Y-72136928D01*
X98201746Y-72153992D01*
X98035150Y-72204528D01*
X97881614Y-72286595D01*
X97747038Y-72397038D01*
X97636595Y-72531614D01*
X97554528Y-72685150D01*
X97503992Y-72851746D01*
X97486928Y-73025000D01*
X97486928Y-73950000D01*
X97503992Y-74123254D01*
X97554528Y-74289850D01*
X97636595Y-74443386D01*
X97747038Y-74577962D01*
X97855443Y-74666927D01*
X97824370Y-74698000D01*
X93599977Y-74698000D01*
X93550537Y-74605506D01*
X93471185Y-74508815D01*
X93374494Y-74429463D01*
X93264180Y-74370498D01*
X93144482Y-74334188D01*
X93020000Y-74321928D01*
X90020000Y-74321928D01*
X89948678Y-74328952D01*
X91115631Y-73162000D01*
X94362577Y-73162000D01*
X94400000Y-73165686D01*
X94437423Y-73162000D01*
X94437426Y-73162000D01*
X94549378Y-73150974D01*
X94693015Y-73107402D01*
X94825392Y-73036645D01*
X94941422Y-72941422D01*
X94965284Y-72912346D01*
X97486928Y-70390703D01*
X97486928Y-70975000D01*
X97503992Y-71148254D01*
X97554528Y-71314850D01*
X97636595Y-71468386D01*
X97747038Y-71602962D01*
X97881614Y-71713405D01*
X98035150Y-71795472D01*
X98201746Y-71846008D01*
X98375000Y-71863072D01*
X99625000Y-71863072D01*
X99798254Y-71846008D01*
X99964850Y-71795472D01*
X100118386Y-71713405D01*
X100252962Y-71602962D01*
X100363405Y-71468386D01*
X100445472Y-71314850D01*
X100496008Y-71148254D01*
X100513072Y-70975000D01*
X100513072Y-70050000D01*
X100496008Y-69876746D01*
X100445472Y-69710150D01*
X100363405Y-69556614D01*
X100252962Y-69422038D01*
X100118386Y-69311595D01*
X99964850Y-69229528D01*
X99798254Y-69178992D01*
X99625000Y-69161928D01*
X99544171Y-69161928D01*
X99541422Y-69158578D01*
X99512351Y-69134721D01*
X99339631Y-68962000D01*
X108362577Y-68962000D01*
X108400000Y-68965686D01*
X108437423Y-68962000D01*
X108437426Y-68962000D01*
X108549378Y-68950974D01*
X108693015Y-68907402D01*
X108825392Y-68836645D01*
X108941422Y-68741422D01*
X108965284Y-68712346D01*
X111542631Y-66135000D01*
X111711788Y-66135000D01*
X111931067Y-66091383D01*
X112137624Y-66005824D01*
X112323520Y-65881612D01*
X112481612Y-65723520D01*
X112605824Y-65537624D01*
X112691383Y-65331067D01*
X112735000Y-65111788D01*
X112735000Y-64888212D01*
X112691383Y-64668933D01*
X112605824Y-64462376D01*
X112481612Y-64276480D01*
X112323520Y-64118388D01*
X112137624Y-63994176D01*
X111931067Y-63908617D01*
X111711788Y-63865000D01*
X111488212Y-63865000D01*
X111268933Y-63908617D01*
X111062376Y-63994176D01*
X110876480Y-64118388D01*
X110718388Y-64276480D01*
X110594176Y-64462376D01*
X110508617Y-64668933D01*
X110465000Y-64888212D01*
X110465000Y-65057369D01*
X108084370Y-67438000D01*
X100085000Y-67438000D01*
X100085000Y-67285750D01*
X99926250Y-67127000D01*
X98627000Y-67127000D01*
X98627000Y-67147000D01*
X98373000Y-67147000D01*
X98373000Y-67127000D01*
X97073750Y-67127000D01*
X97012750Y-67188000D01*
X96974377Y-67188000D01*
X96901185Y-67098815D01*
X96804494Y-67019463D01*
X96768082Y-67000000D01*
X96804494Y-66980537D01*
X96901185Y-66901185D01*
X96980537Y-66804494D01*
X96989143Y-66788393D01*
X97073750Y-66873000D01*
X98373000Y-66873000D01*
X98373000Y-66123750D01*
X98627000Y-66123750D01*
X98627000Y-66873000D01*
X99926250Y-66873000D01*
X100085000Y-66714250D01*
X100085000Y-66537458D01*
X100060597Y-66414777D01*
X100012730Y-66299215D01*
X99943237Y-66195211D01*
X99854789Y-66106763D01*
X99750785Y-66037270D01*
X99635223Y-65989403D01*
X99512542Y-65965000D01*
X98785750Y-65965000D01*
X98627000Y-66123750D01*
X98373000Y-66123750D01*
X98214250Y-65965000D01*
X97487458Y-65965000D01*
X97364777Y-65989403D01*
X97249215Y-66037270D01*
X97145211Y-66106763D01*
X97088072Y-66163902D01*
X97088072Y-65650000D01*
X97075812Y-65525518D01*
X97039502Y-65405820D01*
X96980537Y-65295506D01*
X96901185Y-65198815D01*
X96804494Y-65119463D01*
X96694180Y-65060498D01*
X96574482Y-65024188D01*
X96450000Y-65011928D01*
X94550000Y-65011928D01*
X94425518Y-65024188D01*
X94305820Y-65060498D01*
X94195506Y-65119463D01*
X94098815Y-65198815D01*
X94025623Y-65288000D01*
X93365631Y-65288000D01*
X92165843Y-64088212D01*
X97465000Y-64088212D01*
X97465000Y-64311788D01*
X97508617Y-64531067D01*
X97594176Y-64737624D01*
X97718388Y-64923520D01*
X97876480Y-65081612D01*
X98062376Y-65205824D01*
X98268933Y-65291383D01*
X98488212Y-65335000D01*
X98711788Y-65335000D01*
X98931067Y-65291383D01*
X99137624Y-65205824D01*
X99323520Y-65081612D01*
X99343132Y-65062000D01*
X101175421Y-65062000D01*
X101178992Y-65098254D01*
X101229528Y-65264850D01*
X101311595Y-65418386D01*
X101422038Y-65552962D01*
X101556614Y-65663405D01*
X101710150Y-65745472D01*
X101876746Y-65796008D01*
X102050000Y-65813072D01*
X102975000Y-65813072D01*
X103148254Y-65796008D01*
X103314850Y-65745472D01*
X103468386Y-65663405D01*
X103602962Y-65552962D01*
X103713405Y-65418386D01*
X103795472Y-65264850D01*
X103846008Y-65098254D01*
X103863072Y-64925000D01*
X103863072Y-63675000D01*
X103846008Y-63501746D01*
X103795472Y-63335150D01*
X103713405Y-63181614D01*
X103602962Y-63047038D01*
X103468386Y-62936595D01*
X103314850Y-62854528D01*
X103148254Y-62803992D01*
X102975000Y-62786928D01*
X102050000Y-62786928D01*
X101876746Y-62803992D01*
X101710150Y-62854528D01*
X101556614Y-62936595D01*
X101422038Y-63047038D01*
X101311595Y-63181614D01*
X101229528Y-63335150D01*
X101178992Y-63501746D01*
X101175421Y-63538000D01*
X99522718Y-63538000D01*
X99481612Y-63476480D01*
X99323520Y-63318388D01*
X99137624Y-63194176D01*
X98931067Y-63108617D01*
X98711788Y-63065000D01*
X98488212Y-63065000D01*
X98268933Y-63108617D01*
X98062376Y-63194176D01*
X97876480Y-63318388D01*
X97718388Y-63476480D01*
X97594176Y-63662376D01*
X97508617Y-63868933D01*
X97465000Y-64088212D01*
X92165843Y-64088212D01*
X89215702Y-61138072D01*
X90600000Y-61138072D01*
X90724482Y-61125812D01*
X90844180Y-61089502D01*
X90954494Y-61030537D01*
X91051185Y-60951185D01*
X91130537Y-60854494D01*
X91179977Y-60762000D01*
X108952913Y-60762000D01*
X108908617Y-60868939D01*
G04 #@! TD*
M02*
