G04 #@! TF.GenerationSoftware,KiCad,Pcbnew,(5.0.1-3-g963ef8bb5)*
G04 #@! TF.CreationDate,2019-03-19T08:35:04+01:00*
G04 #@! TF.ProjectId,capacitive-touch-demo,636170616369746976652D746F756368,3.0.0*
G04 #@! TF.SameCoordinates,Original*
G04 #@! TF.FileFunction,Legend,Bot*
G04 #@! TF.FilePolarity,Positive*
%FSLAX46Y46*%
G04 Gerber Fmt 4.6, Leading zero omitted, Abs format (unit mm)*
G04 Created by KiCad (PCBNEW (5.0.1-3-g963ef8bb5)) date 2019 March 19, Tuesday 08:35:04*
%MOMM*%
%LPD*%
G01*
G04 APERTURE LIST*
%ADD10C,0.120000*%
%ADD11C,0.150000*%
G04 APERTURE END LIST*
D10*
G04 #@! TO.C,Q1*
X97760000Y-65420000D02*
X97760000Y-66350000D01*
X97760000Y-68580000D02*
X97760000Y-67650000D01*
X97760000Y-68580000D02*
X94600000Y-68580000D01*
X97760000Y-65420000D02*
X96300000Y-65420000D01*
G04 #@! TO.C,R6*
X139840000Y-63102064D02*
X139840000Y-61897936D01*
X141660000Y-63102064D02*
X141660000Y-61897936D01*
G04 #@! TO.C,R1*
X98090000Y-72602064D02*
X98090000Y-71397936D01*
X99910000Y-72602064D02*
X99910000Y-71397936D01*
G04 #@! TO.C,R4*
X119602064Y-48410000D02*
X118397936Y-48410000D01*
X119602064Y-46590000D02*
X118397936Y-46590000D01*
G04 #@! TO.C,J1*
X89330000Y-53490000D02*
X86670000Y-53490000D01*
X86670000Y-53490000D02*
X86670000Y-56700000D01*
X86670000Y-58220000D02*
X86670000Y-61780000D01*
X86670000Y-63300000D02*
X86670000Y-66510000D01*
X89330000Y-66510000D02*
X86670000Y-66510000D01*
X89330000Y-53490000D02*
X89330000Y-54160000D01*
X89330000Y-55680000D02*
X89330000Y-59240000D01*
X89330000Y-60760000D02*
X89330000Y-64320000D01*
X89330000Y-65840000D02*
X89330000Y-66510000D01*
X90540000Y-54160000D02*
X89330000Y-54160000D01*
G04 #@! TO.C,C1*
X137602064Y-51110000D02*
X136397936Y-51110000D01*
X137602064Y-49290000D02*
X136397936Y-49290000D01*
G04 #@! TO.C,J2*
X91600000Y-74130000D02*
X86400000Y-74130000D01*
X86400000Y-74130000D02*
X86400000Y-74700000D01*
X86400000Y-76220000D02*
X86400000Y-77240000D01*
X86400000Y-78760000D02*
X86400000Y-79780000D01*
X86400000Y-81300000D02*
X86400000Y-81870000D01*
X91600000Y-81870000D02*
X86400000Y-81870000D01*
X91600000Y-74130000D02*
X91600000Y-74700000D01*
X91600000Y-76220000D02*
X91600000Y-77240000D01*
X91600000Y-78760000D02*
X91600000Y-79780000D01*
X91600000Y-81300000D02*
X91600000Y-81870000D01*
X86400000Y-74700000D02*
X85040000Y-74700000D01*
D11*
G04 #@! TO.C,U1*
X120375000Y-59375000D02*
X120600000Y-59375000D01*
X120375000Y-66625000D02*
X120700000Y-66625000D01*
X127625000Y-66625000D02*
X127300000Y-66625000D01*
X127625000Y-59375000D02*
X127300000Y-59375000D01*
X120375000Y-59375000D02*
X120375000Y-59700000D01*
X127625000Y-59375000D02*
X127625000Y-59700000D01*
X127625000Y-66625000D02*
X127625000Y-66300000D01*
X120375000Y-66625000D02*
X120375000Y-66300000D01*
X120600000Y-59375000D02*
X120600000Y-57950000D01*
D10*
G04 #@! TO.C,R5*
X147660000Y-55852064D02*
X147660000Y-54647936D01*
X145840000Y-55852064D02*
X145840000Y-54647936D01*
G04 #@! TO.C,Y1*
X141700000Y-47800000D02*
X134375000Y-47800000D01*
X134375000Y-47800000D02*
X134375000Y-44200000D01*
X134375000Y-44200000D02*
X141700000Y-44200000D01*
G04 #@! TO.C,R2*
X104602064Y-65210000D02*
X103397936Y-65210000D01*
X104602064Y-63390000D02*
X103397936Y-63390000D01*
G04 #@! TO.C,R3*
X111410000Y-73602064D02*
X111410000Y-72397936D01*
X109590000Y-73602064D02*
X109590000Y-72397936D01*
G04 #@! TO.C,C2*
X137602064Y-53090000D02*
X136397936Y-53090000D01*
X137602064Y-54910000D02*
X136397936Y-54910000D01*
G04 #@! TO.C,C11*
X125102064Y-52910000D02*
X123897936Y-52910000D01*
X125102064Y-51090000D02*
X123897936Y-51090000D01*
G04 #@! TO.C,Q1*
D11*
X97095238Y-70047619D02*
X97190476Y-70000000D01*
X97285714Y-69904761D01*
X97428571Y-69761904D01*
X97523809Y-69714285D01*
X97619047Y-69714285D01*
X97571428Y-69952380D02*
X97666666Y-69904761D01*
X97761904Y-69809523D01*
X97809523Y-69619047D01*
X97809523Y-69285714D01*
X97761904Y-69095238D01*
X97666666Y-69000000D01*
X97571428Y-68952380D01*
X97380952Y-68952380D01*
X97285714Y-69000000D01*
X97190476Y-69095238D01*
X97142857Y-69285714D01*
X97142857Y-69619047D01*
X97190476Y-69809523D01*
X97285714Y-69904761D01*
X97380952Y-69952380D01*
X97571428Y-69952380D01*
X96190476Y-69952380D02*
X96761904Y-69952380D01*
X96476190Y-69952380D02*
X96476190Y-68952380D01*
X96571428Y-69095238D01*
X96666666Y-69190476D01*
X96761904Y-69238095D01*
G04 #@! TO.C,R6*
X143022380Y-62333333D02*
X142546190Y-62000000D01*
X143022380Y-61761904D02*
X142022380Y-61761904D01*
X142022380Y-62142857D01*
X142070000Y-62238095D01*
X142117619Y-62285714D01*
X142212857Y-62333333D01*
X142355714Y-62333333D01*
X142450952Y-62285714D01*
X142498571Y-62238095D01*
X142546190Y-62142857D01*
X142546190Y-61761904D01*
X142022380Y-63190476D02*
X142022380Y-63000000D01*
X142070000Y-62904761D01*
X142117619Y-62857142D01*
X142260476Y-62761904D01*
X142450952Y-62714285D01*
X142831904Y-62714285D01*
X142927142Y-62761904D01*
X142974761Y-62809523D01*
X143022380Y-62904761D01*
X143022380Y-63095238D01*
X142974761Y-63190476D01*
X142927142Y-63238095D01*
X142831904Y-63285714D01*
X142593809Y-63285714D01*
X142498571Y-63238095D01*
X142450952Y-63190476D01*
X142403333Y-63095238D01*
X142403333Y-62904761D01*
X142450952Y-62809523D01*
X142498571Y-62761904D01*
X142593809Y-62714285D01*
G04 #@! TO.C,R1*
X101272380Y-71833333D02*
X100796190Y-71500000D01*
X101272380Y-71261904D02*
X100272380Y-71261904D01*
X100272380Y-71642857D01*
X100320000Y-71738095D01*
X100367619Y-71785714D01*
X100462857Y-71833333D01*
X100605714Y-71833333D01*
X100700952Y-71785714D01*
X100748571Y-71738095D01*
X100796190Y-71642857D01*
X100796190Y-71261904D01*
X101272380Y-72785714D02*
X101272380Y-72214285D01*
X101272380Y-72500000D02*
X100272380Y-72500000D01*
X100415238Y-72404761D01*
X100510476Y-72309523D01*
X100558095Y-72214285D01*
G04 #@! TO.C,R4*
X119166666Y-46132380D02*
X119500000Y-45656190D01*
X119738095Y-46132380D02*
X119738095Y-45132380D01*
X119357142Y-45132380D01*
X119261904Y-45180000D01*
X119214285Y-45227619D01*
X119166666Y-45322857D01*
X119166666Y-45465714D01*
X119214285Y-45560952D01*
X119261904Y-45608571D01*
X119357142Y-45656190D01*
X119738095Y-45656190D01*
X118309523Y-45465714D02*
X118309523Y-46132380D01*
X118547619Y-45084761D02*
X118785714Y-45799047D01*
X118166666Y-45799047D01*
G04 #@! TO.C,J1*
X88333333Y-51502380D02*
X88333333Y-52216666D01*
X88380952Y-52359523D01*
X88476190Y-52454761D01*
X88619047Y-52502380D01*
X88714285Y-52502380D01*
X87333333Y-52502380D02*
X87904761Y-52502380D01*
X87619047Y-52502380D02*
X87619047Y-51502380D01*
X87714285Y-51645238D01*
X87809523Y-51740476D01*
X87904761Y-51788095D01*
G04 #@! TO.C,C1*
X137166666Y-48737142D02*
X137214285Y-48784761D01*
X137357142Y-48832380D01*
X137452380Y-48832380D01*
X137595238Y-48784761D01*
X137690476Y-48689523D01*
X137738095Y-48594285D01*
X137785714Y-48403809D01*
X137785714Y-48260952D01*
X137738095Y-48070476D01*
X137690476Y-47975238D01*
X137595238Y-47880000D01*
X137452380Y-47832380D01*
X137357142Y-47832380D01*
X137214285Y-47880000D01*
X137166666Y-47927619D01*
X136214285Y-48832380D02*
X136785714Y-48832380D01*
X136500000Y-48832380D02*
X136500000Y-47832380D01*
X136595238Y-47975238D01*
X136690476Y-48070476D01*
X136785714Y-48118095D01*
G04 #@! TO.C,J2*
X89333333Y-72142380D02*
X89333333Y-72856666D01*
X89380952Y-72999523D01*
X89476190Y-73094761D01*
X89619047Y-73142380D01*
X89714285Y-73142380D01*
X88904761Y-72237619D02*
X88857142Y-72190000D01*
X88761904Y-72142380D01*
X88523809Y-72142380D01*
X88428571Y-72190000D01*
X88380952Y-72237619D01*
X88333333Y-72332857D01*
X88333333Y-72428095D01*
X88380952Y-72570952D01*
X88952380Y-73142380D01*
X88333333Y-73142380D01*
G04 #@! TO.C,U1*
X117402380Y-62238095D02*
X118211904Y-62238095D01*
X118307142Y-62285714D01*
X118354761Y-62333333D01*
X118402380Y-62428571D01*
X118402380Y-62619047D01*
X118354761Y-62714285D01*
X118307142Y-62761904D01*
X118211904Y-62809523D01*
X117402380Y-62809523D01*
X118402380Y-63809523D02*
X118402380Y-63238095D01*
X118402380Y-63523809D02*
X117402380Y-63523809D01*
X117545238Y-63428571D01*
X117640476Y-63333333D01*
X117688095Y-63238095D01*
G04 #@! TO.C,R5*
X149022380Y-55083333D02*
X148546190Y-54750000D01*
X149022380Y-54511904D02*
X148022380Y-54511904D01*
X148022380Y-54892857D01*
X148070000Y-54988095D01*
X148117619Y-55035714D01*
X148212857Y-55083333D01*
X148355714Y-55083333D01*
X148450952Y-55035714D01*
X148498571Y-54988095D01*
X148546190Y-54892857D01*
X148546190Y-54511904D01*
X148022380Y-55988095D02*
X148022380Y-55511904D01*
X148498571Y-55464285D01*
X148450952Y-55511904D01*
X148403333Y-55607142D01*
X148403333Y-55845238D01*
X148450952Y-55940476D01*
X148498571Y-55988095D01*
X148593809Y-56035714D01*
X148831904Y-56035714D01*
X148927142Y-55988095D01*
X148974761Y-55940476D01*
X149022380Y-55845238D01*
X149022380Y-55607142D01*
X148974761Y-55511904D01*
X148927142Y-55464285D01*
G04 #@! TO.C,Y1*
X139476190Y-43176190D02*
X139476190Y-43652380D01*
X139809523Y-42652380D02*
X139476190Y-43176190D01*
X139142857Y-42652380D01*
X138285714Y-43652380D02*
X138857142Y-43652380D01*
X138571428Y-43652380D02*
X138571428Y-42652380D01*
X138666666Y-42795238D01*
X138761904Y-42890476D01*
X138857142Y-42938095D01*
G04 #@! TO.C,R2*
X104166666Y-62932380D02*
X104500000Y-62456190D01*
X104738095Y-62932380D02*
X104738095Y-61932380D01*
X104357142Y-61932380D01*
X104261904Y-61980000D01*
X104214285Y-62027619D01*
X104166666Y-62122857D01*
X104166666Y-62265714D01*
X104214285Y-62360952D01*
X104261904Y-62408571D01*
X104357142Y-62456190D01*
X104738095Y-62456190D01*
X103785714Y-62027619D02*
X103738095Y-61980000D01*
X103642857Y-61932380D01*
X103404761Y-61932380D01*
X103309523Y-61980000D01*
X103261904Y-62027619D01*
X103214285Y-62122857D01*
X103214285Y-62218095D01*
X103261904Y-62360952D01*
X103833333Y-62932380D01*
X103214285Y-62932380D01*
G04 #@! TO.C,R3*
X112772380Y-72833333D02*
X112296190Y-72500000D01*
X112772380Y-72261904D02*
X111772380Y-72261904D01*
X111772380Y-72642857D01*
X111820000Y-72738095D01*
X111867619Y-72785714D01*
X111962857Y-72833333D01*
X112105714Y-72833333D01*
X112200952Y-72785714D01*
X112248571Y-72738095D01*
X112296190Y-72642857D01*
X112296190Y-72261904D01*
X111772380Y-73166666D02*
X111772380Y-73785714D01*
X112153333Y-73452380D01*
X112153333Y-73595238D01*
X112200952Y-73690476D01*
X112248571Y-73738095D01*
X112343809Y-73785714D01*
X112581904Y-73785714D01*
X112677142Y-73738095D01*
X112724761Y-73690476D01*
X112772380Y-73595238D01*
X112772380Y-73309523D01*
X112724761Y-73214285D01*
X112677142Y-73166666D01*
G04 #@! TO.C,C2*
X137166666Y-56157142D02*
X137214285Y-56204761D01*
X137357142Y-56252380D01*
X137452380Y-56252380D01*
X137595238Y-56204761D01*
X137690476Y-56109523D01*
X137738095Y-56014285D01*
X137785714Y-55823809D01*
X137785714Y-55680952D01*
X137738095Y-55490476D01*
X137690476Y-55395238D01*
X137595238Y-55300000D01*
X137452380Y-55252380D01*
X137357142Y-55252380D01*
X137214285Y-55300000D01*
X137166666Y-55347619D01*
X136785714Y-55347619D02*
X136738095Y-55300000D01*
X136642857Y-55252380D01*
X136404761Y-55252380D01*
X136309523Y-55300000D01*
X136261904Y-55347619D01*
X136214285Y-55442857D01*
X136214285Y-55538095D01*
X136261904Y-55680952D01*
X136833333Y-56252380D01*
X136214285Y-56252380D01*
G04 #@! TO.C,C11*
X125142857Y-50537142D02*
X125190476Y-50584761D01*
X125333333Y-50632380D01*
X125428571Y-50632380D01*
X125571428Y-50584761D01*
X125666666Y-50489523D01*
X125714285Y-50394285D01*
X125761904Y-50203809D01*
X125761904Y-50060952D01*
X125714285Y-49870476D01*
X125666666Y-49775238D01*
X125571428Y-49680000D01*
X125428571Y-49632380D01*
X125333333Y-49632380D01*
X125190476Y-49680000D01*
X125142857Y-49727619D01*
X124190476Y-50632380D02*
X124761904Y-50632380D01*
X124476190Y-50632380D02*
X124476190Y-49632380D01*
X124571428Y-49775238D01*
X124666666Y-49870476D01*
X124761904Y-49918095D01*
X123238095Y-50632380D02*
X123809523Y-50632380D01*
X123523809Y-50632380D02*
X123523809Y-49632380D01*
X123619047Y-49775238D01*
X123714285Y-49870476D01*
X123809523Y-49918095D01*
G04 #@! TD*
M02*
