G04 #@! TF.GenerationSoftware,KiCad,Pcbnew,(5.0.1-3-g963ef8bb5)*
G04 #@! TF.CreationDate,2019-03-19T08:35:04+01:00*
G04 #@! TF.ProjectId,capacitive-touch-demo,636170616369746976652D746F756368,3.0.0*
G04 #@! TF.SameCoordinates,Original*
G04 #@! TF.FileFunction,Soldermask,Top*
G04 #@! TF.FilePolarity,Negative*
%FSLAX46Y46*%
G04 Gerber Fmt 4.6, Leading zero omitted, Abs format (unit mm)*
G04 Created by KiCad (PCBNEW (5.0.1-3-g963ef8bb5)) date 2019 March 19, Tuesday 08:35:04*
%MOMM*%
%LPD*%
G01*
G04 APERTURE LIST*
%ADD10C,0.100000*%
G04 APERTURE END LIST*
D10*
G36*
X141486899Y-97534672D02*
X142317416Y-97786606D01*
X143082819Y-98195723D01*
X143753700Y-98746300D01*
X144304277Y-99417181D01*
X144713394Y-100182584D01*
X144965328Y-101013101D01*
X145051000Y-101882940D01*
X145051000Y-123117060D01*
X144965328Y-123986899D01*
X144713394Y-124817416D01*
X144304277Y-125582819D01*
X143753700Y-126253700D01*
X143082819Y-126804277D01*
X142317416Y-127213394D01*
X141486899Y-127465328D01*
X140617060Y-127551000D01*
X119382940Y-127551000D01*
X118513101Y-127465328D01*
X117682584Y-127213394D01*
X116917181Y-126804277D01*
X116246300Y-126253700D01*
X115695723Y-125582819D01*
X115286606Y-124817416D01*
X115034672Y-123986899D01*
X114949000Y-123117060D01*
X114949000Y-101882940D01*
X115034672Y-101013101D01*
X115286606Y-100182584D01*
X115695723Y-99417181D01*
X116246300Y-98746300D01*
X116917181Y-98195723D01*
X117682584Y-97786606D01*
X118513101Y-97534672D01*
X119382940Y-97449000D01*
X140617060Y-97449000D01*
X141486899Y-97534672D01*
X141486899Y-97534672D01*
G37*
G36*
X173986899Y-65034672D02*
X174817416Y-65286606D01*
X175582819Y-65695723D01*
X176253700Y-66246300D01*
X176804277Y-66917181D01*
X177213394Y-67682584D01*
X177465328Y-68513101D01*
X177551000Y-69382940D01*
X177551000Y-90617060D01*
X177465328Y-91486899D01*
X177213394Y-92317416D01*
X176804277Y-93082819D01*
X176253700Y-93753700D01*
X175582819Y-94304277D01*
X174817416Y-94713394D01*
X173986899Y-94965328D01*
X173117060Y-95051000D01*
X151882940Y-95051000D01*
X151013101Y-94965328D01*
X150182584Y-94713394D01*
X149417181Y-94304277D01*
X148746300Y-93753700D01*
X148195723Y-93082819D01*
X147786606Y-92317416D01*
X147534672Y-91486899D01*
X147449000Y-90617060D01*
X147449000Y-69382940D01*
X147534672Y-68513101D01*
X147786606Y-67682584D01*
X148195723Y-66917181D01*
X148746300Y-66246300D01*
X149417181Y-65695723D01*
X150182584Y-65286606D01*
X151013101Y-65034672D01*
X151882940Y-64949000D01*
X173117060Y-64949000D01*
X173986899Y-65034672D01*
X173986899Y-65034672D01*
G37*
G36*
X108986899Y-65034672D02*
X109817416Y-65286606D01*
X110582819Y-65695723D01*
X111253700Y-66246300D01*
X111804277Y-66917181D01*
X112213394Y-67682584D01*
X112465328Y-68513101D01*
X112551000Y-69382940D01*
X112551000Y-90617060D01*
X112465328Y-91486899D01*
X112213394Y-92317416D01*
X111804277Y-93082819D01*
X111253700Y-93753700D01*
X110582819Y-94304277D01*
X109817416Y-94713394D01*
X108986899Y-94965328D01*
X108117060Y-95051000D01*
X86882940Y-95051000D01*
X86013101Y-94965328D01*
X85182584Y-94713394D01*
X84417181Y-94304277D01*
X83746300Y-93753700D01*
X83195723Y-93082819D01*
X82786606Y-92317416D01*
X82534672Y-91486899D01*
X82449000Y-90617060D01*
X82449000Y-69382940D01*
X82534672Y-68513101D01*
X82786606Y-67682584D01*
X83195723Y-66917181D01*
X83746300Y-66246300D01*
X84417181Y-65695723D01*
X85182584Y-65286606D01*
X86013101Y-65034672D01*
X86882940Y-64949000D01*
X108117060Y-64949000D01*
X108986899Y-65034672D01*
X108986899Y-65034672D01*
G37*
G36*
X135797948Y-72491439D02*
X136206377Y-72615334D01*
X136582786Y-72816530D01*
X136912709Y-73087291D01*
X137183470Y-73417214D01*
X137384666Y-73793623D01*
X137508561Y-74202052D01*
X137551000Y-74632940D01*
X137551000Y-85367060D01*
X137508561Y-85797948D01*
X137384666Y-86206377D01*
X137183470Y-86582786D01*
X136912709Y-86912709D01*
X136582786Y-87183470D01*
X136206377Y-87384666D01*
X135797948Y-87508561D01*
X135367060Y-87551000D01*
X124632940Y-87551000D01*
X124202052Y-87508561D01*
X123793623Y-87384666D01*
X123417214Y-87183470D01*
X123087291Y-86912709D01*
X122816530Y-86582786D01*
X122615334Y-86206377D01*
X122491439Y-85797948D01*
X122449000Y-85367060D01*
X122449000Y-74632940D01*
X122491439Y-74202052D01*
X122615334Y-73793623D01*
X122816530Y-73417214D01*
X123087291Y-73087291D01*
X123417214Y-72816530D01*
X123793623Y-72615334D01*
X124202052Y-72491439D01*
X124632940Y-72449000D01*
X135367060Y-72449000D01*
X135797948Y-72491439D01*
X135797948Y-72491439D01*
G37*
G36*
X141486899Y-32534672D02*
X142317416Y-32786606D01*
X143082819Y-33195723D01*
X143753700Y-33746300D01*
X144304277Y-34417181D01*
X144713394Y-35182584D01*
X144965328Y-36013101D01*
X145051000Y-36882940D01*
X145051000Y-58117060D01*
X144965328Y-58986899D01*
X144713394Y-59817416D01*
X144304277Y-60582819D01*
X143753700Y-61253700D01*
X143082819Y-61804277D01*
X142317416Y-62213394D01*
X141486899Y-62465328D01*
X140617060Y-62551000D01*
X119382940Y-62551000D01*
X118513101Y-62465328D01*
X117682584Y-62213394D01*
X116917181Y-61804277D01*
X116246300Y-61253700D01*
X115695723Y-60582819D01*
X115286606Y-59817416D01*
X115034672Y-58986899D01*
X114949000Y-58117060D01*
X114949000Y-36882940D01*
X115034672Y-36013101D01*
X115286606Y-35182584D01*
X115695723Y-34417181D01*
X116246300Y-33746300D01*
X116917181Y-33195723D01*
X117682584Y-32786606D01*
X118513101Y-32534672D01*
X119382940Y-32449000D01*
X140617060Y-32449000D01*
X141486899Y-32534672D01*
X141486899Y-32534672D01*
G37*
M02*
