M48
;DRILL file {KiCad (5.0.1-3-g963ef8bb5)} date 2019 March 19, Tuesday 08:35:17
;FORMAT={-:-/ absolute / inch / decimal}
FMAT,2
INCH,TZ
T1C0.0197
T2C0.1378
%
G90
G05
M72
T1
X3.6299Y-2.4488
X3.7717Y-2.2047
X3.8819Y-2.5276
X4.0315Y-1.811
X4.1575Y-2.2677
X4.2283Y-2.2126
X4.3307Y-2.1654
X4.3307Y-2.4094
X4.3937Y-2.5591
X4.4094Y-1.8346
X4.4882Y-3.1024
X4.5039Y-2.5591
X4.6693Y-3.0709
X4.6693Y-3.2756
X4.7165Y-2.9528
X4.7559Y-3.5118
X5.1181Y-3.1496
X5.1811Y-2.6772
X6.3976Y-3.1496
T2
X3.3465Y-1.378
X3.3465Y-4.9213
X6.8898Y-1.378
X6.8898Y-4.9213
T0
M30
