G04 #@! TF.GenerationSoftware,KiCad,Pcbnew,(5.0.1-3-g963ef8bb5)*
G04 #@! TF.CreationDate,2019-03-19T08:35:04+01:00*
G04 #@! TF.ProjectId,capacitive-touch-demo,636170616369746976652D746F756368,3.0.0*
G04 #@! TF.SameCoordinates,Original*
G04 #@! TF.FileFunction,Copper,L1,Top,Signal*
G04 #@! TF.FilePolarity,Positive*
%FSLAX46Y46*%
G04 Gerber Fmt 4.6, Leading zero omitted, Abs format (unit mm)*
G04 Created by KiCad (PCBNEW (5.0.1-3-g963ef8bb5)) date 2019 March 19, Tuesday 08:35:04*
%MOMM*%
%LPD*%
G01*
G04 APERTURE LIST*
G04 #@! TA.AperFunction,Conductor*
%ADD10C,0.100000*%
G04 #@! TD*
G04 #@! TA.AperFunction,SMDPad,CuDef*
%ADD11C,30.000000*%
G04 #@! TD*
G04 #@! TA.AperFunction,SMDPad,CuDef*
%ADD12C,15.000000*%
G04 #@! TD*
G04 #@! TA.AperFunction,ViaPad*
%ADD13C,1.000000*%
G04 #@! TD*
G04 #@! TA.AperFunction,ViaPad*
%ADD14C,7.000000*%
G04 #@! TD*
G04 #@! TA.AperFunction,Conductor*
%ADD15C,0.254000*%
G04 #@! TD*
G04 APERTURE END LIST*
D10*
G04 #@! TO.N,Net-(C6-Pad1)*
G04 #@! TO.C,C6*
G36*
X140941077Y-97521669D02*
X141377906Y-97586466D01*
X141806281Y-97693768D01*
X142222075Y-97842542D01*
X142621285Y-98031354D01*
X143000066Y-98258387D01*
X143354770Y-98521453D01*
X143681981Y-98818019D01*
X143978547Y-99145230D01*
X144241613Y-99499934D01*
X144468646Y-99878715D01*
X144657458Y-100277925D01*
X144806232Y-100693719D01*
X144913534Y-101122094D01*
X144978331Y-101558923D01*
X145000000Y-102000000D01*
X145000000Y-123000000D01*
X144978331Y-123441077D01*
X144913534Y-123877906D01*
X144806232Y-124306281D01*
X144657458Y-124722075D01*
X144468646Y-125121285D01*
X144241613Y-125500066D01*
X143978547Y-125854770D01*
X143681981Y-126181981D01*
X143354770Y-126478547D01*
X143000066Y-126741613D01*
X142621285Y-126968646D01*
X142222075Y-127157458D01*
X141806281Y-127306232D01*
X141377906Y-127413534D01*
X140941077Y-127478331D01*
X140500000Y-127500000D01*
X119500000Y-127500000D01*
X119058923Y-127478331D01*
X118622094Y-127413534D01*
X118193719Y-127306232D01*
X117777925Y-127157458D01*
X117378715Y-126968646D01*
X116999934Y-126741613D01*
X116645230Y-126478547D01*
X116318019Y-126181981D01*
X116021453Y-125854770D01*
X115758387Y-125500066D01*
X115531354Y-125121285D01*
X115342542Y-124722075D01*
X115193768Y-124306281D01*
X115086466Y-123877906D01*
X115021669Y-123441077D01*
X115000000Y-123000000D01*
X115000000Y-102000000D01*
X115021669Y-101558923D01*
X115086466Y-101122094D01*
X115193768Y-100693719D01*
X115342542Y-100277925D01*
X115531354Y-99878715D01*
X115758387Y-99499934D01*
X116021453Y-99145230D01*
X116318019Y-98818019D01*
X116645230Y-98521453D01*
X116999934Y-98258387D01*
X117378715Y-98031354D01*
X117777925Y-97842542D01*
X118193719Y-97693768D01*
X118622094Y-97586466D01*
X119058923Y-97521669D01*
X119500000Y-97500000D01*
X140500000Y-97500000D01*
X140941077Y-97521669D01*
X140941077Y-97521669D01*
G37*
D11*
G04 #@! TD*
G04 #@! TO.P,C6,1*
G04 #@! TO.N,Net-(C6-Pad1)*
X130000000Y-112500000D03*
D10*
G04 #@! TO.N,Net-(C8-Pad1)*
G04 #@! TO.C,C8*
G36*
X140941077Y-32521669D02*
X141377906Y-32586466D01*
X141806281Y-32693768D01*
X142222075Y-32842542D01*
X142621285Y-33031354D01*
X143000066Y-33258387D01*
X143354770Y-33521453D01*
X143681981Y-33818019D01*
X143978547Y-34145230D01*
X144241613Y-34499934D01*
X144468646Y-34878715D01*
X144657458Y-35277925D01*
X144806232Y-35693719D01*
X144913534Y-36122094D01*
X144978331Y-36558923D01*
X145000000Y-37000000D01*
X145000000Y-58000000D01*
X144978331Y-58441077D01*
X144913534Y-58877906D01*
X144806232Y-59306281D01*
X144657458Y-59722075D01*
X144468646Y-60121285D01*
X144241613Y-60500066D01*
X143978547Y-60854770D01*
X143681981Y-61181981D01*
X143354770Y-61478547D01*
X143000066Y-61741613D01*
X142621285Y-61968646D01*
X142222075Y-62157458D01*
X141806281Y-62306232D01*
X141377906Y-62413534D01*
X140941077Y-62478331D01*
X140500000Y-62500000D01*
X119500000Y-62500000D01*
X119058923Y-62478331D01*
X118622094Y-62413534D01*
X118193719Y-62306232D01*
X117777925Y-62157458D01*
X117378715Y-61968646D01*
X116999934Y-61741613D01*
X116645230Y-61478547D01*
X116318019Y-61181981D01*
X116021453Y-60854770D01*
X115758387Y-60500066D01*
X115531354Y-60121285D01*
X115342542Y-59722075D01*
X115193768Y-59306281D01*
X115086466Y-58877906D01*
X115021669Y-58441077D01*
X115000000Y-58000000D01*
X115000000Y-37000000D01*
X115021669Y-36558923D01*
X115086466Y-36122094D01*
X115193768Y-35693719D01*
X115342542Y-35277925D01*
X115531354Y-34878715D01*
X115758387Y-34499934D01*
X116021453Y-34145230D01*
X116318019Y-33818019D01*
X116645230Y-33521453D01*
X116999934Y-33258387D01*
X117378715Y-33031354D01*
X117777925Y-32842542D01*
X118193719Y-32693768D01*
X118622094Y-32586466D01*
X119058923Y-32521669D01*
X119500000Y-32500000D01*
X140500000Y-32500000D01*
X140941077Y-32521669D01*
X140941077Y-32521669D01*
G37*
D11*
G04 #@! TD*
G04 #@! TO.P,C8,1*
G04 #@! TO.N,Net-(C8-Pad1)*
X130000000Y-47500000D03*
D10*
G04 #@! TO.N,Net-(C13-Pad1)*
G04 #@! TO.C,C13*
G36*
X135470539Y-72510834D02*
X135688953Y-72543233D01*
X135903141Y-72596884D01*
X136111038Y-72671271D01*
X136310643Y-72765677D01*
X136500033Y-72879193D01*
X136677385Y-73010726D01*
X136840990Y-73159010D01*
X136989274Y-73322615D01*
X137120807Y-73499967D01*
X137234323Y-73689357D01*
X137328729Y-73888962D01*
X137403116Y-74096859D01*
X137456767Y-74311047D01*
X137489166Y-74529461D01*
X137500000Y-74750000D01*
X137500000Y-85250000D01*
X137489166Y-85470539D01*
X137456767Y-85688953D01*
X137403116Y-85903141D01*
X137328729Y-86111038D01*
X137234323Y-86310643D01*
X137120807Y-86500033D01*
X136989274Y-86677385D01*
X136840990Y-86840990D01*
X136677385Y-86989274D01*
X136500033Y-87120807D01*
X136310643Y-87234323D01*
X136111038Y-87328729D01*
X135903141Y-87403116D01*
X135688953Y-87456767D01*
X135470539Y-87489166D01*
X135250000Y-87500000D01*
X124750000Y-87500000D01*
X124529461Y-87489166D01*
X124311047Y-87456767D01*
X124096859Y-87403116D01*
X123888962Y-87328729D01*
X123689357Y-87234323D01*
X123499967Y-87120807D01*
X123322615Y-86989274D01*
X123159010Y-86840990D01*
X123010726Y-86677385D01*
X122879193Y-86500033D01*
X122765677Y-86310643D01*
X122671271Y-86111038D01*
X122596884Y-85903141D01*
X122543233Y-85688953D01*
X122510834Y-85470539D01*
X122500000Y-85250000D01*
X122500000Y-74750000D01*
X122510834Y-74529461D01*
X122543233Y-74311047D01*
X122596884Y-74096859D01*
X122671271Y-73888962D01*
X122765677Y-73689357D01*
X122879193Y-73499967D01*
X123010726Y-73322615D01*
X123159010Y-73159010D01*
X123322615Y-73010726D01*
X123499967Y-72879193D01*
X123689357Y-72765677D01*
X123888962Y-72671271D01*
X124096859Y-72596884D01*
X124311047Y-72543233D01*
X124529461Y-72510834D01*
X124750000Y-72500000D01*
X135250000Y-72500000D01*
X135470539Y-72510834D01*
X135470539Y-72510834D01*
G37*
D12*
G04 #@! TD*
G04 #@! TO.P,C13,1*
G04 #@! TO.N,Net-(C13-Pad1)*
X130000000Y-80000000D03*
D10*
G04 #@! TO.N,Net-(C4-Pad1)*
G04 #@! TO.C,C4*
G36*
X108441077Y-65021669D02*
X108877906Y-65086466D01*
X109306281Y-65193768D01*
X109722075Y-65342542D01*
X110121285Y-65531354D01*
X110500066Y-65758387D01*
X110854770Y-66021453D01*
X111181981Y-66318019D01*
X111478547Y-66645230D01*
X111741613Y-66999934D01*
X111968646Y-67378715D01*
X112157458Y-67777925D01*
X112306232Y-68193719D01*
X112413534Y-68622094D01*
X112478331Y-69058923D01*
X112500000Y-69500000D01*
X112500000Y-90500000D01*
X112478331Y-90941077D01*
X112413534Y-91377906D01*
X112306232Y-91806281D01*
X112157458Y-92222075D01*
X111968646Y-92621285D01*
X111741613Y-93000066D01*
X111478547Y-93354770D01*
X111181981Y-93681981D01*
X110854770Y-93978547D01*
X110500066Y-94241613D01*
X110121285Y-94468646D01*
X109722075Y-94657458D01*
X109306281Y-94806232D01*
X108877906Y-94913534D01*
X108441077Y-94978331D01*
X108000000Y-95000000D01*
X87000000Y-95000000D01*
X86558923Y-94978331D01*
X86122094Y-94913534D01*
X85693719Y-94806232D01*
X85277925Y-94657458D01*
X84878715Y-94468646D01*
X84499934Y-94241613D01*
X84145230Y-93978547D01*
X83818019Y-93681981D01*
X83521453Y-93354770D01*
X83258387Y-93000066D01*
X83031354Y-92621285D01*
X82842542Y-92222075D01*
X82693768Y-91806281D01*
X82586466Y-91377906D01*
X82521669Y-90941077D01*
X82500000Y-90500000D01*
X82500000Y-69500000D01*
X82521669Y-69058923D01*
X82586466Y-68622094D01*
X82693768Y-68193719D01*
X82842542Y-67777925D01*
X83031354Y-67378715D01*
X83258387Y-66999934D01*
X83521453Y-66645230D01*
X83818019Y-66318019D01*
X84145230Y-66021453D01*
X84499934Y-65758387D01*
X84878715Y-65531354D01*
X85277925Y-65342542D01*
X85693719Y-65193768D01*
X86122094Y-65086466D01*
X86558923Y-65021669D01*
X87000000Y-65000000D01*
X108000000Y-65000000D01*
X108441077Y-65021669D01*
X108441077Y-65021669D01*
G37*
D11*
G04 #@! TD*
G04 #@! TO.P,C4,1*
G04 #@! TO.N,Net-(C4-Pad1)*
X97500000Y-80000000D03*
D10*
G04 #@! TO.N,Net-(C10-Pad1)*
G04 #@! TO.C,C10*
G36*
X173441077Y-65021669D02*
X173877906Y-65086466D01*
X174306281Y-65193768D01*
X174722075Y-65342542D01*
X175121285Y-65531354D01*
X175500066Y-65758387D01*
X175854770Y-66021453D01*
X176181981Y-66318019D01*
X176478547Y-66645230D01*
X176741613Y-66999934D01*
X176968646Y-67378715D01*
X177157458Y-67777925D01*
X177306232Y-68193719D01*
X177413534Y-68622094D01*
X177478331Y-69058923D01*
X177500000Y-69500000D01*
X177500000Y-90500000D01*
X177478331Y-90941077D01*
X177413534Y-91377906D01*
X177306232Y-91806281D01*
X177157458Y-92222075D01*
X176968646Y-92621285D01*
X176741613Y-93000066D01*
X176478547Y-93354770D01*
X176181981Y-93681981D01*
X175854770Y-93978547D01*
X175500066Y-94241613D01*
X175121285Y-94468646D01*
X174722075Y-94657458D01*
X174306281Y-94806232D01*
X173877906Y-94913534D01*
X173441077Y-94978331D01*
X173000000Y-95000000D01*
X152000000Y-95000000D01*
X151558923Y-94978331D01*
X151122094Y-94913534D01*
X150693719Y-94806232D01*
X150277925Y-94657458D01*
X149878715Y-94468646D01*
X149499934Y-94241613D01*
X149145230Y-93978547D01*
X148818019Y-93681981D01*
X148521453Y-93354770D01*
X148258387Y-93000066D01*
X148031354Y-92621285D01*
X147842542Y-92222075D01*
X147693768Y-91806281D01*
X147586466Y-91377906D01*
X147521669Y-90941077D01*
X147500000Y-90500000D01*
X147500000Y-69500000D01*
X147521669Y-69058923D01*
X147586466Y-68622094D01*
X147693768Y-68193719D01*
X147842542Y-67777925D01*
X148031354Y-67378715D01*
X148258387Y-66999934D01*
X148521453Y-66645230D01*
X148818019Y-66318019D01*
X149145230Y-66021453D01*
X149499934Y-65758387D01*
X149878715Y-65531354D01*
X150277925Y-65342542D01*
X150693719Y-65193768D01*
X151122094Y-65086466D01*
X151558923Y-65021669D01*
X152000000Y-65000000D01*
X173000000Y-65000000D01*
X173441077Y-65021669D01*
X173441077Y-65021669D01*
G37*
D11*
G04 #@! TD*
G04 #@! TO.P,C10,1*
G04 #@! TO.N,Net-(C10-Pad1)*
X162500000Y-80000000D03*
D13*
G04 #@! TO.N,Net-(C10-Pad1)*
X162500000Y-80000000D03*
G04 #@! TO.N,Net-(R2-Pad1)*
X110000000Y-55000000D03*
X110000000Y-61200006D03*
G04 #@! TO.N,VCC*
X102400000Y-46000000D03*
X114000000Y-78800000D03*
G04 #@! TO.N,/RPin*
X111600000Y-65000000D03*
X105600000Y-57600000D03*
D14*
G04 #@! TO.N,GND*
X85000000Y-35000000D03*
X85000000Y-125000000D03*
X175000000Y-125000000D03*
D13*
X92200000Y-62200000D03*
X95800000Y-56000000D03*
X118600000Y-78000000D03*
X120800000Y-89200000D03*
X118600000Y-83200000D03*
D14*
X175000000Y-35000000D03*
D13*
G04 #@! TO.N,/MOSI*
X119800000Y-75000000D03*
X131600000Y-68000000D03*
G04 #@! TO.N,Net-(C13-Pad1)*
X130000000Y-80000000D03*
G04 #@! TO.N,Net-(C4-Pad1)*
X98600000Y-64200000D03*
X107400000Y-56200000D03*
G04 #@! TO.N,Net-(C6-Pad1)*
X114400000Y-65000000D03*
G04 #@! TO.N,Net-(C8-Pad1)*
X112000000Y-46600000D03*
G04 #@! TD*
D15*
G04 #@! TO.N,Net-(R2-Pad1)*
X110000000Y-55000000D02*
X110000000Y-61200006D01*
G04 #@! TO.N,VCC*
X114000000Y-67000000D02*
X112800000Y-65800000D01*
X104800000Y-46000000D02*
X102400000Y-46000000D01*
X112800000Y-54000000D02*
X104800000Y-46000000D01*
X112800000Y-65800000D02*
X112800000Y-54000000D01*
X114000000Y-78800000D02*
X114000000Y-67000000D01*
G04 #@! TO.N,/RPin*
X105600000Y-58307106D02*
X105600000Y-57600000D01*
X105600000Y-59000000D02*
X105600000Y-58307106D01*
X111600000Y-65000000D02*
X105600000Y-59000000D01*
G04 #@! TO.N,GND*
X95800000Y-58600000D02*
X95800000Y-56000000D01*
X92200000Y-62200000D02*
X95800000Y-58600000D01*
X120300001Y-88700001D02*
X120800000Y-89200000D01*
X118600000Y-87000000D02*
X120300001Y-88700001D01*
X118600000Y-78000000D02*
X118600000Y-83200000D01*
X118600000Y-83200000D02*
X118600000Y-87000000D01*
G04 #@! TO.N,/MOSI*
X119800000Y-75000000D02*
X123600000Y-71200000D01*
X123600000Y-71200000D02*
X128400000Y-71200000D01*
X128400000Y-71200000D02*
X131600000Y-68000000D01*
G04 #@! TO.N,Net-(C4-Pad1)*
X100600000Y-76900000D02*
X97500000Y-80000000D01*
X98600000Y-78900000D02*
X97500000Y-80000000D01*
X98600000Y-64200000D02*
X98600000Y-78900000D01*
X101400000Y-56200000D02*
X107400000Y-56200000D01*
X98600000Y-64200000D02*
X98600000Y-59000000D01*
X98600000Y-59000000D02*
X101400000Y-56200000D01*
G04 #@! TO.N,Net-(C6-Pad1)*
X121000000Y-103500000D02*
X130000000Y-112500000D01*
X121000000Y-93600000D02*
X121000000Y-103500000D01*
X116000000Y-67307106D02*
X116000000Y-88600000D01*
X116000000Y-88600000D02*
X121000000Y-93600000D01*
X114400000Y-65000000D02*
X114400000Y-65707106D01*
X114400000Y-65707106D02*
X116000000Y-67307106D01*
G04 #@! TO.N,Net-(C8-Pad1)*
X120700000Y-47500000D02*
X130000000Y-47500000D01*
X117800000Y-44600000D02*
X120700000Y-47500000D01*
X112000000Y-46600000D02*
X112000000Y-45400000D01*
X112800000Y-44600000D02*
X117800000Y-44600000D01*
X112000000Y-45400000D02*
X112800000Y-44600000D01*
G04 #@! TD*
M02*
